<svg width="126" height="16" viewBox="0 0 126 16" fill="none" xmlns="http://www.w3.org/2000/svg">
<path d="M0.119141 15V1.23286H8.96944V3.59294H2.71523V6.87739H8.41875V9.23746H2.71523V12.6399H9.08744V15H0.119141Z" fill="#F6EC10"/>
<path d="M17.342 15V3.59294H13.3299V1.23286H23.9503V3.59294H19.9381V15H17.342Z" fill="#F6EC10"/>
<path d="M28.8649 15V1.23286H31.461V6.91672H36.5745V1.23286H39.1706V15H36.5745V9.2768H31.461V15H28.8649Z" fill="#F6EC10"/>
<path d="M53.0588 15V1.23286H58.723C59.5884 1.23286 60.3488 1.40987 61.0044 1.76388C61.6731 2.10478 62.191 2.58991 62.5581 3.21926C62.9384 3.84862 63.1285 4.59598 63.1285 5.46134V5.73668C63.1285 6.58893 62.9318 7.33629 62.5385 7.97876C62.1582 8.60811 61.6338 9.09979 60.9651 9.45381C60.3095 9.79471 59.5622 9.96516 58.723 9.96516H55.6549V15H53.0588ZM55.6549 7.60508H58.4673C59.0836 7.60508 59.5818 7.43463 59.9621 7.09373C60.3423 6.75283 60.5324 6.28737 60.5324 5.69735V5.50067C60.5324 4.91065 60.3423 4.44519 59.9621 4.10429C59.5818 3.76339 59.0836 3.59294 58.4673 3.59294H55.6549V7.60508Z" fill="#F6EC10"/>
<path d="M73.4246 15.2753C71.6939 15.2753 70.3172 14.8033 69.2945 13.8593C68.2718 12.9021 67.7605 11.5385 67.7605 9.76848V6.46437C67.7605 4.69431 68.2718 3.33727 69.2945 2.39323C70.3172 1.43609 71.6939 0.95752 73.4246 0.95752C75.1554 0.95752 76.5321 1.43609 77.5548 2.39323C78.5775 3.33727 79.0888 4.69431 79.0888 6.46437V9.76848C79.0888 11.5385 78.5775 12.9021 77.5548 13.8593C76.5321 14.8033 75.1554 15.2753 73.4246 15.2753ZM73.4246 12.9546C74.3949 12.9546 75.1488 12.6727 75.6864 12.1089C76.224 11.5451 76.4928 10.7912 76.4928 9.84715V6.3857C76.4928 5.44167 76.224 4.68776 75.6864 4.12396C75.1488 3.56016 74.3949 3.27826 73.4246 3.27826C72.4675 3.27826 71.7136 3.56016 71.1629 4.12396C70.6253 4.68776 70.3565 5.44167 70.3565 6.3857V9.84715C70.3565 10.7912 70.6253 11.5451 71.1629 12.1089C71.7136 12.6727 72.4675 12.9546 73.4246 12.9546Z" fill="#F6EC10"/>
<path d="M84.5127 15V1.23286H90.4916C91.3569 1.23286 92.1109 1.38364 92.7533 1.68521C93.3958 1.98678 93.894 2.4129 94.248 2.96359C94.6021 3.51427 94.7791 4.16329 94.7791 4.91065V5.14666C94.7791 5.97269 94.5824 6.64138 94.189 7.15273C93.7957 7.66408 93.3106 8.03776 92.7337 8.27377V8.62778C93.2581 8.654 93.6646 8.83756 93.953 9.17846C94.2415 9.50625 94.3857 9.94549 94.3857 10.4962V15H91.7896V10.8699C91.7896 10.5552 91.7044 10.2995 91.534 10.1028C91.3766 9.90615 91.1078 9.80782 90.7276 9.80782H87.1088V15H84.5127ZM87.1088 7.44774H90.2162C90.8325 7.44774 91.3111 7.28384 91.652 6.95606C92.006 6.61515 92.183 6.16936 92.183 5.61868V5.422C92.183 4.87132 92.0125 4.43208 91.6716 4.10429C91.3307 3.76339 90.8456 3.59294 90.2162 3.59294H87.1088V7.44774Z" fill="#F6EC10"/>
<path d="M103.042 15V3.59294H99.0295V1.23286H109.65V3.59294H105.638V15H103.042Z" fill="#F6EC10"/>
<path d="M119.357 15.2753C117.626 15.2753 116.25 14.8033 115.227 13.8593C114.204 12.9021 113.693 11.5385 113.693 9.76848V6.46437C113.693 4.69431 114.204 3.33727 115.227 2.39323C116.25 1.43609 117.626 0.95752 119.357 0.95752C121.088 0.95752 122.465 1.43609 123.487 2.39323C124.51 3.33727 125.021 4.69431 125.021 6.46437V9.76848C125.021 11.5385 124.51 12.9021 123.487 13.8593C122.465 14.8033 121.088 15.2753 119.357 15.2753ZM119.357 12.9546C120.327 12.9546 121.081 12.6727 121.619 12.1089C122.156 11.5451 122.425 10.7912 122.425 9.84715V6.3857C122.425 5.44167 122.156 4.68776 121.619 4.12396C121.081 3.56016 120.327 3.27826 119.357 3.27826C118.4 3.27826 117.646 3.56016 117.095 4.12396C116.558 4.68776 116.289 5.44167 116.289 6.3857V9.84715C116.289 10.7912 116.558 11.5451 117.095 12.1089C117.646 12.6727 118.4 12.9546 119.357 12.9546Z" fill="#F6EC10"/>
</svg>
