<svg width="153" height="43" viewBox="0 0 153 43" fill="none" xmlns="http://www.w3.org/2000/svg">
<g clip-path="url(#clip0_449_5506)">
<path d="M66.4947 43H60.798V0H66.4947V43ZM152.499 43H146.802V0H152.499V43ZM76.9522 43H71.2606V0H76.9522V43ZM103.244 43H97.8384L97.7747 42.9347L82.3872 26.9102L87.0392 22.4038L103.244 39.7355V43ZM79.8728 25.2633V17.2207L97.7891 0H102.684V3.20522L102.615 3.26972L79.8728 25.2633ZM26.9535 43H22.1484V39.9505L50.6116 0.01462H56.2046V25.3588H50.5078V9.53482L26.9544 43H26.9535Z" fill="white"/>
<path d="M56.2046 43H50.5078V33.7206H36.9615L40.9854 28.2975H56.2199L56.2046 43ZM10.6165 5.42316H0V0H10.6165V5.42316ZM19.2329 43H13.532V0H30.9792V5.42316H19.2329V43ZM109.915 43H105.188V39.5196L119.724 6.3597L122.917 13.2904L122.873 13.385L109.915 43ZM137.463 25.118H131.163L121.333 2.7692L122.551 0H126.416L137.463 25.118ZM143.867 43H139.032L134.84 33.4858H117.285L119.615 28.0721H138.765L143.867 39.6907V43Z" fill="white"/>
</g>
<defs>
<clipPath id="clip0_449_5506">
<rect width="153" height="43" fill="white"/>
</clipPath>
</defs>
</svg>
