<svg width="24" height="20" viewBox="0 0 24 20" fill="none" xmlns="http://www.w3.org/2000/svg">
<path d="M23.4562 2.30816C23.0792 2.47835 22.6915 2.622 22.2954 2.73866C22.7643 2.19885 23.1219 1.56373 23.3401 0.868721C23.389 0.712945 23.3383 0.542426 23.2125 0.440515C23.0868 0.338557 22.9123 0.326343 22.774 0.409789C21.9328 0.917577 21.0253 1.28252 20.0737 1.49588C19.1152 0.542569 17.8133 0 16.4674 0C13.6265 0 11.3153 2.35244 11.3153 5.24391C11.3153 5.47163 11.3294 5.69812 11.3575 5.92145C7.83217 5.60642 4.55477 3.84278 2.30421 1.03285C2.224 0.932702 2.10044 0.878693 1.97393 0.889046C1.84736 0.899113 1.7336 0.971777 1.66966 1.08347C1.21319 1.88067 0.971879 2.79247 0.971879 3.72021C0.971879 4.98379 1.41508 6.18262 2.19804 7.11943C1.95996 7.0355 1.72896 6.93064 1.50846 6.80606C1.3901 6.73898 1.24563 6.74003 1.12802 6.80864C1.01036 6.87729 0.936582 7.00349 0.933442 7.14147C0.932879 7.16471 0.932879 7.18794 0.932879 7.21151C0.932879 9.09757 1.93019 10.7957 3.45499 11.7211C3.32397 11.7078 3.1931 11.6885 3.06302 11.6632C2.92891 11.6371 2.79105 11.685 2.70063 11.7891C2.61007 11.8931 2.58007 12.0381 2.62183 12.1705C3.18621 13.964 4.63928 15.2832 6.39592 15.6854C4.93896 16.6142 3.27283 17.1007 1.52379 17.1007C1.15882 17.1007 0.791786 17.0789 0.432583 17.0356C0.25413 17.014 0.0835046 17.1213 0.0227077 17.294C-0.0380892 17.4668 0.026364 17.6595 0.178145 17.7585C2.4251 19.2249 5.02319 20 7.69146 20C12.9369 20 16.2183 17.4823 18.0474 15.3703C20.3282 12.7367 21.6362 9.25082 21.6362 5.80657C21.6362 5.66267 21.634 5.51739 21.6297 5.37254C22.5295 4.6825 23.3042 3.84736 23.9347 2.88751C24.0304 2.74176 24.0201 2.54905 23.9091 2.41489C23.7985 2.28049 23.6138 2.23707 23.4562 2.30816Z" fill="#F6EC10"/>
</svg>
