<svg width="157" height="50" viewBox="0 0 157 50" fill="none" xmlns="http://www.w3.org/2000/svg">
<g clip-path="url(#clip0_449_5510)">
<path d="M38.5996 18.2999C38.5996 17.2999 38.7996 16.3999 39.1996 15.6999C39.5996 14.8999 40.1996 14.2999 40.8996 13.8999C41.5996 13.4999 42.4996 13.2999 43.3996 13.2999C44.2996 13.2999 45.0996 13.4999 45.8996 13.8999C46.5996 14.2999 47.1996 14.8999 47.5996 15.6999C47.9996 16.4999 48.1996 17.3999 48.1996 18.3999V19.1999H41.0996C41.0996 19.7999 41.3996 20.2999 41.7996 20.6999C42.1996 21.0999 42.7996 21.2999 43.4996 21.2999C43.9996 21.2999 44.3996 21.1999 44.7996 20.9999C45.1996 20.7999 45.6996 20.3999 46.0996 19.8999L47.6996 21.4999C47.0996 22.0999 46.4996 22.5999 45.7996 22.8999C45.0996 23.1999 44.2996 23.3999 43.3996 23.3999C42.3996 23.3999 41.5996 23.1999 40.7996 22.7999C40.0996 22.3999 39.4996 21.7999 39.0996 20.9999C38.7996 20.0999 38.5996 19.1999 38.5996 18.2999ZM45.5996 17.1999C45.5996 16.6999 45.2996 16.1999 44.8996 15.8999C44.4996 15.5999 43.9996 15.3999 43.3996 15.3999C42.7996 15.3999 42.2996 15.5999 41.8996 15.8999C41.4996 16.1999 41.2996 16.6999 41.1996 17.1999H45.5996ZM55.9996 15.7999V19.5999C55.9996 19.8999 56.0996 20.1999 56.1996 20.2999C56.2996 20.3999 56.5996 20.4999 56.8996 20.4999H59.0996V22.9999H56.6996C55.5996 22.9999 54.7996 22.7999 54.2996 22.2999C53.6996 21.7999 53.3996 21.0999 53.3996 20.1999V15.7999H51.0996V13.4999H53.3996V10.9999H55.9996V13.3999H59.6996V15.6999H55.9996V15.7999ZM63.0996 9.8999H65.6996V14.3999C66.3996 13.5999 67.2996 13.1999 68.4996 13.1999C69.1996 13.1999 69.7996 13.3999 70.3996 13.6999C70.8996 13.9999 71.3996 14.4999 71.6996 15.0999C71.9996 15.6999 72.1996 16.3999 72.1996 17.1999V22.9999H69.5996V17.5999C69.5996 16.9999 69.3996 16.4999 69.0996 16.0999C68.7996 15.6999 68.2996 15.5999 67.7996 15.5999C67.1996 15.5999 66.6996 15.7999 66.3996 16.0999C66.0996 16.4999 65.8996 16.8999 65.8996 17.5999V22.9999H63.2996V9.8999H63.0996ZM74.5996 18.2999C74.5996 17.2999 74.7996 16.3999 75.1996 15.6999C75.5996 14.8999 76.1996 14.2999 76.8996 13.8999C77.5996 13.4999 78.4996 13.2999 79.3996 13.2999C80.2996 13.2999 81.0996 13.4999 81.8996 13.8999C82.5996 14.2999 83.1996 14.8999 83.5996 15.6999C83.9996 16.4999 84.1996 17.3999 84.1996 18.3999V19.1999H77.0996C77.0996 19.7999 77.3996 20.2999 77.7996 20.6999C78.1996 21.0999 78.7996 21.2999 79.4996 21.2999C79.9996 21.2999 80.3996 21.1999 80.7996 20.9999C81.1996 20.7999 81.6996 20.3999 82.0996 19.8999L83.6996 21.4999C83.0996 22.0999 82.4996 22.5999 81.7996 22.8999C81.0996 23.1999 80.2996 23.3999 79.3996 23.3999C78.3996 23.3999 77.5996 23.1999 76.7996 22.7999C76.0996 22.3999 75.4996 21.7999 75.0996 20.9999C74.7996 20.0999 74.5996 19.1999 74.5996 18.2999ZM81.6996 17.1999C81.6996 16.6999 81.3996 16.1999 80.9996 15.8999C80.5996 15.5999 80.0996 15.3999 79.4996 15.3999C78.8996 15.3999 78.3996 15.5999 77.9996 15.8999C77.5996 16.1999 77.3996 16.6999 77.2996 17.1999H81.6996ZM87.7996 13.4999H90.2996V14.3999C90.6996 13.9999 91.0996 13.6999 91.5996 13.4999C91.9996 13.2999 92.4996 13.1999 93.0996 13.1999C93.8996 13.1999 94.5996 13.3999 95.1996 13.8999C95.7996 14.3999 96.1996 14.9999 96.4996 15.8999L94.0996 16.6999C93.7996 15.8999 93.2996 15.4999 92.3996 15.4999C91.7996 15.4999 91.2996 15.6999 90.8996 16.0999C90.5996 16.4999 90.3996 16.9999 90.3996 17.6999V22.9999H87.7996V13.4999ZM98.6996 18.2999C98.6996 17.2999 98.8996 16.3999 99.2996 15.6999C99.6996 14.8999 100.3 14.2999 101 13.8999C101.7 13.4999 102.6 13.2999 103.5 13.2999C104.4 13.2999 105.2 13.4999 106 13.8999C106.7 14.2999 107.3 14.8999 107.7 15.6999C108.1 16.4999 108.3 17.3999 108.3 18.3999V19.1999H101.2C101.2 19.7999 101.5 20.2999 101.9 20.6999C102.3 21.0999 102.9 21.2999 103.6 21.2999C104.1 21.2999 104.5 21.1999 104.9 20.9999C105.3 20.7999 105.8 20.3999 106.2 19.8999L107.8 21.4999C107.2 22.0999 106.6 22.5999 105.9 22.8999C105.2 23.1999 104.4 23.3999 103.5 23.3999C102.5 23.3999 101.7 23.1999 100.9 22.7999C100.1 22.3999 99.5996 21.7999 99.1996 20.9999C98.8996 20.0999 98.6996 19.1999 98.6996 18.2999ZM105.7 17.1999C105.7 16.6999 105.4 16.1999 105 15.8999C104.6 15.5999 104.1 15.3999 103.5 15.3999C102.9 15.3999 102.4 15.5999 102 15.8999C101.6 16.1999 101.4 16.6999 101.3 17.1999H105.7ZM111.3 19.7999V13.4999H113.9V19.1999C113.9 20.3999 114.5 20.8999 115.6 20.8999C116.1 20.8999 116.5 20.6999 116.8 20.3999C117.1 20.0999 117.3 19.6999 117.3 19.0999V13.3999H119.9V22.9999H117.4V22.1999C117.1 22.4999 116.8 22.7999 116.3 22.9999C115.8 23.1999 115.4 23.2999 114.9 23.2999C113.8 23.2999 112.9 22.9999 112.3 22.3999C111.6 21.6999 111.3 20.8999 111.3 19.7999ZM122.5 13.4999H124.8V14.2999C125 13.9999 125.3 13.6999 125.6 13.5999C125.9 13.3999 126.3 13.2999 126.7 13.2999C127.5 13.2999 128.1 13.6999 128.5 14.3999C129 13.6999 129.6 13.2999 130.5 13.2999C131.2 13.2999 131.8 13.4999 132.2 13.9999C132.6 14.4999 132.8 15.0999 132.8 15.8999V22.9999H130.4V16.3999C130.4 16.0999 130.3 15.8999 130.2 15.7999C130.1 15.6999 129.9 15.5999 129.6 15.5999C129.3 15.5999 129.1 15.6999 129 15.7999C128.9 15.9999 128.8 16.1999 128.8 16.4999V22.9999H126.6V16.3999C126.6 16.0999 126.5 15.8999 126.4 15.7999C126.3 15.6999 126.1 15.5999 125.8 15.5999C125.5 15.5999 125.3 15.6999 125.2 15.7999C125 15.9999 125 16.1999 125 16.4999V22.9999H122.6V13.4999H122.5ZM41.3996 35.7999H38.8996V33.4999H41.3996V32.0999C41.3996 31.2999 41.6996 30.5999 42.1996 30.0999C42.7996 29.5999 43.4996 29.3999 44.4996 29.3999H47.2996V31.6999H44.7996C44.4996 31.6999 44.3996 31.7999 44.1996 31.8999C44.0996 31.9999 43.9996 32.1999 43.9996 32.4999V33.5999H47.7996V35.8999H43.9996V41.9999H41.2996V35.7999H41.3996ZM50.5996 37.1999C50.5996 36.1999 50.7996 35.2999 51.1996 34.5999C51.5996 33.7999 52.1996 33.1999 52.8996 32.7999C53.5996 32.3999 54.4996 32.1999 55.3996 32.1999C56.3996 32.1999 57.1996 32.3999 57.8996 32.7999C58.5996 33.1999 59.1996 33.7999 59.5996 34.5999C59.9996 35.3999 60.1996 36.1999 60.1996 37.1999C60.1996 38.1999 59.9996 39.0999 59.5996 39.7999C59.1996 40.5999 58.5996 41.1999 57.8996 41.5999C57.1996 41.9999 56.2996 42.1999 55.3996 42.1999C54.4996 42.1999 53.5996 41.9999 52.8996 41.5999C52.1996 41.1999 51.5996 40.5999 51.1996 39.7999C50.7996 39.0999 50.5996 38.1999 50.5996 37.1999ZM57.7996 37.1999C57.7996 36.3999 57.5996 35.6999 57.1996 35.1999C56.7996 34.6999 56.1996 34.4999 55.4996 34.4999C54.7996 34.4999 54.1996 34.6999 53.7996 35.1999C53.3996 35.6999 53.1996 36.2999 53.1996 37.1999C53.1996 38.0999 53.3996 38.6999 53.7996 39.1999C54.1996 39.6999 54.7996 39.8999 55.4996 39.8999C56.1996 39.8999 56.7996 39.6999 57.1996 39.1999C57.5996 38.6999 57.7996 38.0999 57.7996 37.1999ZM63.1996 38.7999V32.4999H65.7996V38.1999C65.7996 39.3999 66.3996 39.8999 67.4996 39.8999C67.9996 39.8999 68.3996 39.6999 68.6996 39.3999C68.9996 39.0999 69.1996 38.6999 69.1996 38.0999V32.3999H71.7996V41.9999H69.2996V41.1999C68.9996 41.4999 68.6996 41.7999 68.1996 41.9999C67.6996 42.1999 67.2996 42.2999 66.7996 42.2999C65.6996 42.2999 64.7996 41.9999 64.1996 41.3999C63.4996 40.6999 63.1996 39.8999 63.1996 38.7999ZM75.0996 32.4999H77.6996V33.3999C78.0996 32.9999 78.4996 32.6999 78.8996 32.4999C79.2996 32.2999 79.7996 32.1999 80.3996 32.1999C80.9996 32.1999 81.5996 32.2999 82.0996 32.5999C82.5996 32.8999 83.0996 33.2999 83.3996 33.9999C83.6996 34.6999 83.8996 35.3999 83.8996 36.2999V41.9999H81.2996V36.5999C81.2996 35.9999 81.0996 35.4999 80.7996 35.0999C80.4996 34.6999 79.9996 34.4999 79.3996 34.4999C78.7996 34.4999 78.2996 34.6999 77.9996 34.9999C77.6996 35.3999 77.4996 35.7999 77.4996 36.4999V41.9999H74.8996V32.4999H75.0996ZM86.4996 37.1999C86.4996 36.1999 86.6996 35.3999 87.0996 34.5999C87.4996 33.7999 87.9996 33.1999 88.6996 32.7999C89.3996 32.3999 90.0996 32.1999 90.9996 32.1999C92.0996 32.1999 92.8996 32.4999 93.4996 33.0999V28.8999H95.9996V41.9999H93.5996V41.1999C92.8996 41.8999 91.9996 42.2999 90.7996 42.2999C89.9996 42.2999 89.1996 42.0999 88.4996 41.6999C87.7996 41.2999 87.2996 40.6999 86.8996 39.8999C86.6996 39.0999 86.4996 38.1999 86.4996 37.1999ZM93.4996 37.8999V36.6999C93.4996 36.2999 93.3996 35.9999 93.1996 35.6999C92.9996 35.3999 92.6996 35.0999 92.3996 34.8999C92.0996 34.6999 91.6996 34.5999 91.2996 34.5999C90.5996 34.5999 90.0996 34.7999 89.6996 35.2999C89.2996 35.7999 89.0996 36.3999 89.0996 37.2999C89.0996 38.0999 89.2996 38.7999 89.6996 39.1999C90.0996 39.6999 90.5996 39.8999 91.2996 39.8999C91.9996 39.8999 92.4996 39.6999 92.8996 39.2999C93.1996 38.8999 93.4996 38.3999 93.4996 37.8999ZM99.2996 39.4999C99.2996 38.5999 99.5996 37.8999 100.2 37.3999C100.8 36.8999 101.8 36.4999 103.2 36.2999C103.9 36.1999 104.5 35.9999 104.7 35.8999C105 35.6999 105.1 35.4999 105.1 35.2999C105.1 34.9999 105 34.7999 104.7 34.5999C104.4 34.3999 104.1 34.2999 103.6 34.2999C103.1 34.2999 102.6 34.4999 102.3 34.7999C102 35.0999 101.7 35.4999 101.6 35.9999L99.1996 35.4999C99.2996 34.8999 99.5996 34.2999 99.9996 33.7999C100.4 33.2999 100.9 32.8999 101.6 32.5999C102.2 32.2999 102.9 32.1999 103.7 32.1999C104.9 32.1999 105.9 32.4999 106.6 33.1999C107.3 33.8999 107.7 34.7999 107.7 35.8999V41.8999H105.4V40.9999C105.1 41.3999 104.7 41.6999 104.2 41.9999C103.7 42.2999 103.1 42.3999 102.5 42.3999C101.9 42.3999 101.3 42.2999 100.8 41.9999C100.3 41.7999 99.8996 41.3999 99.5996 40.9999C99.3996 40.4999 99.2996 39.9999 99.2996 39.4999ZM105.3 38.4999V37.3999C105.2 37.5999 105 37.6999 104.8 37.7999C104.5 37.8999 104.2 37.9999 103.6 38.0999C102.9 38.1999 102.5 38.3999 102.2 38.5999C101.9 38.7999 101.8 38.9999 101.8 39.2999C101.8 39.5999 101.9 39.7999 102.1 39.8999C102.3 39.9999 102.6 40.0999 103.1 40.0999C103.5 40.0999 103.9 39.9999 104.2 39.8999C104.5 39.7999 104.8 39.4999 105 39.2999C105.2 39.0999 105.3 38.7999 105.3 38.4999ZM116.2 34.7999V38.5999C116.2 38.8999 116.3 39.1999 116.4 39.2999C116.6 39.3999 116.8 39.4999 117.1 39.4999H119.3V41.9999H116.9C115.8 41.9999 115 41.7999 114.5 41.2999C113.9 40.7999 113.6 40.0999 113.6 39.1999V34.7999H111.3V32.4999H113.6V29.9999H116.2V32.3999H119.9V34.6999H116.2V34.7999ZM132.3 39.6999V41.9999H122.9V39.5999H126.3V34.7999H123.1V32.3999H128.9V39.5999H132.3V39.6999ZM126.3 28.3999H128.9V30.9999H126.3V28.3999ZM134.8 37.1999C134.8 36.1999 135 35.2999 135.4 34.5999C135.8 33.7999 136.4 33.1999 137.1 32.7999C137.8 32.3999 138.7 32.1999 139.6 32.1999C140.6 32.1999 141.4 32.3999 142.1 32.7999C142.8 33.1999 143.4 33.7999 143.8 34.5999C144.2 35.3999 144.4 36.1999 144.4 37.1999C144.4 38.1999 144.2 39.0999 143.8 39.7999C143.4 40.5999 142.8 41.1999 142.1 41.5999C141.4 41.9999 140.5 42.1999 139.6 42.1999C138.7 42.1999 137.8 41.9999 137.1 41.5999C136.4 41.1999 135.8 40.5999 135.4 39.7999C135 39.0999 134.8 38.1999 134.8 37.1999ZM141.9 37.1999C141.9 36.3999 141.7 35.6999 141.3 35.1999C140.9 34.6999 140.3 34.4999 139.6 34.4999C138.9 34.4999 138.3 34.6999 137.9 35.1999C137.5 35.6999 137.3 36.2999 137.3 37.1999C137.3 38.0999 137.5 38.6999 137.9 39.1999C138.3 39.6999 138.9 39.8999 139.6 39.8999C140.3 39.8999 140.9 39.6999 141.3 39.1999C141.7 38.6999 141.9 38.0999 141.9 37.1999ZM147.2 32.4999H149.8V33.3999C150.2 32.9999 150.6 32.6999 151 32.4999C151.4 32.2999 151.9 32.1999 152.5 32.1999C153.1 32.1999 153.7 32.2999 154.2 32.5999C154.7 32.8999 155.2 33.2999 155.5 33.9999C155.8 34.6999 156 35.3999 156 36.2999V41.9999H153.4V36.5999C153.4 35.9999 153.2 35.4999 152.9 35.0999C152.6 34.6999 152.1 34.4999 151.5 34.4999C150.9 34.4999 150.4 34.6999 150.1 34.9999C149.8 35.3999 149.6 35.7999 149.6 36.4999V41.9999H147V32.4999H147.2Z" fill="white"/>
<path d="M14.6 37.6V49.5L0 28.3L14.6 37.6Z" fill="#1AACD4"/>
<path d="M29.0996 28.3L14.5996 49.5V37.6L29.0996 28.3Z" fill="#6B7BBB"/>
<path d="M29.0996 25.3L14.5996 17V34.6L29.0996 25.3Z" fill="#A666A7"/>
<path d="M29.0996 25.3L14.5996 0V17L29.0996 25.3Z" fill="#F18B78"/>
<path d="M14.6 0V17L0 25.3L14.6 0Z" fill="#FFEC5D"/>
<path d="M14.6 17V34.6L0 25.3L14.6 17Z" fill="#59B56E"/>
</g>
<defs>
<clipPath id="clip0_449_5510">
<rect width="156.2" height="49.5" fill="white"/>
</clipPath>
</defs>
</svg>
