<svg width="158" height="68" viewBox="0 0 158 68" fill="none" xmlns="http://www.w3.org/2000/svg">
<path d="M19.7094 50.5024V66.4857L0.0673828 38.0112L19.7094 50.5024Z" fill="url(#paint0_linear_528_8265)"/>
<path d="M39.2162 38.0112L19.709 66.4857V50.5024L39.2162 38.0112Z" fill="url(#paint1_linear_528_8265)"/>
<path d="M39.2162 33.9814L19.709 22.8335V46.4725L39.2162 33.9814Z" fill="url(#paint2_linear_528_8265)"/>
<path d="M39.2162 33.9816L19.709 0V22.8337L39.2162 33.9816Z" fill="url(#paint3_linear_528_8265)"/>
<path d="M19.7094 0V22.8337L0.0673828 33.9816L19.7094 0Z" fill="url(#paint4_linear_528_8265)"/>
<path d="M19.7094 22.8335V46.4725L0.0673828 33.9814L19.7094 22.8335Z" fill="url(#paint5_linear_528_8265)"/>
<path d="M48.9111 12.1198C48.9111 11.0063 49.1396 10.0198 49.5964 9.16081C50.0533 8.30221 50.6916 7.63815 51.5117 7.16818C52.3313 6.69864 53.2791 6.46387 54.3545 6.46387C55.3892 6.46387 56.3134 6.70535 57.1268 7.18873C57.9397 7.67169 58.5751 8.34959 59.0319 9.2216C59.4888 10.094 59.7172 11.0868 59.7172 12.2007V13.0459H51.7939C51.8342 13.7171 52.0895 14.2604 52.5602 14.6763C53.0305 15.0926 53.6486 15.3001 54.415 15.3001C54.9525 15.3001 55.4496 15.1827 55.9069 14.9479C56.3638 14.7132 56.861 14.3073 57.3989 13.7305L59.1932 15.5621C58.5747 16.2467 57.8625 16.78 57.0562 17.1623C56.25 17.5447 55.369 17.7359 54.415 17.7359C53.3261 17.7359 52.3654 17.5007 51.5318 17.0311C50.6983 16.5616 50.0533 15.9009 49.5964 15.0486C49.1396 14.1967 48.9111 13.2203 48.9111 12.1198V12.1198ZM56.8144 10.9522C56.7606 10.3619 56.502 9.87225 56.0379 9.48278C55.5744 9.09373 55.0129 8.89921 54.3545 8.89921C53.6692 8.89921 53.1044 9.08702 52.661 9.46266C52.2175 9.83829 51.9421 10.3351 51.8346 10.9522H56.8144V10.9522Z" fill="white"/>
<path d="M61.5518 12.0996C61.5518 10.9995 61.7802 10.0231 62.2371 9.1708C62.6939 8.31891 63.336 7.65443 64.1624 7.17817C64.9888 6.70192 65.9332 6.46338 66.9951 6.46338C68.2452 6.46338 69.3202 6.80548 70.2209 7.49009C71.1212 8.17428 71.733 9.09366 72.0555 10.2478L69.2736 11.0125C69.1392 10.4222 68.8835 9.95561 68.5072 9.61351C68.131 9.27142 67.6267 9.10037 66.9951 9.10037C66.1889 9.10037 65.5603 9.36533 65.1101 9.89524C64.6596 10.4256 64.4349 11.1601 64.4349 12.0992C64.4349 13.0382 64.66 13.7732 65.1101 14.3031C65.5603 14.8334 66.1889 15.098 66.9951 15.098C67.6267 15.098 68.1306 14.9269 68.5072 14.5848C68.8835 14.2427 69.1388 13.7765 69.2736 13.1858L72.0555 13.9505C71.733 15.1047 71.1212 16.0236 70.2209 16.7082C69.3202 17.3924 68.2452 17.7349 66.9951 17.7349C65.9332 17.7349 64.9892 17.4964 64.1624 17.0201C63.3356 16.5439 62.6935 15.8798 62.2371 15.0275C61.7802 14.1756 61.5518 13.1992 61.5518 12.0987V12.0996Z" fill="white"/>
<path d="M73.7896 12.0996C73.7896 10.9995 74.018 10.0231 74.4748 9.1708C74.9317 8.31892 75.5738 7.65443 76.4002 7.17818C77.2266 6.70192 78.171 6.46338 79.2329 6.46338C80.3079 6.46338 81.259 6.70192 82.0854 7.17818C82.9122 7.65443 83.5538 8.31892 84.0107 9.1708C84.4676 10.0231 84.6964 10.9995 84.6964 12.0996C84.6964 13.1997 84.4676 14.1765 84.0107 15.0284C83.5538 15.8807 82.9122 16.5447 82.0854 17.021C81.2586 17.4972 80.3079 17.7358 79.2329 17.7358C78.171 17.7358 77.227 17.4972 76.4002 17.021C75.5734 16.5447 74.9313 15.8807 74.4748 15.0284C74.018 14.1765 73.7896 13.2001 73.7896 12.0996ZM81.8133 12.0996C81.8133 11.1605 81.5882 10.4256 81.1381 9.89566C80.6879 9.36575 80.0526 9.10079 79.2329 9.10079C78.4267 9.10079 77.7981 9.36575 77.3479 9.89566C76.8973 10.426 76.6727 11.1605 76.6727 12.0996C76.6727 13.0387 76.8978 13.7736 77.3479 14.3035C77.7981 14.8338 78.4267 15.0984 79.2329 15.0984C80.0392 15.0984 80.6707 14.8301 81.128 14.2934C81.5849 13.7568 81.8133 13.0253 81.8133 12.0996V12.0996Z" fill="white"/>
<path d="M86.3086 13.9112L88.9297 13.3075C89.1174 13.9787 89.4571 14.4918 89.9476 14.8473C90.4385 15.2028 91.0595 15.3806 91.8124 15.3806C92.4847 15.3806 92.9983 15.3001 93.3548 15.1391C93.7109 14.9781 93.8889 14.7501 93.8889 14.4545C93.8889 14.1195 93.7075 13.8609 93.3447 13.6797C92.9819 13.4986 92.3163 13.3142 91.3484 13.1264C89.7628 12.8312 88.6299 12.4216 87.9513 11.8984C87.2727 11.3748 86.933 10.6575 86.933 9.7448C86.933 9.10044 87.1211 8.5307 87.4978 8.0339C87.874 7.53753 88.4015 7.15183 89.0805 6.8764C89.759 6.60138 90.5355 6.46387 91.4093 6.46387C92.6057 6.46387 93.6672 6.75943 94.5948 7.34929C95.522 7.94 96.1468 8.72522 96.4697 9.70456L93.9901 10.5095C93.7886 9.97287 93.4623 9.55699 93.0121 9.26143C92.562 8.96628 92.0211 8.81829 91.3896 8.81829C90.8651 8.81829 90.4485 8.90256 90.1395 9.07025C89.83 9.23795 89.6759 9.46979 89.6759 9.76451C89.6759 10.0332 89.8472 10.2512 90.1899 10.4189C90.5325 10.5866 91.1544 10.751 92.0547 10.912C93.6945 11.2205 94.8673 11.6465 95.5728 12.1898C96.2787 12.7331 96.6314 13.4882 96.6314 14.4541C96.6314 15.1119 96.4328 15.6887 96.0368 16.1851C95.6404 16.6819 95.0756 17.0642 94.3433 17.3321C93.6105 17.6004 92.7673 17.7346 91.8133 17.7346C90.3616 17.7346 89.1552 17.3992 88.1944 16.7284C87.2332 16.0572 86.6051 15.1181 86.3094 13.9103L86.3086 13.9112Z" fill="white"/>
<path d="M102.276 17.0109L98.022 6.76562H101.046L103.707 13.5891H103.748L106.389 6.76562H109.413L103.203 21.9625H100.2L102.276 17.0109V17.0109Z" fill="white"/>
<path d="M109.977 13.9112L112.598 13.3075C112.786 13.9787 113.126 14.4918 113.616 14.8473C114.107 15.2028 114.728 15.3806 115.481 15.3806C116.153 15.3806 116.667 15.3001 117.023 15.1391C117.379 14.9781 117.557 14.7501 117.557 14.4545C117.557 14.1195 117.376 13.8609 117.013 13.6797C116.65 13.4986 115.985 13.3142 115.017 13.1264C113.431 12.8312 112.298 12.4216 111.62 11.8984C110.941 11.3748 110.601 10.6575 110.601 9.7448C110.601 9.10044 110.79 8.5307 111.166 8.0339C111.542 7.53753 112.07 7.15183 112.749 6.8764C113.427 6.60138 114.204 6.46387 115.078 6.46387C116.274 6.46387 117.336 6.75943 118.263 7.34929C119.19 7.94 119.815 8.72522 120.138 9.70456L117.659 10.5095C117.457 9.97287 117.131 9.55699 116.681 9.26143C116.23 8.96628 115.69 8.81829 115.058 8.81829C114.534 8.81829 114.117 8.90256 113.808 9.07025C113.498 9.23795 113.344 9.46979 113.344 9.76451C113.344 10.0332 113.516 10.2512 113.858 10.4189C114.201 10.5866 114.823 10.751 115.723 10.912C117.363 11.2205 118.536 11.6465 119.241 12.1898C119.947 12.7331 120.3 13.4882 120.3 14.4541C120.3 15.1119 120.101 15.6887 119.705 16.1851C119.309 16.6819 118.744 17.0642 118.012 17.3321C117.279 17.6004 116.436 17.7346 115.482 17.7346C114.03 17.7346 112.824 17.3992 111.863 16.7284C110.902 16.0572 110.274 15.1181 109.978 13.9103L109.977 13.9112Z" fill="white"/>
<path d="M127.235 9.34203V13.6295C127.235 13.9918 127.319 14.2534 127.487 14.4148C127.655 14.5758 127.934 14.6563 128.324 14.6563H130.764V17.4337H128.062C126.879 17.4337 125.965 17.1553 125.32 16.5982C124.675 16.0414 124.352 15.2465 124.352 14.2131V9.34203H121.731V6.76541H124.352V4.04834H127.235V6.76541H131.429V9.34203H127.235V9.34203Z" fill="white"/>
<path d="M133.364 12.1198C133.364 11.0063 133.592 10.0198 134.05 9.16081C134.506 8.30221 135.145 7.63815 135.965 7.16818C136.784 6.69864 137.732 6.46387 138.808 6.46387C139.843 6.46387 140.766 6.70535 141.58 7.18873C142.393 7.6721 143.028 8.34959 143.485 9.2216C143.942 10.094 144.171 11.0868 144.171 12.2007V13.0459H136.248C136.288 13.7171 136.543 14.2604 137.014 14.6763C137.484 15.0926 138.103 15.3001 138.868 15.3001C139.406 15.3001 139.903 15.1827 140.36 14.9479C140.817 14.7132 141.314 14.3073 141.852 13.7305L143.647 15.5621C143.028 16.2467 142.316 16.78 141.509 17.1623C140.703 17.5447 139.822 17.7359 138.868 17.7359C137.78 17.7359 136.818 17.5007 135.985 17.0311C135.152 16.5616 134.507 15.9009 134.05 15.0486C133.593 14.1967 133.365 13.2203 133.365 12.1198H133.364ZM141.267 10.9522C141.213 10.3619 140.954 9.87225 140.491 9.48278C140.027 9.09373 139.466 8.89921 138.807 8.89921C138.121 8.89921 137.557 9.08702 137.114 9.46266C136.67 9.83829 136.394 10.3351 136.287 10.9522H141.266H141.267Z" fill="white"/>
<path d="M146.105 6.76562H148.645V7.69129H148.686C148.914 7.32907 149.206 7.0507 149.563 6.85575C149.919 6.66165 150.312 6.56396 150.742 6.56396C151.589 6.56396 152.268 6.95972 152.779 7.75166H152.819C153.357 6.96014 154.096 6.56396 155.037 6.56396C155.816 6.56396 156.448 6.83898 156.932 7.38902C157.416 7.93948 157.658 8.65721 157.658 9.54263V17.4331H154.997V10.0466C154.997 9.738 154.916 9.50323 154.755 9.34224C154.594 9.18125 154.365 9.10076 154.069 9.10076C153.787 9.10076 153.562 9.19131 153.394 9.37242C153.226 9.55353 153.142 9.79879 153.142 10.1069V17.4339H150.622V10.0466C150.622 9.75141 150.544 9.52041 150.39 9.3523C150.235 9.18461 150.016 9.10076 149.734 9.10076C149.439 9.10076 149.203 9.19131 149.028 9.37242C148.854 9.55353 148.766 9.79879 148.766 10.1069V17.4339H146.105V6.76562H146.105Z" fill="white"/>
<path d="M49.1933 35.7115L51.814 35.1078C52.0021 35.7794 52.3414 36.2921 52.8323 36.6476C53.3227 37.0035 53.9442 37.1809 54.6971 37.1809C55.369 37.1809 55.8834 37.1008 56.2395 36.9394C56.5956 36.7784 56.7736 36.5504 56.7736 36.2552C56.7736 35.9198 56.5922 35.6612 56.2294 35.48C55.8666 35.2985 55.2014 35.1145 54.2335 34.9266C52.6475 34.6315 51.515 34.2219 50.8364 33.6987C50.1578 33.1755 49.8185 32.4578 49.8185 31.5451C49.8185 30.9007 50.0067 30.331 50.3829 29.8342C50.7592 29.3378 51.2866 28.9521 51.9656 28.6767C52.6442 28.4017 53.4202 28.2642 54.294 28.2642C55.4899 28.2642 56.5519 28.5597 57.4795 29.1496C58.4067 29.7403 59.0319 30.5255 59.3544 31.5049L56.8748 32.3102C56.6732 31.7736 56.347 31.3573 55.8968 31.0621C55.4463 30.767 54.9054 30.619 54.2739 30.619C53.7498 30.619 53.3328 30.7033 53.0238 30.871C52.7143 31.0387 52.5602 31.2705 52.5602 31.5652C52.5602 31.834 52.7315 32.052 53.0742 32.2192C53.4168 32.3869 54.0383 32.5513 54.939 32.7127C56.5788 33.0212 57.7516 33.4472 58.4571 33.9909C59.1625 34.5342 59.5157 35.2893 59.5157 36.2552C59.5157 36.9126 59.317 37.4899 58.9206 37.9862C58.5242 38.483 57.9595 38.8654 57.2271 39.1333C56.4944 39.4016 55.6512 39.5357 54.6967 39.5357C53.2451 39.5357 52.0386 39.2008 51.0779 38.5296C50.1167 37.8588 49.4885 36.9193 49.1929 35.7115H49.1933Z" fill="white"/>
<path d="M61.3501 35.6108V28.5659H64.2332V34.9467C64.2332 36.2484 64.8782 36.8991 66.1686 36.8991C66.7464 36.8991 67.2071 36.7213 67.5497 36.3658C67.8924 36.0103 68.0637 35.5374 68.0637 34.9467V28.5659H70.9468V39.2338H68.1846V38.2876H68.1443C67.8483 38.6632 67.4418 38.9655 66.9245 39.1935C66.4067 39.4216 65.8659 39.5352 65.3015 39.5352C64.038 39.5352 63.0638 39.1902 62.3785 38.4989C61.6932 37.8075 61.3501 36.845 61.3501 35.6099V35.6108Z" fill="white"/>
<path d="M74.1927 28.5659H76.9549V29.4916H76.9952C77.7881 28.6733 78.7896 28.2637 79.9993 28.2637C80.9395 28.2637 81.7835 28.4989 82.5293 28.968C83.2751 29.438 83.8563 30.0987 84.2728 30.9506C84.6894 31.8029 84.8981 32.7855 84.8981 33.899C84.8981 34.9731 84.6894 35.939 84.2728 36.7976C83.8563 37.6566 83.2713 38.3274 82.5188 38.8108C81.7659 39.2933 80.9126 39.5352 79.9582 39.5352C79.3535 39.5352 78.8093 39.4413 78.3251 39.2535C77.8414 39.0661 77.4383 38.8108 77.1154 38.4888H77.075V43.7624H74.1919V28.5655L74.1927 28.5659ZM82.0149 33.8999C82.0149 32.9876 81.7861 32.2598 81.3292 31.7161C80.8723 31.1727 80.2408 30.9011 79.4341 30.9011C78.7891 30.9011 78.2348 31.1262 77.7708 31.5752C77.3072 32.0251 77.0755 32.5717 77.0755 33.2157V34.6042C77.0755 35.0071 77.183 35.3823 77.3979 35.7311C77.6129 36.0803 77.9119 36.362 78.2949 36.5767C78.6783 36.7918 79.1045 36.8991 79.5752 36.8991C80.3277 36.8991 80.9227 36.6274 81.3594 36.0841C81.7961 35.5403 82.0149 34.813 82.0149 33.8999V33.8999Z" fill="white"/>
<path d="M86.8329 28.5659H89.5951V29.4916H89.6354C90.4286 28.6733 91.4297 28.2637 92.6395 28.2637C93.5797 28.2637 94.4237 28.4989 95.1695 28.968C95.9152 29.438 96.4964 30.0987 96.9129 30.9506C97.3295 31.8029 97.5382 32.7855 97.5382 33.899C97.5382 34.9731 97.3295 35.939 96.9129 36.7976C96.4964 37.6566 95.9114 38.3274 95.159 38.8108C94.4061 39.2933 93.5528 39.5352 92.5983 39.5352C91.9936 39.5352 91.4494 39.4413 90.9653 39.2535C90.4815 39.0661 90.0784 38.8108 89.7555 38.4888H89.7152V43.7624H86.832V28.5655L86.8329 28.5659ZM94.6555 33.8999C94.6555 32.9876 94.4266 32.2598 93.9698 31.7161C93.5129 31.1727 92.8813 30.9011 92.0747 30.9011C91.4297 30.9011 90.8754 31.1262 90.4114 31.5752C89.9478 32.0251 89.716 32.5717 89.716 33.2157V34.6042C89.716 35.0071 89.8235 35.3823 90.0385 35.7311C90.2535 36.0803 90.5529 36.362 90.9359 36.5767C91.3188 36.7918 91.7455 36.8991 92.2162 36.8991C92.9687 36.8991 93.5637 36.6274 94.0004 36.0841C94.4371 35.5403 94.6559 34.813 94.6559 33.8999H94.6555Z" fill="white"/>
<path d="M99.4741 33.8999C99.4741 32.7999 99.7026 31.8239 100.16 30.9716C100.616 30.1197 101.258 29.4552 102.085 28.979C102.912 28.5027 103.856 28.2642 104.917 28.2642C105.993 28.2642 106.944 28.5027 107.77 28.979C108.597 29.4552 109.239 30.1197 109.696 30.9716C110.153 31.8239 110.381 32.7999 110.381 33.8999C110.381 35 110.153 35.9768 109.696 36.8287C109.239 37.681 108.597 38.3451 107.77 38.8213C106.944 39.2976 105.993 39.5357 104.917 39.5357C103.856 39.5357 102.912 39.2976 102.085 38.8213C101.258 38.3451 100.616 37.681 100.16 36.8287C99.7026 35.9768 99.4741 35.0004 99.4741 33.8999ZM107.498 33.8999C107.498 32.9613 107.273 32.2264 106.823 31.696C106.372 31.1661 105.737 30.9012 104.917 30.9012C104.111 30.9012 103.483 31.1661 103.033 31.696C102.582 32.2264 102.358 32.9613 102.358 33.8999C102.358 34.8386 102.582 35.5744 103.033 36.1043C103.483 36.6346 104.111 36.8992 104.917 36.8992C105.724 36.8992 106.356 36.6308 106.813 36.0938C107.27 35.5576 107.498 34.826 107.498 33.8999H107.498Z" fill="white"/>
<path d="M112.599 28.566H115.36V29.5525H115.401C115.858 29.0963 116.332 28.7672 116.822 28.566C117.313 28.3648 117.874 28.2642 118.506 28.2642C119.433 28.2642 120.233 28.5358 120.905 29.0792C121.577 29.6225 122.048 30.3641 122.316 31.3036L119.615 32.1895C119.305 31.317 118.667 30.881 117.699 30.881C116.973 30.881 116.422 31.0923 116.046 31.5149C115.669 31.9375 115.481 32.5181 115.481 33.256V39.2343H112.598V28.5664L112.599 28.566Z" fill="white"/>
<path d="M129.251 31.1424V35.4299C129.251 35.7921 129.334 36.0537 129.503 36.2147C129.671 36.3761 129.95 36.4562 130.34 36.4562H132.779V39.2341H130.078C128.895 39.2341 127.981 38.9557 127.336 38.3989C126.691 37.8422 126.368 37.0469 126.368 36.0139V31.1428H123.747V28.5662H126.368V25.8491H129.251V28.5662H133.444V31.1428H129.251V31.1424Z" fill="white"/>
<path d="M49.3145 50.3662H52.0767V51.2923H52.117C52.9098 50.474 53.9113 50.064 55.121 50.064C56.0617 50.064 56.9053 50.2992 57.651 50.7687C58.3972 51.2387 58.9784 51.8994 59.395 52.7513C59.8115 53.6036 60.0198 54.5863 60.0198 55.6997C60.0198 56.7738 59.8111 57.7397 59.395 58.5983C58.978 59.4574 58.3935 60.1281 57.641 60.6115C56.8881 61.0941 56.0348 61.3359 55.0807 61.3359C54.4761 61.3359 53.9314 61.242 53.4477 61.0542C52.9639 60.8668 52.5608 60.6115 52.2379 60.2895H52.1976V65.5631H49.3145V50.3662V50.3662ZM57.1366 55.7002C57.1366 54.7879 56.9082 54.0601 56.4513 53.5164C55.9945 52.973 55.3625 52.7014 54.5563 52.7014C53.9113 52.7014 53.357 52.9261 52.893 53.3755C52.4294 53.8253 52.1976 54.372 52.1976 55.016V56.4045C52.1976 56.8074 52.3051 57.1826 52.5201 57.5314C52.7351 57.8806 53.0341 58.1623 53.417 58.377C53.8004 58.5921 54.2266 58.6994 54.6973 58.6994C55.4498 58.6994 56.0444 58.4277 56.4816 57.8844C56.9183 57.3406 57.1371 56.6133 57.1371 55.7002H57.1366Z" fill="white"/>
<path d="M62.0356 50.3662H64.7979V51.3527H64.8382C65.295 50.8966 65.7687 50.5679 66.2596 50.3662C66.75 50.165 67.311 50.064 67.943 50.064C68.8702 50.064 69.6701 50.3356 70.342 50.8794C71.0143 51.4227 71.4842 52.1639 71.7533 53.1034L69.0516 53.9893C68.7425 53.1168 68.1043 52.6808 67.1364 52.6808C66.4103 52.6808 65.8594 52.8921 65.4832 53.3151C65.1069 53.7377 64.9188 54.3184 64.9188 55.0558V61.0341H62.0356V50.3662V50.3662Z" fill="white"/>
<path d="M72.9829 55.7002C72.9829 54.6002 73.2113 53.6242 73.6682 52.7719C74.1251 51.92 74.7671 51.2559 75.5935 50.7793C76.4199 50.303 77.3643 50.0645 78.4263 50.0645C79.5013 50.0645 80.4524 50.303 81.2792 50.7793C82.106 51.2559 82.7472 51.92 83.2041 52.7719C83.6609 53.6242 83.8898 54.6002 83.8898 55.7002C83.8898 56.8003 83.6609 57.7771 83.2041 58.629C82.7472 59.4813 82.106 60.1454 81.2792 60.6216C80.4524 61.0979 79.5013 61.336 78.4263 61.336C77.3643 61.336 76.4203 61.0979 75.5935 60.6216C74.7667 60.1454 74.1247 59.4813 73.6682 58.629C73.2113 57.7771 72.9829 56.8007 72.9829 55.7002V55.7002ZM81.0071 55.7002C81.0071 54.7616 80.7816 54.0267 80.3314 53.4963C79.8813 52.9664 79.2464 52.7014 78.4267 52.7014C77.6205 52.7014 76.9918 52.9668 76.5417 53.4963C76.0911 54.0267 75.8665 54.7616 75.8665 55.7002C75.8665 56.6389 76.0915 57.3747 76.5417 57.9046C76.9918 58.4349 77.6205 58.6995 78.4267 58.6995C79.2329 58.6995 79.8649 58.4311 80.3218 57.8941C80.7786 57.3579 81.0075 56.6263 81.0075 55.7002H81.0071Z" fill="white"/>
<path d="M86.4097 63.4091L88.6071 61.7388C89.0102 62.3157 89.4167 62.7215 89.8265 62.9563C90.2368 63.1911 90.744 63.3089 91.3487 63.3089C92.1016 63.3089 92.6996 63.1005 93.143 62.6846C93.5865 62.2688 93.8082 61.6919 93.8082 60.9536V60.1889H93.7679C93.3778 60.5914 92.9646 60.8832 92.5283 61.0647C92.0911 61.2458 91.5633 61.3359 90.9452 61.3359C89.9773 61.3359 89.1207 61.0978 88.3749 60.6216C87.6291 60.1453 87.0509 59.4813 86.6411 58.6289C86.2304 57.7771 86.0259 56.8007 86.0259 55.7002C86.0259 54.6135 86.2375 53.6442 86.6612 52.7915C87.0845 51.9396 87.669 51.2718 88.4152 50.7888C89.1614 50.3059 90.0113 50.064 90.9653 50.064C91.57 50.064 92.0878 50.1516 92.5178 50.326C92.9478 50.5004 93.3446 50.7687 93.7074 51.1309H93.7477V50.3662H96.5301V61.0743C96.5301 62.0134 96.3113 62.846 95.8746 63.5705C95.4374 64.2953 94.8294 64.8584 94.0496 65.2608C93.2703 65.6637 92.3695 65.8645 91.3479 65.8645C89.2512 65.8645 87.6048 65.0462 86.4084 63.4091H86.4097ZM93.6473 56.3844V54.9959C93.6473 54.2982 93.4319 53.7411 93.0024 53.3252C92.5724 52.9097 92.021 52.7014 91.3487 52.7014C90.5958 52.7014 90.0012 52.9701 89.5645 53.5067C89.1278 54.0433 88.9094 54.7745 88.9094 55.7002C88.9094 56.5998 89.1307 57.3243 89.5746 57.8743C90.0184 58.4248 90.6025 58.6998 91.3286 58.6998C91.7321 58.6998 92.1113 58.5958 92.4678 58.3879C92.8239 58.1799 93.1094 57.8982 93.3244 57.5423C93.5394 57.1868 93.6473 56.8007 93.6473 56.3848V56.3844Z" fill="white"/>
<path d="M99.5546 50.3662H102.316V51.3527H102.357C102.814 50.8966 103.288 50.5679 103.778 50.3662C104.269 50.165 104.83 50.064 105.462 50.064C106.389 50.064 107.189 50.3356 107.861 50.8794C108.533 51.4227 109.004 52.1639 109.272 53.1034L106.571 53.9893C106.261 53.1168 105.623 52.6808 104.655 52.6808C103.929 52.6808 103.378 52.8921 103.002 53.3151C102.625 53.7377 102.437 54.3184 102.437 55.0558V61.0341H99.5542V50.3662H99.5546Z" fill="white"/>
<path d="M110.763 58.1762C110.763 57.1831 111.103 56.4117 111.782 55.8616C112.46 55.3116 113.593 54.9091 115.179 54.6538C116.012 54.5201 116.58 54.3687 116.883 54.201C117.185 54.0334 117.336 53.8082 117.336 53.5269C117.336 53.2045 117.188 52.9501 116.892 52.7618C116.597 52.5744 116.194 52.4801 115.683 52.4801C115.105 52.4801 114.604 52.6549 114.181 53.0033C113.757 53.3525 113.486 53.8158 113.365 54.3922L110.683 53.7885C110.817 53.0637 111.12 52.4197 111.59 51.8563C112.06 51.2928 112.652 50.853 113.365 50.5378C114.077 50.2225 114.85 50.0645 115.683 50.0645C117.054 50.0645 118.149 50.4472 118.969 51.2119C119.789 51.9766 120.199 52.9966 120.199 54.2715V61.0346H117.618V59.8469H117.578C117.269 60.3169 116.835 60.6824 116.277 60.944C115.719 61.2056 115.091 61.3364 114.392 61.3364C113.693 61.3364 113.068 61.2023 112.517 60.934C111.966 60.6657 111.536 60.29 111.227 59.8071C110.918 59.3241 110.763 58.7808 110.763 58.1767V58.1762ZM117.457 57.069V55.8612H117.416C117.296 56.062 117.094 56.2234 116.812 56.3442C116.529 56.4649 116.086 56.5857 115.481 56.7064C114.728 56.8674 114.211 57.0384 113.929 57.2195C113.646 57.4011 113.505 57.6522 113.505 57.9746C113.505 58.2831 113.629 58.5179 113.878 58.6793C114.127 58.8403 114.486 58.9208 114.957 58.9208C115.387 58.9208 115.797 58.837 116.187 58.6688C116.577 58.5016 116.885 58.2735 117.114 57.9847C117.343 57.6962 117.457 57.3906 117.457 57.0686V57.069Z" fill="white"/>
<path d="M122.84 50.3663H125.38V51.2924H125.421C125.649 50.9301 125.941 50.6518 126.297 50.4568C126.654 50.2623 127.047 50.165 127.477 50.165C128.324 50.165 129.003 50.5608 129.514 51.3527H129.554C130.091 50.5608 130.831 50.165 131.771 50.165C132.551 50.165 133.183 50.4401 133.667 50.9905C134.151 51.541 134.393 52.2583 134.393 53.1445V61.0346H131.732V53.6476C131.732 53.3391 131.651 53.1039 131.49 52.9429C131.328 52.7819 131.1 52.7014 130.804 52.7014C130.522 52.7014 130.297 52.792 130.129 52.9731C129.961 53.1542 129.877 53.3994 129.877 53.7076V61.0346H127.356V53.6476C127.356 53.3525 127.279 53.1211 127.125 52.9534C126.97 52.7857 126.751 52.7014 126.469 52.7014C126.174 52.7014 125.938 52.792 125.763 52.9731C125.589 53.1542 125.501 53.3994 125.501 53.7076V61.0346H122.84V50.3667L122.84 50.3663Z" fill="white"/>
<defs>
<linearGradient id="paint0_linear_528_8265" x1="-0.36975" y1="38.4477" x2="23.6725" y2="62.5289" gradientUnits="userSpaceOnUse">
<stop stop-color="#F47D51"/>
<stop offset="0.96" stop-color="#DF72AC"/>
</linearGradient>
<linearGradient id="paint1_linear_528_8265" x1="23.6537" y1="46.4492" x2="31.7105" y2="54.5191" gradientUnits="userSpaceOnUse">
<stop stop-color="#F15D4C"/>
<stop offset="1" stop-color="#C36CA1"/>
</linearGradient>
<linearGradient id="paint2_linear_528_8265" x1="15.8533" y1="26.6402" x2="29.5636" y2="40.3726" gradientUnits="userSpaceOnUse">
<stop stop-color="#B46947"/>
<stop offset="0.896" stop-color="#AE5262"/>
</linearGradient>
<linearGradient id="paint3_linear_528_8265" x1="29.4624" y1="0" x2="29.4624" y2="33.9816" gradientUnits="userSpaceOnUse">
<stop stop-color="#FFD663"/>
<stop offset="1" stop-color="#F26C7D"/>
</linearGradient>
<linearGradient id="paint4_linear_528_8265" x1="6.28969" y1="13.3979" x2="17.7063" y2="24.8331" gradientUnits="userSpaceOnUse">
<stop stop-color="#FFF171"/>
<stop offset="1" stop-color="#FAB382"/>
</linearGradient>
<linearGradient id="paint5_linear_528_8265" x1="7.76948" y1="26.2922" x2="23.7775" y2="42.3262" gradientUnits="userSpaceOnUse">
<stop stop-color="#D48A3D"/>
<stop offset="0.795" stop-color="#DB474E"/>
</linearGradient>
</defs>
</svg>
