<svg width="170" height="257" viewBox="0 0 170 257" fill="none" xmlns="http://www.w3.org/2000/svg" class="logo_eth">
<path fill-rule="evenodd" clip-rule="evenodd" d="M167.769 144.664L84.3926 255.243V193.16L167.769 144.664Z" stroke="white" stroke-width="2" stroke-miterlimit="7" stroke-linecap="round" stroke-linejoin="round"/>
<path fill-rule="evenodd" clip-rule="evenodd" d="M1.01601 144.664L84.3926 255.243V193.16L1.01601 144.664Z" stroke="white" stroke-width="2" stroke-miterlimit="7" stroke-linecap="round" stroke-linejoin="round"/>
<path fill-rule="evenodd" clip-rule="evenodd" d="M1.00031 131.848L84.3926 94.7688V179.296L1.00031 131.848Z" stroke="white" stroke-width="2" stroke-miterlimit="7" stroke-linecap="round" stroke-linejoin="round"/>
<path fill-rule="evenodd" clip-rule="evenodd" d="M167.785 131.848L84.3926 94.7688V179.296L167.785 131.848Z" stroke="white" stroke-width="2" stroke-miterlimit="7" stroke-linecap="round" stroke-linejoin="round"/>
<path fill-rule="evenodd" clip-rule="evenodd" d="M1.01601 131.845L84.3926 1V94.7669L1.01601 131.845Z" stroke="white" stroke-width="2" stroke-miterlimit="7" stroke-linecap="round" stroke-linejoin="round"/>
<path fill-rule="evenodd" clip-rule="evenodd" d="M167.769 131.845L84.3926 1V94.7669L167.769 131.845Z" stroke="white" stroke-width="2" stroke-miterlimit="7" stroke-linecap="round" stroke-linejoin="round"/>
<mask id="mask0_124_1391" style="mask-type:alpha" maskUnits="userSpaceOnUse" x="0" y="0" width="86" height="133">
<path fill-rule="evenodd" clip-rule="evenodd" d="M1.00038 131.845L84.377 1V94.7669L1.00038 131.845Z" fill="white" stroke="#302782" stroke-width="2" stroke-miterlimit="7" stroke-linecap="round" stroke-linejoin="round"/>
</mask>
<g mask="url(#mask0_124_1391)">
<path d="M106.912 12.5813H1" stroke="white" stroke-width="2"/>
<path d="M106.912 22.6682H1" stroke="white" stroke-width="2"/>
<path d="M106.912 32.7551H1" stroke="white" stroke-width="2"/>
<path d="M106.912 42.842H1" stroke="white" stroke-width="2"/>
<path d="M106.912 52.9292H1" stroke="white" stroke-width="2"/>
<path d="M106.912 63.0156H1" stroke="white" stroke-width="2"/>
<path d="M106.912 73.1025H1" stroke="white" stroke-width="2"/>
<path d="M106.912 83.1897H1" stroke="white" stroke-width="2"/>
<path d="M106.912 93.2766H1" stroke="white" stroke-width="2"/>
<path d="M106.912 103.364H1" stroke="white" stroke-width="2"/>
<path d="M106.912 123.537H1" stroke="white" stroke-width="2"/>
<path d="M106.912 113.45H1" stroke="white" stroke-width="2"/>
</g>
<mask id="mask1_124_1391" style="mask-type:alpha" maskUnits="userSpaceOnUse" x="83" y="93" width="87" height="88">
<path fill-rule="evenodd" clip-rule="evenodd" d="M168.114 131.887L84.7217 94.8083V179.336L168.114 131.887Z" fill="white" stroke="#302782" stroke-width="2" stroke-miterlimit="7" stroke-linecap="round" stroke-linejoin="round"/>
</mask>
<g mask="url(#mask1_124_1391)">
<path d="M168.176 94.0186H62.2637" stroke="white" stroke-width="2"/>
<path d="M168.176 104.105H62.2637" stroke="white" stroke-width="2"/>
<path d="M168.176 114.193H62.2637" stroke="white" stroke-width="2"/>
<path d="M168.176 124.279H62.2637" stroke="white" stroke-width="2"/>
<path d="M168.176 134.366H62.2637" stroke="white" stroke-width="2"/>
<path d="M168.176 144.453H62.2637" stroke="white" stroke-width="2"/>
<path d="M168.176 154.54H62.2637" stroke="white" stroke-width="2"/>
<path d="M168.176 164.627H62.2637" stroke="white" stroke-width="2"/>
<path d="M168.176 174.714H62.2637" stroke="white" stroke-width="2"/>
</g>
<mask id="mask2_124_1391" style="mask-type:alpha" maskUnits="userSpaceOnUse" x="82" y="0" width="87" height="133">
<path fill-rule="evenodd" clip-rule="evenodd" d="M167.089 131.845L83.7129 1V94.7669L167.089 131.845Z" fill="white" stroke="#302782" stroke-width="2" stroke-miterlimit="7" stroke-linecap="round" stroke-linejoin="round"/>
</mask>
<g mask="url(#mask2_124_1391)">
<path d="M164.571 131.185L164.571 1" stroke="white" stroke-width="2"/>
<path d="M154.485 131.185L154.485 1" stroke="white" stroke-width="2"/>
<path d="M144.398 131.185L144.398 1" stroke="white" stroke-width="2"/>
<path d="M134.312 131.185L134.312 1" stroke="white" stroke-width="2"/>
<path d="M124.225 131.185L124.225 1" stroke="white" stroke-width="2"/>
<path d="M114.138 131.185L114.138 1" stroke="white" stroke-width="2"/>
<path d="M104.05 131.185L104.05 1" stroke="white" stroke-width="2"/>
<path d="M93.9639 131.185L93.9639 1" stroke="white" stroke-width="2"/>
<path d="M83.8769 131.185L83.877 1" stroke="white" stroke-width="2"/>
</g>
<mask id="mask3_124_1391" style="mask-type:alpha" maskUnits="userSpaceOnUse" x="0" y="143" width="86" height="113">
<path fill-rule="evenodd" clip-rule="evenodd" d="M1.00038 144.234L84.377 254.813V192.731L1.00038 144.234Z" fill="white" stroke="#302782" stroke-width="2" stroke-miterlimit="7" stroke-linecap="round" stroke-linejoin="round"/>
</mask>
<g mask="url(#mask3_124_1391)">
<path d="M-23.9996 147.17L100.547 147.17" stroke="white" stroke-width="2"/>
<path d="M-23.9996 157.257L100.547 157.257" stroke="white" stroke-width="2"/>
<path d="M-23.9996 167.344L100.547 167.344" stroke="white" stroke-width="2"/>
<path d="M-23.9996 177.431L100.547 177.431" stroke="white" stroke-width="2"/>
<path d="M-23.9996 187.517L100.547 187.517" stroke="white" stroke-width="2"/>
<path d="M-23.9996 197.604L100.547 197.604" stroke="white" stroke-width="2"/>
<path d="M-23.9996 207.691L100.547 207.691" stroke="white" stroke-width="2"/>
<path d="M-23.9996 217.778L100.547 217.778" stroke="white" stroke-width="2"/>
<path d="M-23.9996 227.865L100.547 227.865" stroke="white" stroke-width="2"/>
<path d="M-23.9996 237.952L100.547 237.952" stroke="white" stroke-width="2"/>
<path d="M-23.9996 248.039L100.547 248.039" stroke="white" stroke-width="2"/>
</g>
<mask id="mask4_124_1391" style="mask-type:alpha" maskUnits="userSpaceOnUse" x="0" y="93" width="86" height="88">
<path fill-rule="evenodd" clip-rule="evenodd" d="M1.00031 131.887L84.3926 94.8083V179.336L1.00031 131.887Z" fill="white" stroke="#302782" stroke-width="2" stroke-miterlimit="7" stroke-linecap="round" stroke-linejoin="round"/>
</mask>
<g mask="url(#mask4_124_1391)">
<path d="M83.7685 177.133L83.7686 46.948" stroke="white" stroke-width="2"/>
<path d="M73.6816 177.133L73.6816 46.948" stroke="white" stroke-width="2"/>
<path d="M63.5947 177.133L63.5947 46.948" stroke="white" stroke-width="2"/>
<path d="M53.5078 177.133L53.5078 46.948" stroke="white" stroke-width="2"/>
<path d="M43.4219 177.133L43.4219 46.948" stroke="white" stroke-width="2"/>
<path d="M33.335 177.133L33.335 46.948" stroke="white" stroke-width="2"/>
<path d="M23.2471 177.133L23.2471 46.948" stroke="white" stroke-width="2"/>
<path d="M3.07324 177.133L3.07324 46.948" stroke="white" stroke-width="2"/>
<path d="M13.1602 177.133L13.1602 46.948" stroke="white" stroke-width="2"/>
</g>
<mask id="mask5_124_1391" style="mask-type:alpha" maskUnits="userSpaceOnUse" x="83" y="143" width="87" height="113">
<path fill-rule="evenodd" clip-rule="evenodd" d="M168.098 144.234L84.7217 254.813V192.731L168.098 144.234Z" fill="white" stroke="#302782" stroke-width="2" stroke-miterlimit="7" stroke-linecap="round" stroke-linejoin="round"/>
</mask>
<g mask="url(#mask5_124_1391)">
<path d="M164.839 252.668L164.839 146.756" stroke="white" stroke-width="2"/>
<path d="M154.752 252.668L154.752 146.756" stroke="white" stroke-width="2"/>
<path d="M144.665 252.668L144.665 146.756" stroke="white" stroke-width="2"/>
<path d="M134.578 252.668L134.578 146.756" stroke="white" stroke-width="2"/>
<path d="M124.491 252.668L124.491 146.756" stroke="white" stroke-width="2"/>
<path d="M114.404 252.668L114.404 146.756" stroke="white" stroke-width="2"/>
<path d="M104.317 252.668L104.317 146.756" stroke="white" stroke-width="2"/>
<path d="M94.2305 252.668L94.2305 146.756" stroke="white" stroke-width="2"/>
<path d="M84.1436 252.668L84.1436 146.756" stroke="white" stroke-width="2"/>
</g>
</svg>
