<svg width="110" height="31" viewBox="0 0 110 31" fill="none" xmlns="http://www.w3.org/2000/svg">
<g clip-path="url(#clip0_203_147)">
<path d="M47.8067 31H43.7111V0H47.8067V31ZM109.64 31H105.544V0H109.64V31ZM55.3252 31H51.2332V0H55.3252V31ZM74.2275 31H70.3414L70.2956 30.9529L59.2327 19.4004L62.5773 16.1516L74.2275 28.6465V31ZM57.425 18.2131V12.4149L70.306 0H73.8254V2.31074L73.7753 2.35724L57.425 18.2131V18.2131ZM19.3784 31H15.9238V28.8015L36.3875 0.01054H40.4086V18.2819H36.3129V6.87394L19.3791 31H19.3784Z" fill="#F1DDBF"/>
<path d="M40.4085 31H36.3128V24.3102H26.5736L29.4666 20.4005H40.4195L40.4085 31ZM7.63278 3.90972H0V0H7.63278V3.90972ZM13.8276 31H9.72889V0H22.2726V3.90972H13.8276V31ZM79.024 31H75.6256V28.4909L86.0762 4.5849L88.3716 9.58148L88.3398 9.64968L79.024 31ZM98.8295 18.1083H94.2999L87.2331 1.9964L88.1082 0H90.8875L98.8295 18.1083ZM103.434 31H99.9576L96.9436 24.1409H84.3223L85.998 20.238H99.7657L103.434 28.6142V31V31Z" fill="#F1DDBF"/>
</g>
<defs>
<clipPath id="clip0_203_147">
<rect width="110" height="31" fill="white"/>
</clipPath>
</defs>
</svg>
