<svg width="23" height="19" viewBox="0 0 23 19" fill="none" xmlns="http://www.w3.org/2000/svg">
<path d="M22.097 2.93395C21.7464 3.0885 21.386 3.21895 21.0178 3.32489C21.4538 2.83469 21.7861 2.25792 21.9891 1.62678C22.0346 1.48532 21.9874 1.33047 21.8704 1.23793C21.7536 1.14534 21.5913 1.13425 21.4627 1.21002C20.6806 1.67115 19.8369 2.00256 18.9522 2.19631C18.061 1.3306 16.8506 0.837891 15.5993 0.837891C12.9581 0.837891 10.8092 2.97416 10.8092 5.59993C10.8092 5.80673 10.8224 6.0124 10.8484 6.21521C7.57087 5.92912 4.52377 4.32755 2.43135 1.77583C2.35679 1.68488 2.24191 1.63584 2.12428 1.64524C2.00661 1.65438 1.90084 1.72037 1.8414 1.8218C1.417 2.54574 1.19265 3.37376 1.19265 4.21625C1.19265 5.36371 1.60471 6.45238 2.33264 7.3031C2.11129 7.22689 1.89653 7.13166 1.69152 7.01853C1.58148 6.95761 1.44716 6.95857 1.33782 7.02087C1.22843 7.08322 1.15983 7.19782 1.15691 7.32312C1.15639 7.34422 1.15639 7.36532 1.15639 7.38672C1.15639 9.09947 2.08362 10.6415 3.50127 11.482C3.37946 11.4699 3.25778 11.4523 3.13684 11.4294C3.01216 11.4057 2.88399 11.4491 2.79992 11.5437C2.71572 11.6381 2.68783 11.7698 2.72666 11.89C3.25137 13.5187 4.60234 14.7166 6.23554 15.0819C4.88096 15.9254 3.33191 16.3672 1.70577 16.3672C1.36645 16.3672 1.02521 16.3474 0.691247 16.3081C0.525334 16.2885 0.366699 16.3859 0.310175 16.5427C0.25365 16.6997 0.313574 16.8746 0.454689 16.9646C2.54375 18.2962 4.95927 19.0001 7.44004 19.0001C12.3169 19.0001 15.3677 16.7137 17.0682 14.7958C19.1888 12.4042 20.4049 9.23863 20.4049 6.11088C20.4049 5.98021 20.4029 5.84828 20.3988 5.71674C21.2355 5.0901 21.9557 4.33171 22.5418 3.46007C22.6309 3.3277 22.6212 3.15271 22.5181 3.03087C22.4152 2.90882 22.2435 2.86939 22.097 2.93395Z" fill="#F1DDBF"/>
</svg>
