<svg width="26" height="21" viewBox="0 0 26 21" fill="none" xmlns="http://www.w3.org/2000/svg">
<path d="M25.2154 2.42357C24.8101 2.60226 24.3934 2.7531 23.9676 2.87559C24.4717 2.3088 24.856 1.64191 25.0906 0.912157C25.1432 0.748592 25.0887 0.569547 24.9535 0.462541C24.8184 0.355485 24.6307 0.34266 24.482 0.430279C23.5777 0.963456 22.6022 1.34664 21.5793 1.57068C20.5488 0.569698 19.1493 0 17.7025 0C14.6485 0 12.1639 2.47006 12.1639 5.50611C12.1639 5.74522 12.1791 5.98302 12.2093 6.21753C8.41959 5.88674 4.89638 4.03492 2.47702 1.08449C2.3908 0.979337 2.25798 0.922627 2.12197 0.933498C1.98592 0.944069 1.86362 1.02037 1.79489 1.13764C1.30418 1.9747 1.04477 2.9321 1.04477 3.90622C1.04477 5.23298 1.52121 6.49175 2.36289 7.4754C2.10695 7.38728 1.85863 7.27717 1.62159 7.14637C1.49436 7.07593 1.33905 7.07703 1.21262 7.14907C1.08614 7.22116 1.00683 7.35367 1.00345 7.49854C1.00285 7.52294 1.00285 7.54734 1.00285 7.57209C1.00285 9.55245 2.07496 11.3354 3.71411 12.3072C3.57327 12.2932 3.43258 12.2729 3.29275 12.2464C3.14858 12.219 3.00038 12.2692 2.90318 12.3785C2.80582 12.4878 2.77357 12.64 2.81847 12.779C3.42517 14.6622 4.98723 16.0473 6.87562 16.4696C5.30938 17.4449 3.51829 17.9557 1.63807 17.9557C1.24573 17.9557 0.85117 17.9328 0.465026 17.8874C0.273189 17.8647 0.0897674 17.9773 0.0244108 18.1587C-0.0409458 18.3402 0.0283413 18.5425 0.191506 18.6465C2.60698 20.1862 5.39993 21 8.26832 21C13.9072 21 17.4347 18.3565 19.4009 16.1388C21.8528 13.3735 23.2589 9.71336 23.2589 6.09689C23.2589 5.9458 23.2566 5.79326 23.2519 5.64117C24.2193 4.91662 25.0521 4.03973 25.7298 3.03189C25.8327 2.87885 25.8216 2.67651 25.7023 2.53563C25.5833 2.39451 25.3848 2.34892 25.2154 2.42357Z" fill="#32416C"/>
</svg>
