<svg width="1132" height="259" viewBox="0 0 1132 259" fill="none" xmlns="http://www.w3.org/2000/svg">
<g clip-path="url(#clip0_917_2719)">
<g filter="url(#filter0_f_917_2719)">
<path fill-rule="evenodd" clip-rule="evenodd" d="M218.65 67.686H335.971L331.28 81.79H218.65V67.686ZM181.789 81.79C177.749 78.793 173.198 76.284 168.134 74.265C157.141 69.88 144.466 67.687 130.107 67.687H66V81.79H181.789ZM66 88.37H189.124C190.85 90.2405 192.439 92.2333 193.878 94.333C195.992 97.323 197.75 100.597 199.152 104.159H150.934C149.725 103.302 148.443 102.554 147.102 101.923C142.615 99.786 136.445 98.718 128.593 98.718H107.224V104.159H66V88.37ZM218.65 88.37H329.092L325.651 98.718H259.874V104.159H218.65V88.37ZM371.157 88.37L365.906 104.159H378.018V88.369L371.157 88.37ZM437.751 88.37V104.159H478.806V88.369L437.751 88.37ZM478.806 81.79H437.751V67.687H478.806V81.79ZM508.238 88.37C506.597 90.148 505.069 92.027 503.663 93.996C501.445 97.1582 499.606 100.569 498.181 104.159H545.643C550.908 99.969 558.621 97.875 568.78 97.875C578.938 97.875 586.6 99.97 591.763 104.159H639.474C638.022 100.563 636.149 97.1521 633.896 93.996C632.513 92.0246 631.004 90.145 629.378 88.369L508.238 88.37ZM622.21 81.79H515.433C519.804 78.416 524.742 75.57 530.248 73.253C541.577 68.417 554.421 66 568.78 66C583.25 66 596.094 68.417 607.311 73.252C612.872 75.57 617.838 78.415 622.21 81.79ZM658.01 88.37V104.159H698.393V88.369L658.01 88.37ZM698.393 81.79H658.01V67.687H698.393V81.79ZM751.731 88.37V104.159H792.619V88.369L751.731 88.37ZM792.619 81.79H751.731V67.687H792.619V81.79ZM812.838 88.37C810.224 92.907 808.734 98.17 808.367 104.159H852.508C852.292 103.434 852.185 102.68 852.193 101.923C852.193 99.337 853.596 97.257 856.4 95.683C859.204 94.109 863.579 93.322 869.524 93.322C875.357 93.322 880.069 94.109 883.658 95.682C887.36 97.144 889.211 99.618 889.211 103.103H930.939C930.775 97.669 929.381 92.758 926.757 88.369L812.838 88.37ZM921.507 81.79H817.932C822.882 76.848 829.367 73.103 837.387 70.554C846.585 67.631 857.297 66.17 869.524 66.17C888.818 66.17 903.793 69.543 914.45 76.288C917.128 77.984 919.481 79.818 921.507 81.79ZM948.218 88.37V104.159H989.441V98.719H1066V88.369L948.218 88.37ZM1066 81.788H948.218V67.687H1066V81.79V81.788ZM378.018 81.788H373.345L378.018 67.738V81.788ZM218.65 110.738H259.874V114.402H320.435L316.402 126.527H218.65V110.738ZM201.257 110.738H156.716C158.607 114.438 159.553 118.751 159.553 123.678V126.527H203.278C203.149 120.825 202.475 115.562 201.257 110.738ZM66 110.738H107.224V126.527H66V110.738ZM378.018 110.738H363.718L358.467 126.527H478.806V110.738H437.751V112.547H378.018V110.738ZM494.076 126.527C494.137 120.887 494.793 115.624 496.045 110.738H540.017C538.104 114.107 537.147 117.915 537.147 122.16V126.527H494.076ZM600.413 122.16C600.413 117.915 599.435 114.107 597.479 110.738H641.648C642.922 115.624 643.589 120.887 643.651 126.527H600.413V122.16ZM658.01 126.527V110.738H698.393V126.527H658.01ZM751.731 126.527V110.738H792.619V126.527H751.731ZM813.682 126.527C810.643 122.26 808.886 116.996 808.41 110.738H869.089C872.182 111.116 875.805 111.494 879.956 111.873C887.809 112.547 894.988 113.615 901.494 115.077C908.112 116.426 913.833 118.562 918.656 121.485C921.135 122.897 923.33 124.577 925.243 126.527H813.682ZM948.218 126.527V110.738H989.441V114.402H1055.06V126.527H948.218ZM159.553 133.106H203.237C203.018 138.804 202.234 144.068 200.885 148.896H155.97C156.228 148.483 156.469 148.06 156.692 147.626C158.599 143.803 159.553 139.474 159.553 134.64V133.106ZM107.224 133.106H66V148.896H107.224V133.106ZM218.65 133.106H314.214L310.9 143.072H259.874V148.896H218.65V133.106ZM356.279 133.106L351.028 148.896H378.018V143.915H437.751V148.896H478.806V133.106H356.279ZM494.106 133.106C494.274 138.744 495.05 144.007 496.435 148.896H540.828C538.374 145.211 537.147 140.965 537.147 136.158V133.106H494.106ZM600.413 133.106V136.158C600.413 140.965 599.159 145.211 596.651 148.896H641.251C642.66 144.007 643.45 138.744 643.62 133.106H600.413ZM658.01 133.106V140.88C658.01 143.624 658.191 146.296 658.553 148.896H701.237C699.341 145.654 698.393 141.914 698.393 137.676V133.106H658.01ZM751.731 133.106V137.676C751.731 142.064 750.894 145.804 749.218 148.896H792.053C792.436 146.241 792.625 143.562 792.619 140.88V133.106H751.731ZM820.331 133.106C824.161 135.917 828.837 138.171 834.358 139.868C842.771 142.341 852.923 144.028 864.813 144.927C871.88 145.489 877.208 146.164 880.798 146.951C883.346 147.493 885.336 148.141 886.767 148.896H934.072C933.776 142.607 932.452 137.349 930.098 133.122L930.089 133.106H820.331ZM948.218 133.106V148.896H989.441V143.072H1055.06V133.106H948.218ZM218.65 155.474H259.874V159.598H305.403L301.524 171.263H218.65V155.474ZM198.583 155.474H148.87C148.305 155.795 147.715 156.102 147.102 156.394C142.615 158.53 136.445 159.598 128.593 159.598H107.224V155.474H66V171.263H187.866C190.084 169.021 192.096 166.585 193.878 163.983C195.735 161.316 197.312 158.465 198.583 155.474ZM378.018 155.474H348.84L343.589 171.263H378.018V155.474ZM437.751 171.263V155.474H478.806V171.263H437.751ZM503.663 164.321C501.738 161.543 500.097 158.58 498.764 155.474H547.484C552.648 158.786 559.747 160.442 568.78 160.442C577.812 160.442 584.871 158.786 589.954 155.474H638.882C637.523 158.584 635.853 161.548 633.896 164.321C632.167 166.785 630.244 169.106 628.145 171.263H509.48C507.365 169.103 505.42 166.782 503.663 164.321ZM664.741 167.188C662.637 163.504 661.009 159.568 659.895 155.474H707.413C711.888 158.448 717.967 159.936 725.651 159.936C732.587 159.936 738.364 158.448 742.981 155.474H790.607C789.125 160.446 786.823 164.969 783.701 169.043C783.123 169.801 782.522 170.541 781.9 171.263H667.51C666.504 169.963 665.579 168.602 664.741 167.188ZM853.876 161.791C850.872 160.245 848.867 158.139 847.861 155.474H806.024C806.45 161.346 808.191 166.609 811.247 171.263H928.322C931.505 166.459 933.382 161.195 933.951 155.474H890.356C890.119 158.26 888.559 160.478 885.677 162.128C882.536 163.927 877.601 164.826 870.87 164.826C863.803 164.826 858.139 163.815 853.876 161.791ZM948.218 171.263V155.474H989.441V159.598H1065.66V171.263H948.218ZM66 177.842H179.937C176.372 180.265 172.438 182.335 168.134 184.052C157.141 188.437 144.466 190.629 130.107 190.629H66V177.842ZM218.65 177.842H299.336L295.083 190.629H218.65V177.842ZM341.401 177.842L337.148 190.629H378.018V177.842H341.401ZM437.751 177.842V190.629H478.806V177.842H437.751ZM517.127 177.842C521.068 180.698 525.442 183.161 530.248 185.233C541.577 189.955 554.421 192.316 568.78 192.316C583.25 192.316 596.094 189.955 607.311 185.233C612.165 183.161 616.567 180.698 620.515 177.842H517.127ZM673.859 177.842C677.387 180.804 681.527 183.38 686.278 185.57C696.149 190.067 708.937 192.316 724.641 192.316C737.766 192.316 749.432 190.348 759.64 186.413C765.477 184.163 770.599 181.306 775.006 177.842H673.859ZM816.876 177.842C818.252 179.105 819.707 180.278 821.233 181.354C831.553 188.662 847.538 192.316 869.188 192.316C884.331 192.316 896.67 190.573 906.205 187.088C912.881 184.598 918.321 181.516 922.526 177.842H816.876ZM948.218 177.842V190.629H1065.66V177.842H948.218Z" fill="url(#paint0_linear_917_2719)"/>
</g>
<path fill-rule="evenodd" clip-rule="evenodd" d="M218.65 67.686H335.971L331.28 81.79H218.65V67.686ZM181.789 81.79C177.749 78.793 173.198 76.284 168.134 74.265C157.141 69.88 144.466 67.687 130.107 67.687H66V81.79H181.789ZM66 88.37H189.124C190.85 90.2405 192.439 92.2333 193.878 94.333C195.992 97.323 197.75 100.597 199.152 104.159H150.934C149.725 103.302 148.443 102.554 147.102 101.923C142.615 99.786 136.445 98.718 128.593 98.718H107.224V104.159H66V88.37ZM218.65 88.37H329.092L325.651 98.718H259.874V104.159H218.65V88.37ZM371.157 88.37L365.906 104.159H378.018V88.369L371.157 88.37ZM437.751 88.37V104.159H478.806V88.369L437.751 88.37ZM478.806 81.79H437.751V67.687H478.806V81.79ZM508.238 88.37C506.597 90.148 505.069 92.027 503.663 93.996C501.445 97.1582 499.606 100.569 498.181 104.159H545.643C550.908 99.969 558.621 97.875 568.78 97.875C578.938 97.875 586.6 99.97 591.763 104.159H639.474C638.022 100.563 636.149 97.1521 633.896 93.996C632.513 92.0246 631.004 90.145 629.378 88.369L508.238 88.37ZM622.21 81.79H515.433C519.804 78.416 524.742 75.57 530.248 73.253C541.577 68.417 554.421 66 568.78 66C583.25 66 596.094 68.417 607.311 73.252C612.872 75.57 617.838 78.415 622.21 81.79ZM658.01 88.37V104.159H698.393V88.369L658.01 88.37ZM698.393 81.79H658.01V67.687H698.393V81.79ZM751.731 88.37V104.159H792.619V88.369L751.731 88.37ZM792.619 81.79H751.731V67.687H792.619V81.79ZM812.838 88.37C810.224 92.907 808.734 98.17 808.367 104.159H852.508C852.292 103.434 852.185 102.68 852.193 101.923C852.193 99.337 853.596 97.257 856.4 95.683C859.204 94.109 863.579 93.322 869.524 93.322C875.357 93.322 880.069 94.109 883.658 95.682C887.36 97.144 889.211 99.618 889.211 103.103H930.939C930.775 97.669 929.381 92.758 926.757 88.369L812.838 88.37ZM921.507 81.79H817.932C822.882 76.848 829.367 73.103 837.387 70.554C846.585 67.631 857.297 66.17 869.524 66.17C888.818 66.17 903.793 69.543 914.45 76.288C917.128 77.984 919.481 79.818 921.507 81.79ZM948.218 88.37V104.159H989.441V98.719H1066V88.369L948.218 88.37ZM1066 81.788H948.218V67.687H1066V81.79V81.788ZM378.018 81.788H373.345L378.018 67.738V81.788ZM218.65 110.738H259.874V114.402H320.435L316.402 126.527H218.65V110.738ZM201.257 110.738H156.716C158.607 114.438 159.553 118.751 159.553 123.678V126.527H203.278C203.149 120.825 202.475 115.562 201.257 110.738ZM66 110.738H107.224V126.527H66V110.738ZM378.018 110.738H363.718L358.467 126.527H478.806V110.738H437.751V112.547H378.018V110.738ZM494.076 126.527C494.137 120.887 494.793 115.624 496.045 110.738H540.017C538.104 114.107 537.147 117.915 537.147 122.16V126.527H494.076ZM600.413 122.16C600.413 117.915 599.435 114.107 597.479 110.738H641.648C642.922 115.624 643.589 120.887 643.651 126.527H600.413V122.16ZM658.01 126.527V110.738H698.393V126.527H658.01ZM751.731 126.527V110.738H792.619V126.527H751.731ZM813.682 126.527C810.643 122.26 808.886 116.996 808.41 110.738H869.089C872.182 111.116 875.805 111.494 879.956 111.873C887.809 112.547 894.988 113.615 901.494 115.077C908.112 116.426 913.833 118.562 918.656 121.485C921.135 122.897 923.33 124.577 925.243 126.527H813.682ZM948.218 126.527V110.738H989.441V114.402H1055.06V126.527H948.218ZM159.553 133.106H203.237C203.018 138.804 202.234 144.068 200.885 148.896H155.97C156.228 148.483 156.469 148.06 156.692 147.626C158.599 143.803 159.553 139.474 159.553 134.64V133.106ZM107.224 133.106H66V148.896H107.224V133.106ZM218.65 133.106H314.214L310.9 143.072H259.874V148.896H218.65V133.106ZM356.279 133.106L351.028 148.896H378.018V143.915H437.751V148.896H478.806V133.106H356.279ZM494.106 133.106C494.274 138.744 495.05 144.007 496.435 148.896H540.828C538.374 145.211 537.147 140.965 537.147 136.158V133.106H494.106ZM600.413 133.106V136.158C600.413 140.965 599.159 145.211 596.651 148.896H641.251C642.66 144.007 643.45 138.744 643.62 133.106H600.413ZM658.01 133.106V140.88C658.01 143.624 658.191 146.296 658.553 148.896H701.237C699.341 145.654 698.393 141.914 698.393 137.676V133.106H658.01ZM751.731 133.106V137.676C751.731 142.064 750.894 145.804 749.218 148.896H792.053C792.436 146.241 792.625 143.562 792.619 140.88V133.106H751.731ZM820.331 133.106C824.161 135.917 828.837 138.171 834.358 139.868C842.771 142.341 852.923 144.028 864.813 144.927C871.88 145.489 877.208 146.164 880.798 146.951C883.346 147.493 885.336 148.141 886.767 148.896H934.072C933.776 142.607 932.452 137.349 930.098 133.122L930.089 133.106H820.331ZM948.218 133.106V148.896H989.441V143.072H1055.06V133.106H948.218ZM218.65 155.474H259.874V159.598H305.403L301.524 171.263H218.65V155.474ZM198.583 155.474H148.87C148.305 155.795 147.715 156.102 147.102 156.394C142.615 158.53 136.445 159.598 128.593 159.598H107.224V155.474H66V171.263H187.866C190.084 169.021 192.096 166.585 193.878 163.983C195.735 161.316 197.312 158.465 198.583 155.474ZM378.018 155.474H348.84L343.589 171.263H378.018V155.474ZM437.751 171.263V155.474H478.806V171.263H437.751ZM503.663 164.321C501.738 161.543 500.097 158.58 498.764 155.474H547.484C552.648 158.786 559.747 160.442 568.78 160.442C577.812 160.442 584.871 158.786 589.954 155.474H638.882C637.523 158.584 635.853 161.548 633.896 164.321C632.167 166.785 630.244 169.106 628.145 171.263H509.48C507.365 169.103 505.42 166.782 503.663 164.321ZM664.741 167.188C662.637 163.504 661.009 159.568 659.895 155.474H707.413C711.888 158.448 717.967 159.936 725.651 159.936C732.587 159.936 738.364 158.448 742.981 155.474H790.607C789.125 160.446 786.823 164.969 783.701 169.043C783.123 169.801 782.522 170.541 781.9 171.263H667.51C666.504 169.963 665.579 168.602 664.741 167.188ZM853.876 161.791C850.872 160.245 848.867 158.139 847.861 155.474H806.024C806.45 161.346 808.191 166.609 811.247 171.263H928.322C931.505 166.459 933.382 161.195 933.951 155.474H890.356C890.119 158.26 888.559 160.478 885.677 162.128C882.536 163.927 877.601 164.826 870.87 164.826C863.803 164.826 858.139 163.815 853.876 161.791ZM948.218 171.263V155.474H989.441V159.598H1065.66V171.263H948.218ZM66 177.842H179.937C176.372 180.265 172.438 182.335 168.134 184.052C157.141 188.437 144.466 190.629 130.107 190.629H66V177.842ZM218.65 177.842H299.336L295.083 190.629H218.65V177.842ZM341.401 177.842L337.148 190.629H378.018V177.842H341.401ZM437.751 177.842V190.629H478.806V177.842H437.751ZM517.127 177.842C521.068 180.698 525.442 183.161 530.248 185.233C541.577 189.955 554.421 192.316 568.78 192.316C583.25 192.316 596.094 189.955 607.311 185.233C612.165 183.161 616.567 180.698 620.515 177.842H517.127ZM673.859 177.842C677.387 180.804 681.527 183.38 686.278 185.57C696.149 190.067 708.937 192.316 724.641 192.316C737.766 192.316 749.432 190.348 759.64 186.413C765.477 184.163 770.599 181.306 775.006 177.842H673.859ZM816.876 177.842C818.252 179.105 819.707 180.278 821.233 181.354C831.553 188.662 847.538 192.316 869.188 192.316C884.331 192.316 896.67 190.573 906.205 187.088C912.881 184.598 918.321 181.516 922.526 177.842H816.876ZM948.218 177.842V190.629H1065.66V177.842H948.218Z" fill="url(#paint1_linear_917_2719)"/>
</g>
<defs>
<filter id="filter0_f_917_2719" x="0.209999" y="0.209999" width="1131.58" height="257.896" filterUnits="userSpaceOnUse" color-interpolation-filters="sRGB">
<feFlood flood-opacity="0" result="BackgroundImageFix"/>
<feBlend mode="normal" in="SourceGraphic" in2="BackgroundImageFix" result="shape"/>
<feGaussianBlur stdDeviation="32.895" result="effect1_foregroundBlur_917_2719"/>
</filter>
<linearGradient id="paint0_linear_917_2719" x1="566" y1="66" x2="566" y2="192.316" gradientUnits="userSpaceOnUse">
<stop stop-color="#FFFE55"/>
<stop offset="1" stop-color="#D92FB4"/>
</linearGradient>
<linearGradient id="paint1_linear_917_2719" x1="566" y1="66" x2="566" y2="192.316" gradientUnits="userSpaceOnUse">
<stop stop-color="#FFFE55"/>
<stop offset="1" stop-color="#D92FB4"/>
</linearGradient>
<clipPath id="clip0_917_2719">
<rect width="1132" height="259" fill="white"/>
</clipPath>
</defs>
</svg>
