<svg width="1232" height="657" viewBox="0 0 1232 657" fill="none" xmlns="http://www.w3.org/2000/svg">
<mask id="mask0_917_2809" style="mask-type:luminance" maskUnits="userSpaceOnUse" x="0" y="0" width="1231" height="657">
<path d="M1230.77 0H0V656.825H1230.77V0Z" fill="white"/>
</mask>
<g mask="url(#mask0_917_2809)">
<path d="M280.966 173.653H235.861C231.401 173.653 227.124 175.425 223.97 178.579C220.816 181.733 219.045 186.011 219.045 190.472V280.758C219.06 285.029 217.442 289.144 214.522 292.26C211.601 295.376 207.6 297.259 203.338 297.519H202.608C196.399 297.849 188.906 298.015 180.129 298.015C165.542 298.337 151.058 295.49 137.68 289.664C125.877 284.379 115.493 276.374 107.376 266.304C98.9783 255.568 92.7961 243.271 89.1883 230.125C84.9756 214.916 82.9311 199.187 83.1159 183.405C83.1159 147.995 91.2807 120.09 107.61 99.6889C123.939 79.2878 150.467 69.0873 187.194 69.0873C202.655 68.8464 218.068 70.8729 232.941 75.1025C240.502 77.4093 247.538 79.8913 254.224 82.6361C256.318 83.4885 258.563 83.9078 260.823 83.8681C263.083 83.8287 265.312 83.3314 267.375 82.406C269.438 81.481 271.292 80.1471 272.825 78.4853C274.358 76.8236 275.538 74.8681 276.295 72.7373L287.972 40.4713C289.375 36.5912 289.292 32.3292 287.74 28.5065C286.187 24.6839 283.275 21.5713 279.564 19.7686C271.9 16.2173 263.963 13.2878 255.829 11.0086C244.544 7.76887 233.068 5.23329 221.468 3.41652C206.673 1.10961 191.715 0.00616326 176.742 0.116958C153.373 -0.0379711 130.172 4.07863 108.281 12.2641C87.2746 19.988 68.1555 32.1029 52.1991 47.8005C35.9303 64.1695 23.2006 83.7101 14.8012 105.208C5.73151 127.809 1.18694 153.777 1.16748 183.113C0.722183 209.433 4.91223 235.626 13.5459 260.493C21.0131 281.832 32.958 301.327 48.579 317.667C64.0228 333.362 82.7454 345.448 103.406 353.057C126.304 361.411 150.531 365.529 174.903 365.205C200.817 365.619 226.709 363.496 252.209 358.868C265.833 356.144 276.976 353.516 285.637 350.984C289.118 349.962 292.174 347.839 294.349 344.934C296.521 342.026 297.697 338.495 297.694 334.866V190.326C297.656 185.905 295.878 181.678 292.749 178.558C289.618 175.438 285.385 173.675 280.966 173.653Z" fill="white"/>
<path d="M737.04 85.177C735.813 72.9714 734.549 61.2914 733.244 50.137C732.602 44.4917 731.939 39.0021 731.259 33.6682C730.88 30.7482 730.5 27.6238 730.091 24.6746C730.091 23.5358 729.799 22.4262 729.653 21.3166L729.216 17.9585C729.134 17.3561 729.008 16.7607 728.836 16.1774C728.801 16.0273 728.751 15.8807 728.69 15.7394C728.635 15.5308 728.567 15.326 728.486 15.1262C728.255 14.5427 727.981 13.9767 727.668 13.4326C727.341 12.8846 726.982 12.3579 726.588 11.8558C726.36 11.5697 726.115 11.2968 725.858 11.0382C724.842 9.97851 723.645 9.10835 722.326 8.46855C720.635 7.63568 718.779 7.20591 716.896 7.21298H663.324C661.073 7.20979 658.866 7.81978 656.936 8.97733C655.009 10.1349 653.433 11.7963 652.376 13.783C647.142 23.5163 641.303 35.0601 634.86 48.4142C628.904 60.6782 622.764 73.7014 616.438 87.4838L610.044 101.5C607.884 106.25 605.732 111.039 603.592 115.866C601.432 120.684 599.301 125.502 597.17 130.466C592.907 140.199 588.665 150.04 584.441 159.987L572.063 189.187C571.108 191.433 569.514 193.347 567.479 194.693C565.444 196.039 563.059 196.757 560.618 196.757C558.178 196.757 555.793 196.039 553.758 194.693C551.723 193.347 550.129 191.433 549.174 189.187L536.796 159.987C528.329 140.093 519.796 120.626 511.192 101.587C502.589 82.549 494.309 64.8538 486.348 48.5018C479.905 35.245 474.066 23.7013 468.831 13.8706C467.772 11.8816 466.189 10.2191 464.254 9.06154C462.321 7.90405 460.108 7.29526 457.854 7.30058H400.809C398.917 7.29322 397.048 7.72293 395.349 8.55621C394.041 9.2036 392.856 10.073 391.846 11.1258C391.586 11.3844 391.344 11.6573 391.116 11.9434C390.667 12.5123 390.267 13.1179 389.919 13.7538C389.724 14.0796 389.557 14.4215 389.423 14.7758C389.423 15.1262 389.131 15.4766 389.014 15.827C388.778 16.5508 388.603 17.2931 388.489 18.0462C387.087 28.2662 385.736 38.9729 384.431 50.1662C383.788 55.7726 383.146 61.5054 382.504 67.365C381.862 73.205 381.24 79.191 380.635 85.323C379.935 92.5257 379.243 99.8062 378.563 107.165C378.075 112.674 377.579 118.231 377.074 123.838C375.634 140.637 374.3 157.807 373.074 175.347C372.528 183.133 371.985 190.92 371.439 198.707C369.863 222.067 368.383 245.534 367.002 269.108C366.222 282.326 365.484 295.221 364.783 307.798C364.082 320.374 363.44 332.618 362.856 344.531C362.812 345.095 362.812 345.661 362.856 346.225C362.894 346.716 362.964 347.203 363.06 347.685C363.633 350.488 365.16 353.005 367.378 354.81C369.597 356.614 372.373 357.595 375.234 357.584H428.835C430.467 357.59 432.085 357.271 433.594 356.649C434.318 356.343 435.01 355.972 435.667 355.54C436.329 355.119 436.945 354.629 437.506 354.08C439.827 351.84 441.179 348.777 441.272 345.553C441.856 326.69 442.548 306.931 443.345 286.277C443.675 277.985 444.008 269.565 444.337 261.019C444.513 256.756 444.717 252.435 444.892 248.084C445.126 242.361 445.38 236.628 445.651 230.885C446.507 213.677 447.482 196.4 448.571 179.055C448.687 176.932 449.341 174.872 450.468 173.069C450.883 172.41 451.37 171.803 451.928 171.259C452.979 170.159 454.226 169.268 455.606 168.631C456.29 168.295 457.005 168.022 457.738 167.813C458.832 167.522 459.962 167.375 461.095 167.375C462.794 167.362 464.476 167.71 466.029 168.397C466.56 168.607 467.068 168.871 467.547 169.185C468.294 169.664 468.989 170.222 469.62 170.85C470.279 171.525 470.866 172.269 471.371 173.069C471.722 173.64 472.034 174.236 472.306 174.85C479.625 191.786 486.865 208.713 494.026 225.629C501.187 242.545 508.098 258.722 514.754 274.159C519.951 286.19 524.534 296.897 528.505 306.279C528.718 306.782 528.963 307.266 529.234 307.739L529.526 308.177C530.113 309.112 530.831 309.956 531.658 310.689C532.119 311.092 532.606 311.462 533.117 311.798C530.577 298.197 530.808 284.22 533.795 270.709C536.784 257.197 542.468 244.428 550.505 233.165C558.543 221.902 568.772 212.378 580.579 205.163C592.385 197.947 605.522 193.189 619.211 191.173C635.42 173.574 656.414 161.091 679.614 155.257C696.255 137.84 717.004 124.887 739.959 117.589C739.083 106.61 738.111 95.8058 737.04 85.177Z" fill="white"/>
<path d="M153.27 608.266H59.8483C57.9128 608.266 56.0563 607.498 54.6874 606.128C53.3187 604.759 52.5498 602.901 52.5498 600.966V563.006C52.5498 561.07 53.3187 559.212 54.6874 557.843C56.0563 556.473 57.9128 555.706 59.8483 555.706H135.754C137.689 555.706 139.546 554.938 140.915 553.568C142.283 552.199 143.052 550.341 143.052 548.406V522.126C143.052 520.19 142.283 518.332 140.915 516.963C139.546 515.593 137.689 514.826 135.754 514.826H59.8483C57.9128 514.826 56.0563 514.058 54.6874 512.688C53.3187 511.319 52.5498 509.461 52.5498 507.526V478.326C52.5498 476.39 53.3187 474.532 54.6874 473.163C56.0563 471.793 57.9128 471.026 59.8483 471.026H144.512C146.447 471.026 148.304 470.258 149.673 468.888C151.041 467.519 151.81 465.661 151.81 463.726V437.446C151.81 435.51 151.041 433.652 149.673 432.283C148.304 430.913 146.447 430.146 144.512 430.146H7.29858C5.36288 430.146 3.50647 430.913 2.13771 432.283C0.768961 433.652 0 435.51 0 437.446V644.766C0 646.701 0.768961 648.559 2.13771 649.928C3.50647 651.298 5.36288 652.066 7.29858 652.066H153.27C155.206 652.066 157.062 651.298 158.431 649.928C159.8 648.559 160.569 646.701 160.569 644.766V615.566C160.569 613.63 159.8 611.772 158.431 610.403C157.062 609.034 155.206 608.266 153.27 608.266Z" fill="white"/>
<path d="M393.16 430.145H355.558C354.022 430.14 352.521 430.624 351.278 431.527C350.034 432.429 349.109 433.705 348.638 435.168C344.902 446.652 340.814 458.849 336.377 471.755C331.297 486.569 326.121 501.326 320.846 516.023C315.57 530.719 310.461 544.823 305.519 558.333C303.095 564.903 300.789 571.065 298.541 576.759C298.004 578.119 297.07 579.287 295.858 580.111C294.647 580.934 293.216 581.375 291.754 581.375C290.29 581.375 288.86 580.934 287.649 580.111C286.439 579.287 285.504 578.119 284.966 576.759C282.689 570.919 280.353 564.719 277.959 558.158L262.808 515.877C257.553 501.16 252.376 486.393 247.276 471.58C242.839 458.674 238.761 446.518 235.044 435.109C234.573 433.646 233.648 432.37 232.404 431.468C231.161 430.566 229.661 430.081 228.125 430.087H188.566C187.407 430.087 186.264 430.361 185.233 430.89C184.201 431.419 183.31 432.186 182.634 433.13C181.958 434.07 181.515 435.159 181.344 436.307C181.172 437.454 181.276 438.625 181.647 439.723C185.54 451.403 190.055 464.201 195.193 478.121C201.675 496.07 208.778 514.855 216.505 534.477C224.232 554.099 232.397 573.985 240.999 594.133C248.94 612.666 256.988 630.612 265.143 647.977C265.737 649.23 266.675 650.29 267.849 651.029C269.023 651.77 270.383 652.159 271.77 652.153H310.102C311.489 652.159 312.849 651.77 314.023 651.029C315.196 650.29 316.136 649.23 316.729 647.977C324.845 630.691 332.853 612.771 340.756 594.22C349.281 574.131 357.388 554.275 365.075 534.652C372.762 515.03 379.838 496.254 386.299 478.325C391.321 464.406 395.895 451.616 400.02 439.957C400.432 438.853 400.569 437.664 400.42 436.496C400.272 435.328 399.842 434.213 399.165 433.249C398.491 432.283 397.592 431.497 396.546 430.957C395.498 430.417 394.336 430.137 393.16 430.145Z" fill="white"/>
<path d="M582.427 608.266H489.005C487.069 608.266 485.212 607.498 483.843 606.128C482.474 604.759 481.706 602.901 481.706 600.966V563.006C481.706 561.07 482.474 559.212 483.843 557.843C485.212 556.473 487.069 555.706 489.005 555.706H564.91C566.846 555.706 568.702 554.938 570.072 553.568C571.441 552.199 572.209 550.341 572.209 548.406V522.126C572.209 520.19 571.441 518.332 570.072 516.963C568.702 515.593 566.846 514.826 564.91 514.826H489.005C487.069 514.826 485.212 514.058 483.843 512.688C482.474 511.319 481.706 509.461 481.706 507.526V478.326C481.706 476.39 482.474 474.532 483.843 473.163C485.212 471.793 487.069 471.026 489.005 471.026H576.588C578.523 471.026 580.38 470.258 581.749 468.888C583.118 467.519 583.886 465.661 583.886 463.726V437.446C583.886 435.51 583.118 433.652 581.749 432.283C580.38 430.913 578.523 430.146 576.588 430.146H439.374C437.439 430.146 435.582 430.913 434.213 432.283C432.844 433.652 432.076 435.51 432.076 437.446V644.766C432.076 646.701 432.844 648.559 434.213 649.928C435.582 651.298 437.439 652.066 439.374 652.066H582.427C584.362 652.066 586.219 651.298 587.588 649.928C588.957 648.559 589.725 646.701 589.725 644.766V615.566C589.725 613.63 588.957 611.772 587.588 610.403C586.219 609.034 584.362 608.266 582.427 608.266Z" fill="white"/>
<path d="M817.441 430.146H773.649C772.876 430.146 772.131 430.452 771.585 431.001C771.036 431.547 770.73 432.292 770.73 433.066V551.647C770.721 552.266 770.52 552.864 770.149 553.361C769.778 553.854 769.261 554.219 768.669 554.403C768.079 554.584 767.445 554.573 766.862 554.371C766.275 554.17 765.77 553.79 765.416 553.282C759.169 544.172 752.609 534.778 745.74 525.104C736.864 512.606 727.951 500.538 718.998 488.896C710.044 477.254 701.227 466.316 692.547 456.075C684.218 446.226 676.607 437.863 669.718 430.992C669.446 430.721 669.122 430.508 668.766 430.362C668.41 430.216 668.03 430.143 667.645 430.146H630.597C629.824 430.146 629.079 430.452 628.533 431.001C627.984 431.547 627.678 432.292 627.678 433.066V649.146C627.678 649.919 627.984 650.664 628.533 651.21C629.079 651.759 629.824 652.066 630.597 652.066H674.389C675.162 652.066 675.907 651.759 676.453 651.21C677.002 650.664 677.308 649.919 677.308 649.146V514.621C677.299 514.017 677.48 513.427 677.822 512.931C678.166 512.431 678.654 512.055 679.22 511.844C679.787 511.637 680.406 511.611 680.987 511.765C681.57 511.923 682.09 512.259 682.475 512.723C699.767 533.225 715.973 554.616 731.026 576.817C747.512 601.112 762.877 625.707 777.123 650.606C777.377 651.047 777.745 651.414 778.183 651.671C778.624 651.925 779.123 652.063 779.634 652.066H817.441C818.214 652.066 818.959 651.759 819.505 651.21C820.054 650.664 820.36 649.919 820.36 649.146V433.066C820.36 432.683 820.284 432.303 820.138 431.947C819.992 431.594 819.776 431.273 819.505 431.001C819.233 430.73 818.912 430.514 818.559 430.368C818.203 430.222 817.823 430.146 817.441 430.146Z" fill="white"/>
<path d="M1029.1 430.146H859.773C857.837 430.146 855.98 430.913 854.611 432.283C853.242 433.652 852.474 435.51 852.474 437.446V466.646C852.474 468.581 853.242 470.439 854.611 471.808C855.98 473.178 857.837 473.946 859.773 473.946H912.322C914.258 473.946 916.115 474.713 917.484 476.083C918.853 477.452 919.621 479.31 919.621 481.246V644.766C919.621 646.701 920.389 648.559 921.758 649.928C923.127 651.298 924.984 652.066 926.919 652.066H961.953C963.888 652.066 965.745 651.298 967.114 649.928C968.483 648.559 969.251 646.701 969.251 644.766V481.246C969.251 479.31 970.019 477.452 971.388 476.083C972.757 474.713 974.614 473.946 976.55 473.946H1029.1C1031.04 473.946 1032.89 473.178 1034.26 471.808C1035.63 470.439 1036.4 468.581 1036.4 466.646V437.446C1036.4 435.51 1035.63 433.652 1034.26 432.283C1032.89 430.913 1031.04 430.146 1029.1 430.146Z" fill="white"/>
<path d="M1212.21 563.881C1209.47 556.482 1205.14 549.783 1199.51 544.259C1193.2 538.281 1185.98 533.352 1178.11 529.659C1169.56 525.474 1159.49 521.24 1147.89 516.957C1142.32 515.009 1137.24 513.14 1132.62 511.35C1128.37 509.692 1124.29 507.639 1120.42 505.218C1117.2 503.285 1114.42 500.721 1112.22 497.685C1110.2 494.633 1109.18 491.033 1109.3 487.377C1109.12 484.361 1109.75 481.353 1111.13 478.667C1112.51 475.977 1114.59 473.711 1117.15 472.105C1122.4 468.777 1131.04 467.112 1143.04 467.112C1152.35 466.922 1161.62 468.175 1170.55 470.821C1175.36 472.397 1179.92 474.091 1184.18 475.96C1185.09 476.369 1186.08 476.588 1187.08 476.599C1188.09 476.611 1189.08 476.415 1190 476.027C1190.92 475.639 1191.76 475.063 1192.45 474.336C1193.14 473.612 1193.67 472.754 1194.02 471.813L1203.51 445.913C1204.13 444.173 1204.08 442.26 1203.35 440.561C1202.62 438.861 1201.28 437.498 1199.59 436.744C1192.86 433.734 1185.93 431.196 1178.84 429.152C1166.17 425.715 1153.08 424.092 1139.95 424.334C1128.42 424.176 1116.92 425.742 1105.85 428.977C1096.49 431.713 1087.76 436.245 1080.13 442.321C1073.13 448.009 1067.52 455.219 1063.72 463.404C1059.75 472.126 1057.75 481.619 1057.88 491.202C1057.6 500.272 1059.47 509.277 1063.34 517.482C1066.83 524.449 1071.62 530.678 1077.47 535.82C1083.39 540.886 1090 545.085 1097.09 548.288C1104.39 551.617 1111.69 554.566 1118.96 557.048C1135.69 562.625 1147.45 567.823 1154.34 572.641C1157.45 574.554 1160.02 577.222 1161.82 580.399C1163.62 583.576 1164.58 587.153 1164.62 590.803C1164.65 593.989 1164.11 597.154 1163.01 600.147C1161.81 603.07 1159.78 605.579 1157.17 607.36C1153.81 609.649 1150.05 611.293 1146.08 612.207C1140.34 613.495 1134.45 614.084 1128.56 613.959C1116.47 614.228 1104.39 612.762 1092.71 609.608C1086.74 607.891 1080.89 605.774 1075.2 603.272C1074.28 602.875 1073.29 602.67 1072.29 602.67C1071.29 602.673 1070.3 602.88 1069.38 603.278C1068.47 603.678 1067.64 604.262 1066.96 604.995C1066.28 605.727 1065.75 606.592 1065.42 607.535L1056.13 633.815C1055.53 635.497 1055.58 637.339 1056.25 638.992C1056.92 640.645 1058.18 641.994 1059.78 642.779C1061.42 643.597 1063.2 644.415 1065.1 645.232C1070.22 647.416 1075.49 649.25 1080.86 650.722C1087.78 652.593 1094.81 654.036 1101.91 655.043C1110.75 656.296 1119.67 656.892 1128.59 656.825C1157.96 656.825 1179.94 651.093 1194.51 639.626C1209.09 628.159 1216.38 612.023 1216.38 591.212C1216.6 581.927 1215.19 572.676 1212.21 563.881Z" fill="white"/>
<path d="M835.424 41.2304C834.09 39.5517 832.435 38.1528 830.561 37.1135C828.683 36.0743 826.622 35.415 824.491 35.1735C822.36 34.9323 820.2 35.1133 818.139 35.7067C816.077 36.3003 814.153 37.294 812.478 38.6316L812.332 38.7776H812.157C796.908 51.0475 783.832 65.7946 773.474 82.4024C772.338 84.2219 771.574 86.2472 771.22 88.3627C770.87 90.478 770.937 92.642 771.422 94.7313C771.906 96.8205 772.797 98.7939 774.043 100.539C775.287 102.284 776.867 103.766 778.685 104.901C780.504 106.036 782.53 106.802 784.644 107.154C786.76 107.506 788.924 107.439 791.011 106.955C793.101 106.471 795.075 105.58 796.818 104.333C798.564 103.087 800.044 101.508 801.18 99.6888C808.779 87.5355 818.168 76.5987 829.031 67.2476L829.498 66.8388L829.732 66.6344L829.878 66.4884H830.024H831.425L831.6 66.3132L831.892 66.1088C833.936 64.8521 835.676 63.1602 836.992 61.1536C838.306 59.147 839.164 56.8752 839.5 54.4995C839.839 52.1241 839.649 49.7034 838.942 47.41C838.239 45.1164 837.036 43.0067 835.424 41.2304ZM770.496 124.421C769.329 124.143 768.135 124.006 766.935 124.012C763.227 124.016 759.633 125.281 756.74 127.601C753.85 129.92 751.832 133.155 751.024 136.773V136.977V137.152C750.527 139.459 750.06 141.766 749.681 144.102C759.788 141.18 770.254 139.696 780.773 139.693C781.678 139.693 782.554 139.693 783.459 139.693C783.307 136.067 781.949 132.596 779.602 129.829C777.252 127.063 774.049 125.159 770.496 124.421ZM1083.93 112.741C1082.38 108.695 1079.28 105.43 1075.33 103.664C1071.37 101.898 1066.88 101.775 1062.83 103.324C1058.79 104.873 1055.52 107.966 1053.76 111.922C1051.99 115.879 1051.87 120.375 1053.42 124.421C1055.37 129.534 1057.01 134.761 1058.32 140.072C1070.09 140.174 1081.77 142.146 1092.92 145.912C1091.02 134.616 1088 123.534 1083.93 112.829V112.741ZM1054.27 62.6924V62.5172C1041.58 47.6066 1026.47 34.9413 1009.57 25.0536C1005.83 22.862 1001.38 22.2445 997.187 23.337C992.998 24.4294 989.413 27.1424 987.22 30.879C985.028 34.6158 984.412 39.0699 985.504 43.2619C986.595 47.4538 989.308 51.0399 993.045 53.2316C995.526 54.6916 997.949 56.1516 1000.34 57.816L1000.81 58.108L1001.16 58.3708H1001.42H1001.66H1001.83H1002.3H1002.53L1002.71 58.5168L1002.97 58.7212L1003.23 58.9256L1003.5 59.13L1003.99 59.5096C1012.22 65.7266 1019.73 72.8257 1026.41 80.6796C1027.79 82.3189 1029.49 83.67 1031.39 84.6555C1033.29 85.641 1035.38 86.2417 1037.51 86.4233C1039.65 86.6049 1041.8 86.364 1043.84 85.7143C1045.88 85.0643 1047.78 84.0184 1049.42 82.636C1051.06 81.2537 1052.41 79.5619 1053.4 77.6574C1054.38 75.753 1054.98 73.6731 1055.16 71.5365C1055.34 69.3997 1055.1 67.2482 1054.45 65.2048C1053.8 63.1611 1052.76 61.2657 1051.37 59.6264L1054.27 62.6924ZM954.45 3.97124H954.041H953.837H953.632C942.886 1.98947 931.979 1.01192 921.051 1.05124C901.491 0.912675 882.048 4.07154 863.539 10.3952C859.843 11.6328 856.707 14.151 854.704 17.4957C852.702 20.8403 851.957 24.7912 852.608 28.6356C853.259 32.4801 855.265 35.9651 858.26 38.4617C861.253 40.9586 865.042 42.303 868.94 42.2524C870.782 42.2554 872.606 41.9391 874.34 41.318L875.567 40.9092H875.771H876.063H876.267H876.472H876.793H876.997H877.523H878.632H879.333H879.566H879.829H880.063H880.267H880.588H881.055H881.464H881.873H882.281C889.043 39.0223 895.93 37.6269 902.892 36.7336H903.447H904.002H905.199H905.666H905.87H906.221H930.686H931.678H932.028H933.255C937.429 37.084 941.575 37.6096 945.633 38.3396H946.304H946.83H948.202C950.31 38.7481 952.479 38.7371 954.584 38.3072C956.689 37.8774 958.686 37.0373 960.467 35.8349C962.247 34.6321 963.771 33.0909 964.957 31.2986C966.139 29.5063 966.959 27.4985 967.368 25.3895C967.777 23.2804 967.765 21.1116 967.336 19.0068C966.907 16.9021 966.066 14.9026 964.863 13.1225C963.66 11.3424 962.119 9.81661 960.329 8.6322C958.537 7.44782 956.528 6.62803 954.421 6.21967L954.45 3.97124Z" fill="white"/>
<path d="M924 68.5322C900.28 68.5594 877.175 76.0939 857.998 90.0564C838.82 104.019 824.552 123.694 817.236 146.263C826.529 149.47 835.36 153.877 843.511 159.373C848.092 142.086 858.123 126.736 872.113 115.598C886.103 104.461 903.31 98.1294 921.18 97.5427C939.053 96.9561 956.636 102.146 971.327 112.341C986.017 122.537 997.033 137.197 1002.74 154.147C1011.24 149.471 1020.31 145.89 1029.71 143.489C1021.99 121.603 1007.68 102.646 988.753 89.2239C969.823 75.8019 947.204 68.5734 924 68.5322Z" fill="white"/>
<path d="M1149.15 187.289C1135.19 167.959 1115.53 153.497 1092.92 145.942C1081.77 142.175 1070.09 140.203 1058.32 140.102H1057.36C1048.07 140.112 1038.81 141.269 1029.8 143.547C1020.4 145.949 1011.33 149.53 1002.82 154.205C990.096 161.22 978.83 170.606 969.631 181.858C967.5 182.179 965.368 182.558 963.266 183.026C952.117 178.254 939.882 176.6 927.865 178.241C915.849 179.881 904.504 184.755 895.039 192.34C887.752 189.678 880.144 187.989 872.414 187.318C858.681 168.322 839.407 154.042 817.236 146.438C806.312 142.621 794.853 140.542 783.283 140.277C782.378 140.277 781.503 140.277 780.598 140.277C770.091 140.204 759.622 141.609 749.506 144.452C747.141 145.153 744.835 145.912 742.528 146.73C723.123 153.712 705.974 165.821 692.898 181.77C684.916 182.982 677.13 185.25 669.747 188.515C654.548 195.15 641.387 205.712 631.619 219.117C629.838 219.117 628.057 219.117 626.306 219.35C610.29 220.612 595.12 227.06 583.098 237.717C575.864 244.146 569.972 251.942 565.763 260.656C561.553 269.37 559.106 278.83 558.563 288.494C558.02 298.155 559.392 307.832 562.601 316.963C565.809 326.094 570.793 334.501 577.259 341.698C584.114 349.401 592.513 355.577 601.908 359.829C611.3 364.077 621.483 366.308 631.794 366.372H1141.15C1164.24 366.393 1186.45 357.501 1203.14 341.547C1219.84 325.592 1229.73 303.806 1230.77 280.733C1231.8 257.66 1223.89 235.079 1208.68 217.697C1193.48 200.315 1172.15 189.475 1149.15 187.435V187.289ZM1141.15 337.172H631.794C620.049 337.149 608.792 332.459 600.504 324.137C592.215 315.813 587.571 304.536 587.594 292.788C587.617 281.04 592.306 269.783 600.626 261.492C608.95 253.201 620.225 248.556 631.969 248.58H635.035C639.186 248.876 643.276 249.76 647.18 251.208C651.746 239.144 659.867 228.755 670.474 221.417C681.08 214.08 693.666 210.141 706.561 210.123H708.604C717.153 195.86 729.741 184.458 744.776 177.361L746.849 176.397C757.178 171.859 768.321 169.465 779.605 169.36H780.598C796.363 169.386 811.801 173.849 825.148 182.241C838.493 190.632 849.207 202.612 856.065 216.81C870.175 214.81 884.535 217.917 896.557 225.57C898.548 226.81 900.449 228.186 902.25 229.687C904.542 224.429 907.993 219.758 912.349 216.026C916.701 212.294 921.845 209.598 927.392 208.139C932.939 206.68 938.743 206.498 944.369 207.606C949.998 208.713 955.299 211.081 959.88 214.532C967.359 211.564 975.335 210.048 983.381 210.065H985.425C991.016 200.749 998.352 192.599 1007.03 186.062C1021.56 175.162 1039.23 169.27 1057.39 169.272C1059.14 169.272 1060.86 169.272 1062.59 169.448C1073.5 170.093 1084.17 172.891 1094 177.682C1110.96 185.972 1124.64 199.721 1132.86 216.722C1140.94 215.843 1149.12 216.606 1156.91 218.966C1164.69 221.326 1171.92 225.233 1178.15 230.455C1184.39 235.676 1189.51 242.103 1193.2 249.351C1196.89 256.599 1199.09 264.518 1199.64 272.634C1200.2 280.749 1199.12 288.894 1196.45 296.579C1193.79 304.267 1189.6 311.333 1184.14 317.36C1178.67 323.387 1172.05 328.249 1164.66 331.654C1157.27 335.058 1149.28 336.936 1141.15 337.172Z" fill="white"/>
</g>
</svg>
