<svg width="1435" height="332" viewBox="0 0 1435 332" fill="none" xmlns="http://www.w3.org/2000/svg">
<path fill-rule="evenodd" clip-rule="evenodd" d="M300.087 82.1112C273.175 28.2927 220.623 0 158.479 0C70.9534 0 0 74.0133 0 165.314C0 256.614 70.9534 330.626 158.479 330.626C243.116 330.626 312.083 266.934 316.554 179.81C316.707 176.837 316.554 165.314 298.192 165.314C287.368 165.314 274.983 165.314 261.036 165.314C252.148 165.314 244.943 172.829 244.943 182.1V248.067C244.943 257.338 237.738 264.854 228.851 264.854H91.1697C82.2824 264.854 75.0775 257.338 75.0775 248.067V150.308C75.0775 146.092 73.5564 142.03 70.8166 138.93L67.9358 135.67C64.3308 131.591 64.5784 125.236 68.4885 121.475C68.6299 121.339 95.716 99.6224 149.748 56.3231C155.514 51.7033 163.533 51.6907 169.313 56.2923L225.274 100.847C252.937 100.864 274.722 100.864 290.627 100.847C293.15 100.844 305.124 92.1856 300.087 82.1112Z" fill="white"/>
<path d="M214.567 166H164.502V218.224H214.567V166Z" fill="#5CC3D6"/>
<path fill-rule="evenodd" clip-rule="evenodd" d="M463.8 190.536V167.592H520.617V221.842C515.095 227.416 507.096 232.324 496.617 236.566C486.138 240.808 475.526 242.929 464.78 242.929C451.125 242.929 439.222 239.941 429.07 233.964C418.917 227.988 411.288 219.442 406.183 208.326C401.077 197.21 398.524 185.118 398.524 172.051C398.524 157.869 401.374 145.267 407.073 134.242C412.773 123.219 421.114 114.766 432.098 108.883C440.469 104.362 450.888 102.102 463.355 102.102C479.563 102.102 492.223 105.647 501.337 112.738C510.45 119.829 516.312 129.629 518.925 142.139L492.743 147.248C490.903 140.56 487.445 135.28 482.368 131.41C477.292 127.539 470.955 125.604 463.355 125.604C451.838 125.604 442.68 129.413 435.883 137.03C429.084 144.647 425.686 155.949 425.686 170.936C425.686 187.099 429.129 199.222 436.016 207.304C442.902 215.386 451.926 219.427 463.088 219.427C468.61 219.427 474.146 218.297 479.696 216.036C485.247 213.776 490.012 211.036 493.99 207.815V190.536H463.8ZM606.999 240.607V225.836C603.555 231.1 599.029 235.25 593.418 238.285C587.808 241.319 581.886 242.836 575.652 242.836C569.299 242.836 563.6 241.381 558.553 238.47C553.507 235.56 549.856 231.472 547.6 226.208C545.344 220.944 544.216 213.668 544.216 204.378V141.953H569.24V187.285C569.24 201.158 569.7 209.657 570.621 212.785C571.541 215.912 573.218 218.39 575.652 220.216C578.086 222.043 581.173 222.957 584.914 222.957C589.188 222.957 593.018 221.734 596.402 219.288C599.785 216.842 602.101 213.807 603.348 210.184C604.595 206.561 605.218 197.689 605.218 183.569V141.953H630.242V240.607H606.999ZM710.925 209.208L735.86 213.575C732.654 223.111 727.592 230.373 720.676 235.358C713.759 240.344 705.107 242.836 694.717 242.836C678.271 242.836 666.1 237.231 658.205 226.022C651.971 217.042 648.854 205.71 648.854 192.023C648.854 175.674 652.951 162.87 661.144 153.611C669.336 144.353 679.696 139.724 692.223 139.724C706.294 139.724 717.396 144.569 725.529 154.261C733.663 163.953 737.552 178.801 737.195 198.804H674.501C674.68 206.545 676.698 212.568 680.558 216.872C684.416 221.177 689.225 223.328 694.984 223.328C698.902 223.328 702.197 222.213 704.869 219.984C707.54 217.755 709.559 214.163 710.925 209.208ZM712.35 182.827C712.171 175.271 710.301 169.527 706.739 165.595C703.177 161.662 698.843 159.696 693.737 159.696C688.275 159.696 683.763 161.77 680.201 165.919C676.639 170.069 674.887 175.704 674.947 182.827H712.35ZM748.772 212.46L773.886 208.465C774.954 213.543 777.121 217.399 780.386 220.03C783.652 222.662 788.223 223.979 794.101 223.979C800.572 223.979 805.44 222.74 808.705 220.263C810.902 218.529 812 216.207 812 213.296C812 211.314 811.407 209.673 810.219 208.372C808.973 207.134 806.182 205.989 801.848 204.935C781.663 200.291 768.869 196.048 763.467 192.209C755.985 186.883 752.245 179.482 752.245 170.007C752.245 161.461 755.481 154.277 761.953 148.455C768.423 142.635 778.457 139.724 792.053 139.724C804.995 139.724 814.613 141.922 820.905 146.319C827.199 150.716 831.537 157.219 833.909 165.826L810.309 170.379C809.299 166.539 807.385 163.597 804.565 161.554C801.744 159.51 797.722 158.488 792.497 158.488C785.908 158.488 781.188 159.448 778.338 161.368C776.439 162.731 775.488 164.495 775.488 166.663C775.488 168.521 776.319 170.1 777.982 171.401C780.238 173.135 788.03 175.581 801.359 178.739C814.687 181.898 823.993 185.768 829.277 190.351C834.498 194.996 837.111 201.467 837.111 209.766C837.111 218.808 833.494 226.58 826.249 233.082C819.006 239.585 808.29 242.836 794.101 242.836C781.217 242.836 771.021 240.111 763.51 234.662C756 229.212 751.088 221.811 748.772 212.46ZM902.391 141.953V162.761H885.295V202.52C885.295 210.571 885.453 215.262 885.785 216.593C886.108 217.925 886.847 219.024 888.008 219.891C889.169 220.758 890.579 221.192 892.238 221.192C894.553 221.192 897.904 220.356 902.3 218.683L904.44 238.935C898.617 241.536 892.031 242.836 884.665 242.836C880.153 242.836 876.088 242.046 872.472 240.468C868.847 238.888 866.193 236.845 864.5 234.336C862.808 231.828 861.63 228.438 860.983 224.165C860.444 221.13 860.179 214.999 860.179 205.771V162.761H848.691V141.953H860.179V122.353L885.295 107.118V141.953H902.391ZM921.005 240.607V104.424H978.886C990.523 104.424 999.366 105.647 1005.43 108.093C1011.48 110.539 1016.32 114.859 1019.94 121.052C1023.56 127.245 1025.37 134.088 1025.37 141.581C1025.37 151.243 1022.38 159.386 1016.38 166.012C1010.38 172.639 1001.12 176.851 988.591 178.647C993.169 180.937 996.637 183.198 999.017 185.428C1004.06 190.258 1008.84 196.296 1013.35 203.542L1036.06 240.607H1014.33L997.051 212.274C992.008 204.099 987.852 197.845 984.584 193.509C981.324 189.174 978.396 186.14 975.817 184.406C973.229 182.671 970.607 181.464 967.937 180.783C965.971 180.349 962.769 180.132 958.315 180.132H938.283V240.607H921.005ZM938.283 164.527H975.41C983.307 164.527 989.487 163.675 993.941 161.972C998.387 160.269 1001.77 157.544 1004.09 153.797C1006.41 150.051 1007.56 145.979 1007.56 141.581C1007.56 135.141 1005.32 129.846 1000.84 125.697C996.354 121.548 989.279 119.473 979.599 119.473H938.283V164.527ZM1115.14 208.837L1131.7 210.973C1129.09 221.068 1124.25 228.902 1117.18 234.476C1110.13 240.049 1101.1 242.836 1090.12 242.836C1076.28 242.836 1065.32 238.393 1057.21 229.506C1049.11 220.619 1045.05 208.156 1045.05 192.116C1045.05 175.518 1049.15 162.638 1057.35 153.472C1065.53 144.306 1076.17 139.724 1089.22 139.724C1101.87 139.724 1112.2 144.213 1120.21 153.193C1128.23 162.173 1132.24 174.806 1132.24 191.094C1132.24 192.085 1132.21 193.571 1132.15 195.553H1061.62C1062.22 206.391 1065.15 214.689 1070.44 220.449C1075.72 226.208 1082.31 229.087 1090.2 229.087C1096.08 229.087 1101.1 227.478 1105.26 224.258C1109.41 221.037 1112.71 215.897 1115.14 208.837ZM1062.51 181.805H1115.32C1114.61 173.506 1112.59 167.282 1109.26 163.133C1104.15 156.692 1097.53 153.472 1089.41 153.472C1082.04 153.472 1075.85 156.042 1070.83 161.182C1065.82 166.322 1063.04 173.196 1062.51 181.805ZM1213.55 228.438C1207.61 233.701 1201.89 237.417 1196.4 239.584C1190.91 241.752 1185.02 242.836 1178.72 242.836C1168.33 242.836 1160.35 240.189 1154.77 234.893C1149.19 229.599 1146.4 222.833 1146.4 214.596C1146.4 209.766 1147.45 205.354 1149.56 201.359C1151.67 197.365 1154.43 194.159 1157.84 191.744C1161.26 189.329 1165.1 187.502 1169.38 186.264C1172.52 185.396 1177.27 184.56 1183.62 183.755C1196.57 182.145 1206.1 180.225 1212.21 177.996C1212.27 175.704 1212.29 174.249 1212.29 173.63C1212.29 166.817 1210.78 162.018 1207.76 159.231C1203.66 155.454 1197.57 153.565 1189.5 153.565C1181.96 153.565 1176.39 154.943 1172.8 157.698C1169.21 160.455 1166.56 165.332 1164.83 172.33L1149.16 170.1C1150.58 163.102 1152.93 157.451 1156.2 153.147C1159.46 148.843 1164.17 145.53 1170.35 143.207C1176.53 140.885 1183.68 139.724 1191.81 139.724C1199.89 139.724 1206.45 140.715 1211.5 142.696C1216.54 144.678 1220.26 147.171 1222.63 150.174C1225 153.178 1226.67 156.971 1227.61 161.554C1228.14 164.402 1228.42 169.542 1228.42 176.974V199.269C1228.42 214.813 1228.76 224.644 1229.44 228.763C1230.12 232.881 1231.47 236.829 1233.49 240.607H1216.75C1215.09 237.138 1214.02 233.082 1213.55 228.438ZM1212.21 191.094C1206.39 193.571 1197.66 195.677 1186.02 197.411C1179.44 198.401 1174.78 199.516 1172.05 200.755C1169.32 201.994 1167.2 203.805 1165.72 206.189C1164.24 208.574 1163.49 211.221 1163.49 214.132C1163.49 218.59 1165.11 222.306 1168.35 225.279C1171.58 228.252 1176.32 229.738 1182.56 229.738C1188.73 229.738 1194.22 228.329 1199.03 225.512C1203.84 222.694 1207.37 218.839 1209.62 213.946C1211.35 210.168 1212.21 204.595 1212.21 197.225V191.094ZM1314.62 240.607V228.159C1308.62 237.944 1299.8 242.836 1288.17 242.836C1280.63 242.836 1273.7 240.668 1267.38 236.333C1261.05 231.998 1256.16 225.945 1252.68 218.173C1249.21 210.401 1247.47 201.467 1247.47 191.373C1247.47 181.526 1249.05 172.593 1252.19 164.573C1255.34 156.553 1260.06 150.407 1266.35 146.133C1272.65 141.86 1279.68 139.724 1287.46 139.724C1293.16 139.724 1298.24 140.978 1302.69 143.486C1307.14 145.994 1310.76 149.261 1313.55 153.286V104.424H1329.49V240.607H1314.62ZM1263.94 191.373C1263.94 204.006 1266.5 213.45 1271.61 219.705C1276.71 225.96 1282.74 229.087 1289.68 229.087C1296.69 229.087 1302.64 226.099 1307.54 220.123C1312.44 214.147 1314.88 205.028 1314.88 192.766C1314.88 179.266 1312.39 169.357 1307.41 163.04C1302.42 156.723 1296.28 153.565 1288.97 153.565C1281.84 153.565 1275.9 156.599 1271.12 162.668C1266.33 168.737 1263.94 178.306 1263.94 191.373ZM1353.98 278.6L1352.2 262.902C1355.7 263.892 1358.76 264.387 1361.38 264.387C1364.93 264.387 1367.79 263.768 1369.92 262.53C1372.06 261.291 1373.81 259.557 1375.18 257.327C1376.18 255.656 1377.82 251.507 1380.07 244.88C1380.37 243.951 1380.84 242.588 1381.5 240.792L1345.61 141.953H1362.89L1382.57 199.083C1385.12 206.329 1387.4 213.946 1389.43 221.935C1391.26 214.255 1393.46 206.762 1396.01 199.455L1416.23 141.953H1432.26L1396.28 242.279C1392.42 253.117 1389.43 260.579 1387.29 264.666C1384.43 270.178 1381.18 274.219 1377.49 276.789C1373.81 279.359 1369.42 280.644 1364.31 280.644C1361.23 280.644 1357.78 279.963 1353.98 278.6Z" fill="white"/>
</svg>
