<svg width="3111" height="209" viewBox="0 0 3111 209" fill="none" xmlns="http://www.w3.org/2000/svg">
<g clip-path="url(#clip0_917_2781)">
<path d="M0 204.109H79.4213V97.8298L158.995 204.109H198.705L278.278 97.8298V204.109H357.699V4.8916H258.423L178.85 104.5L99.4282 4.8916H0V204.109Z" fill="white"/>
<path d="M520.331 62.8478L548.219 121.694H492.291L520.331 62.8478ZM363.762 204.405H453.187L469.253 170.312H571.258L587.324 204.405H676.749L567.469 5.1875H473.042L363.762 204.405Z" fill="white"/>
<path d="M753.138 70.5561C753.138 54.6958 783.453 51.1383 808.16 51.1383C833.016 51.1383 854.086 54.844 863.178 70.5561H946.387C938.806 8.30068 879.545 0.44468 808.16 0C736.618 0 669.928 13.6369 669.928 70.5561C669.777 120.361 749.653 124.214 806.488 127.03C838.475 128.512 863.178 129.847 863.178 138.592C863.178 154.008 832.864 158.01 808.16 158.01C783.301 158.01 762.233 154.008 753.138 138.592H669.928C677.507 200.403 736.769 208.852 808.16 209C879.697 209 946.387 195.511 946.387 138.592C946.54 88.6401 866.667 84.7857 809.825 81.9698C777.844 80.4875 753.138 79.3014 753.138 70.5561Z" fill="white"/>
<path d="M1122.66 204.405V68.3322H1217.08V5.1875H948.815V68.3322H1043.24V204.405H1122.66Z" fill="white"/>
<path d="M1243.76 204.405H1482.18V153.266H1323.19V127.771H1482.18V81.6727H1323.19V56.1776H1482.18V5.1875H1243.76V204.405Z" fill="white"/>
<path d="M1524.46 5.0394V204.256H1603.89V155.638H1674.82L1713.16 204.256H1797.74L1753.33 148.375C1766.67 142.297 1777.43 133.108 1785.46 121.101C1793.65 108.947 1797.74 95.3093 1797.74 80.3387C1798.35 39.1316 1762.73 4.59472 1720.74 5.0394H1524.46ZM1700.74 63.2926C1710.44 63.2926 1718.17 70.8521 1718.17 80.3387C1718.17 84.9341 1716.5 88.9356 1713.02 92.3447C1709.68 95.6059 1705.59 97.2369 1700.74 97.2369H1603.89V63.2926H1700.74Z" fill="white"/>
<path d="M1901.87 156.973V130.292H2008.73C2015.54 130.292 2021.15 136.962 2021.15 143.632C2021.15 150.303 2015.54 156.973 2008.73 156.973H1901.87ZM1993.87 52.4728C2000.69 52.4728 2006.3 59.143 2006.3 65.8132C2006.3 72.4834 2000.69 79.3019 1993.87 79.3019H1901.87V52.4728H1993.87ZM2057.22 101.388C2071.77 92.3455 2080.87 77.6713 2080.87 58.5501C2081.32 23.8649 2051.47 5.04014 2016.15 5.18837H1822.45V204.406H2031.15C2066.17 204.406 2096.18 185.729 2095.72 150.895C2095.72 125.845 2080.26 108.651 2057.22 101.388Z" fill="white"/>
<path d="M2117.1 4.8916V204.109H2355.51V140.964H2196.52V4.8916H2117.1Z" fill="white"/>
<path d="M2500.87 0C2424.17 0.148227 2361.42 21.7894 2361.72 97.2373V111.763C2361.42 187.062 2424.17 208.852 2500.87 209C2577.4 208.852 2640.15 187.062 2639.85 111.763V97.2373C2639.85 21.9376 2577.56 0 2500.87 0ZM2560.43 106.871C2560.88 139.482 2533.3 145.411 2500.87 145.855C2468.28 145.411 2440.69 139.482 2441.15 106.871V101.98C2440.69 69.5185 2468.28 63.5894 2500.87 63.1447C2533.3 63.5894 2560.88 69.5185 2560.43 101.98V106.871Z" fill="white"/>
<path d="M2772.62 63.2925L2715.49 5.1875H2616.05L2722.91 104.796L2616.05 204.405H2715.49L2772.62 146.152L2829.76 204.405H2929.04L2822.18 104.796L2929.04 5.1875H2829.76L2772.62 63.2925Z" fill="white"/>
<path d="M2966.14 6.74609H3024.77V12.7238H2999.26V80.9514H2991.65V12.7238H2966.14V6.74609Z" fill="white"/>
<path d="M3035.25 80.9514V6.74609H3046.89L3073.29 72.1914H3073.52L3099.47 6.74609H3111V80.9514H3103.4V14.785H3103.17L3076.76 80.9514H3069.6L3043.08 14.785H3042.86V80.9514H3035.25Z" fill="white"/>
</g>
<defs>
<clipPath id="clip0_917_2781">
<rect width="3111" height="209" fill="white"/>
</clipPath>
</defs>
</svg>
