<svg width="1288" height="591" viewBox="0 0 1288 591" fill="none" xmlns="http://www.w3.org/2000/svg">
<path fill-rule="evenodd" clip-rule="evenodd" d="M53.9445 415.748C30.7829 411.534 23.6429 408.35 23.6429 401.123C23.6429 394.898 32.5129 390.053 44.9617 390.053C55.9928 390.053 66.8938 393.311 77.8179 399.528L88.0361 386.545C76.0097 379.457 62.4096 375.629 45.3435 375.629C21.2532 375.629 5.63081 386.452 5.63081 402.557C5.63081 417.147 18.5193 425.513 44.2818 430.25C66.7347 434.209 73.2527 437.763 73.2527 444.508C73.2527 451.635 63.2601 456.235 50.146 456.235C35.1456 456.235 23.5069 451.89 11.9608 444.26L0.365479 456.667C14.6455 465.994 31.6855 470.601 49.6252 470.601C75.0782 470.601 91.2734 460.334 91.2734 442.936C91.2734 429.599 79.5393 420.488 53.9445 415.748Z" fill="white"/>
<path fill-rule="evenodd" clip-rule="evenodd" d="M517.424 434.809C534.457 432.363 546.542 423.733 546.542 406.918C546.542 387.862 531.379 375.629 507.345 375.629H446.641V386.11L460.031 387.962V456.495L446.641 458.342V468.791H491.562V458.342L478.128 456.495V435.69H497.551C507.386 449.273 519.104 464.459 533.927 475.072C555.719 490.664 577.977 485.188 589.201 481.338V469.162C558.75 479.741 539.688 465.146 517.424 434.809ZM478.128 390.553H505.872C519.425 390.553 528.124 396.26 528.124 407.307C528.124 417.292 519.547 424.101 505.872 424.101H478.128V390.553Z" fill="white"/>
<path fill-rule="evenodd" clip-rule="evenodd" d="M192.36 470.601C160.783 470.601 138.793 449.21 138.793 423.247C138.793 397.282 161.146 375.629 192.679 375.629C224.252 375.629 246.23 397.034 246.23 422.967C246.23 448.974 223.936 470.601 192.36 470.601ZM192.36 390.468C171.982 390.468 157.698 405.024 157.698 422.967C157.698 440.942 172.24 455.755 192.679 455.755C213.073 455.755 227.32 441.216 227.32 423.247C227.32 405.284 212.792 390.468 192.36 390.468Z" fill="white"/>
<path fill-rule="evenodd" clip-rule="evenodd" d="M347.624 417.744V429.183H373.554V448.976C367.36 453.174 358.63 455.931 349.077 455.931C328.309 455.931 314.555 441.999 314.555 422.973C314.555 405.154 328.782 390.473 347.495 390.473C360.393 390.473 368.077 394.274 375.895 400.298L387.216 388.102C376.804 380.124 365.881 375.629 348.18 375.629C317.593 375.629 295.816 397.427 295.816 423.245C295.816 450.111 316.713 470.601 348.501 470.601C366.509 470.601 380.862 464.064 390.856 456.322V417.744H347.624Z" fill="white"/>
<path fill-rule="evenodd" clip-rule="evenodd" d="M713.992 456.788L674.339 375.629H657.52L617.855 456.704L605.73 458.374V468.739H647.449V458.374L636.278 456.85L643.978 440.648H687.306L694.942 456.704L682.775 458.374V468.739H725.563V458.374L713.992 456.788ZM649.437 429.14L665.617 395.062L681.783 429.14H649.437Z" fill="white"/>
<path fill-rule="evenodd" clip-rule="evenodd" d="M986.027 441.592L983.946 453.463H938.604V427.739H977.403V416.33H938.604V390.621H983.194L985.251 402.483H996.829V376.218H907.156V386.525L920.497 388.348V455.737L907.156 457.552V467.825H997.576V441.592H986.027Z" fill="white"/>
<path fill-rule="evenodd" clip-rule="evenodd" d="M825.017 375.629H768.951V386.104L782.226 387.955V456.45L768.951 458.295V468.739H813.632V458.295L800.301 456.45V435.656H822.914C845.571 435.656 863.991 427.93 863.991 406.9C863.991 387.855 848.888 375.629 825.017 375.629ZM823.488 424.074H800.301V390.544H823.488C837.054 390.544 845.713 396.249 845.713 407.29C845.713 417.268 837.179 424.074 823.488 424.074Z" fill="white"/>
<path fill-rule="evenodd" clip-rule="evenodd" d="M926.852 193.259C933.451 230.294 885.952 231.975 870.48 226.45C883.221 218.738 878.954 212.863 886.195 206.519C894.772 198.961 883.635 195.746 880.354 200.652C870.654 215.181 834.819 217.981 813.501 187.444C828 187.65 827.179 180.755 840.891 180.993C847.791 181.136 848.584 172.073 838.152 173.526C825.012 175.387 803.416 163.048 803.416 130.776C821.983 146.393 829.609 134.539 846.382 137.331C859.878 139.581 859.082 143.548 864.509 146.747C869.283 149.553 874.713 143.164 867.637 139.56C853.085 132.12 857.297 120.825 859.834 110.939C870.353 126.877 922.964 100.528 909.497 142.744C907.264 149.835 915.471 152.262 916.041 145.641C917.164 132.287 932.739 132.3 931.044 118.291C948.057 124.241 965.175 171.671 928.249 177.104C921.969 174.15 909.153 166.793 888.926 169.961C906.246 172.088 921.217 180.51 928.834 185.32C946.495 197.15 963.005 212.062 993.167 216.199C960.121 217.217 945.17 201.788 925.918 188.963C926.262 190.37 926.603 191.844 926.852 193.259ZM811.433 109.879C807.047 100.116 808.664 93.516 810.061 92.5138C820.921 116.842 837.819 125.47 847.672 127.592C825.261 114.963 809.807 91.8901 807.273 72.8727C810.4 79.2301 814.14 85.9737 817.667 89.155C824.523 91.8901 828.62 100.197 829.534 104.594C836.54 104.594 851.558 97.4672 847.157 83.5231C847.157 83.5231 841.279 83.6067 836.743 83.5231C832.082 83.4501 832.103 79.6946 835.754 79.1466C846.177 77.5807 856.672 61.956 834.376 50.4286C829.707 60.0587 825.333 56.3345 822.287 63.3757C820.106 68.3943 814.722 66.1995 817.302 62.0813C819.001 59.3619 821.966 55.9457 819.866 52.3311C817.488 48.2155 801.478 42.521 798.793 39.4519C791.683 45.1647 782.784 57.1201 784.91 62.9999C785.928 65.8211 787.488 66.4578 791.521 68.2742C797.656 71.0067 792.848 75.5894 789.354 72.1628C784.048 66.985 777.177 70.8814 773.026 63.9942C757.861 80.9238 774.039 100.701 785.983 92.3468C788.946 90.2694 791.521 92.8557 789.863 95.4889C787.658 98.9391 782.619 104.644 782.619 104.644C786.964 112.04 803.795 116.109 811.433 109.879ZM1011.58 90.6844C995.58 81.4197 967.55 70.2733 937.594 70.2733C934.189 70.2733 931.001 70.3203 927.943 70.3829C920.974 100.124 874.082 97.1957 877.432 81.4875C879.093 73.6974 888.472 64.8685 919.085 62.6606C917.236 -14.0327 770.295 52.0519 746.127 0C782.434 43.9146 928.177 -21.9273 928.808 62.1909C932.54 62.11 936.5 62.0943 940.747 62.1909C967.183 62.7467 986.797 68.8771 1003.21 76.3593C999.028 69.3051 996.369 63.1982 994.851 57.9683C993.349 58.0152 991.764 57.9343 990.089 57.689C971.988 55.0792 966.32 35.8165 969.135 26.1316C970.324 34.6421 975.566 49.9615 990.566 51.0941C991.57 51.175 992.519 51.1959 993.445 51.1907C991.347 33.8148 1003.72 28.5222 1007.94 28.9893C1018.67 30.1637 1016.49 51.6735 1001.11 56.8539C1003.77 63.6158 1008.87 71.6539 1017.62 80.8873C1014.8 83.5858 1012.69 86.9185 1011.58 90.6844ZM999.21 50.4678C1009.74 47.7119 1011.42 37.86 1010.71 33.2929C1009.71 26.9355 995.837 33.2302 999.21 50.4678ZM918.24 70.7066C889.797 72.1289 880.739 76.9361 881.844 83.5231C883.096 90.9897 912.816 91.9736 918.24 70.7066ZM1086.69 136.366C1086.06 139.918 1088.73 143.266 1092.69 143.872C1096.63 144.433 1100.36 142.034 1100.98 138.461C1101.63 134.92 1098.96 131.561 1095.01 130.982C1091.08 130.408 1087.34 132.798 1086.69 136.366ZM1077.74 117.539C1077.04 121.433 1079.99 125.118 1084.3 125.765C1088.61 126.407 1092.73 123.753 1093.42 119.833C1094.14 115.926 1091.22 112.257 1086.86 111.607C1082.55 110.994 1078.46 113.627 1077.74 117.539ZM1069.19 141.755C1074.06 142.507 1078.65 139.49 1079.45 135.124C1080.28 130.729 1076.97 126.579 1072.09 125.869C1067.21 125.152 1062.63 128.116 1061.85 132.527C1061.04 136.922 1064.36 141.04 1069.19 141.755ZM1068.44 113.83C1069.31 109.235 1065.84 104.887 1060.77 104.135C1055.66 103.391 1050.88 106.533 1050.05 111.108C1049.21 115.699 1052.65 120.05 1057.75 120.793C1062.83 121.553 1067.66 118.429 1068.44 113.83ZM1073.98 105.646C1078.61 106.322 1082.94 103.498 1083.7 99.3618C1084.44 95.1888 1081.32 91.2559 1076.73 90.5852C1072.09 89.9171 1067.76 92.7539 1067.04 96.8956C1066.25 101.011 1069.37 104.965 1073.98 105.646ZM1034.25 107.251C1040.78 108.217 1046.93 104.253 1048.04 98.3179C1049.09 92.4381 1044.67 86.9028 1038.19 85.8902C1031.61 84.9768 1025.44 88.9619 1024.38 94.8313C1023.28 100.719 1027.75 106.273 1034.25 107.251ZM1058.52 89.1968C1064.33 88.8288 1068.65 84.2878 1068.24 79.097C1067.83 73.8618 1062.84 69.9314 1057.05 70.2942C1051.27 70.6491 1046.89 75.1849 1047.33 80.4201C1047.75 85.6397 1052.76 89.5726 1058.52 89.1968ZM1044.09 119.979C1038.32 119.126 1032.89 122.646 1031.91 127.908C1030.96 133.067 1034.87 138.031 1040.67 138.889C1046.44 139.751 1051.91 136.199 1052.86 130.982C1053.8 125.752 1049.9 120.838 1044.09 119.979ZM1012.32 105.14C1005.12 105.62 999.719 111.239 1000.23 117.727C1000.79 124.186 1006.97 129.064 1014.16 128.633C1021.36 128.163 1026.75 122.524 1026.24 116.038C1025.76 109.587 1019.52 104.707 1012.32 105.14ZM1280.2 334.239C1260.85 365.499 1229.49 384.599 1223.68 389.224C1206.86 402.636 1206.38 413.116 1205.53 421.844C1205.97 421.632 1206.42 421.405 1206.86 421.191C1219.69 415.17 1230.78 421.935 1229.93 434.117C1229.16 445.031 1219.11 446.3 1220.61 452.279C1221.93 457.446 1221.4 460.28 1220.79 463.279C1220.07 466.695 1217.66 468.645 1218.25 472.343C1218.87 476.276 1219.37 478.509 1219.25 481.307C1218.89 488.855 1212.79 492.14 1213.27 495.517C1213.61 498.07 1214.46 500.006 1213.55 505.956C1212.34 513.888 1207.54 518.442 1199.62 521.78C1199.39 521.871 1199.17 521.97 1198.94 522.072C1198.54 528.69 1198.27 532.983 1198.24 533.497C1197.48 545.706 1197.12 551.265 1178.57 551.265C1173.9 551.265 1170.4 550.892 1167.73 550.195C1162.61 554.423 1153.75 559.833 1149.8 561.92C1144.35 564.781 1142.93 564.562 1137.32 567.132C1131.88 569.638 1128.49 574.607 1125.05 578.936C1123.73 580.565 1122.71 582.277 1121.33 583.889C1119.76 585.716 1117.98 588.673 1115.68 589.621C1112.88 590.769 1108.83 590.328 1106.04 589.54C1098.71 587.494 1089.06 580.964 1083.27 576.561C1074.81 570.105 1068.85 563.259 1066.71 557.784C1064.49 552.149 1068.7 547.822 1072.2 544.378C1075.49 541.121 1082.04 534.763 1086.09 526.146C1098.32 499.925 1093.21 473.624 1108.53 453.44C1116.49 442.944 1123.18 436.025 1131.72 427.742C1136.8 422.809 1141.71 419.526 1149.74 417.081C1150.13 416.955 1150.53 416.822 1150.92 416.697C1149.68 408.675 1146.5 399.102 1133.43 389.224C1123.69 381.877 1111.18 373.604 1100.28 362.68C1071.17 333.618 1056.83 310.892 1039.72 315.441C1039.72 308.681 1048.19 303.146 1061.55 303.146C1075.99 303.146 1079.91 313.867 1088.86 313.987C1095.13 314.193 1098.18 309.24 1098.18 305.604C1098.18 285.188 1062.24 291.598 1032.37 292.224C980.386 293.349 945.422 262.175 937.594 234.765C960.234 240.676 983.262 224.62 1001.83 224.466C1020.4 224.305 1037.2 234.718 1044.45 236.346C1060 239.859 1065.72 222.567 1045.64 220.228C959.719 210.256 958.819 163.424 984.158 135.883C1023.83 178.801 1101.92 129.776 1115.59 211.248C1117.85 224.691 1135.62 221.452 1134.63 211.637C1133.04 195.751 1114.57 190.957 1114.57 164.129C1114.57 155.54 1122.28 142.955 1139.16 132.24C1143.81 159.055 1258.89 175.288 1205.73 226.549C1189.99 241.722 1218.74 252.746 1221.42 232.39C1222.87 221.371 1236.99 208.458 1265.25 207.905C1258.47 222.921 1273.19 243.674 1273.19 260.792C1273.19 286.892 1261.49 292.13 1261.49 305.795C1261.49 319 1283.92 316.471 1279.24 300.152C1286.27 302.754 1293.05 313.454 1280.2 334.239ZM1191.55 531.778C1191.48 530.749 1190.36 529.304 1187.19 529.15C1185.68 529.079 1178.55 528.515 1171.43 529.032C1165.66 529.45 1161.3 530.384 1158.49 531.146C1158.38 529.426 1158.29 527.798 1158.2 526.461C1158.18 526.086 1157.78 518.554 1157.48 513.794C1157.32 510.813 1154.76 510.654 1153.35 512.215C1151.51 514.237 1143.98 524.308 1124.21 534.319C1120.35 536.272 1116.41 536.238 1117.46 533.938C1118.55 531.53 1134.53 517.828 1137.07 496.475C1139.03 479.992 1133.24 465.492 1134.46 461.071C1135.98 455.588 1140.7 454.922 1144.18 450.272C1147.45 445.895 1148.04 440.866 1149.6 439.739C1151.32 438.486 1156.86 439.454 1164.35 436.722C1173.37 433.439 1184.43 423.002 1184.43 413.871C1184.43 411.511 1182.55 409.588 1179.63 411.41C1163.44 421.525 1146.21 424.709 1142.18 428.029C1132.05 436.38 1118.98 452.728 1115.73 457.689C1111.18 464.659 1106.31 475.913 1104.22 486.292C1100.39 505.301 1098.07 528.842 1082.78 544.357C1077.77 549.438 1075.18 552.116 1075.79 556.124C1077.48 567.174 1097.91 578.443 1103.85 580.507C1115.13 584.435 1122.45 572.472 1123.06 568.442C1123.99 562.479 1121.44 559.496 1123.32 557.985C1124.31 557.176 1126.35 557.411 1127.53 557.706C1134.21 559.305 1140.94 557.178 1146.79 554.321C1150.94 552.29 1159.51 546.39 1160.58 544.74C1159.76 543.078 1159.26 540.103 1158.94 536.861C1161.74 536.092 1166.13 535.147 1171.94 534.727C1179.14 534.194 1186.63 534.747 1187.71 534.854C1191.17 535.168 1191.66 532.848 1191.55 531.778ZM1204.96 503.357C1205.12 499.604 1202.8 497.605 1197.87 498.947C1196.14 499.424 1176.43 507.713 1174.41 508.519C1171.48 509.691 1167.98 511.873 1168.57 515.07C1169.03 517.403 1171.8 518.486 1174.17 518.517C1177.53 518.554 1190.03 516.218 1193.81 515.041C1198.22 513.653 1204.56 512.883 1204.96 503.357ZM1210.21 479.734C1209.84 475.464 1205.53 474.822 1201.37 475.764C1192.08 477.813 1172.96 486.02 1170.65 487.041C1164.49 489.805 1161.03 492.422 1160.34 494.312C1159.13 497.637 1161.13 500.082 1163.91 500.745C1167.36 501.567 1172.49 500.205 1179.05 498.247C1181.45 497.53 1195.4 493.542 1198.33 492.558C1205.91 490.034 1210.97 489.306 1210.21 479.734ZM1208.62 455.541C1201.98 458.161 1195.69 459.891 1188.44 460.22C1186.89 460.285 1185.32 459.844 1183.77 460.009C1182.36 460.168 1174.81 463.814 1170.11 466.554C1162.3 471.119 1166.96 478.729 1173.77 477.079C1180.1 475.55 1196.06 471.059 1198.48 470.346C1206.49 467.982 1211.27 466.664 1213.26 461.781C1214.7 458.315 1213.51 453.604 1208.62 455.541ZM1186.05 445.441C1184.4 448.322 1184.87 451.919 1190.62 451.919C1198.92 451.919 1221.38 440.603 1222.45 433.65C1223.05 429.576 1219.38 426.813 1215.12 426.922C1208.49 427.107 1189.07 440.232 1186.05 445.441Z" fill="white"/>
</svg>
