<svg width="1289" height="592" viewBox="0 0 1289 592" fill="none" xmlns="http://www.w3.org/2000/svg">
<path fill-rule="evenodd" clip-rule="evenodd" d="M54.9445 415.748C31.7829 411.534 24.6429 408.35 24.6429 401.123C24.6429 394.898 33.5129 390.053 45.9617 390.053C56.9928 390.053 67.8938 393.311 78.8179 399.528L89.0361 386.545C77.0097 379.457 63.4096 375.629 46.3435 375.629C22.2532 375.629 6.63081 386.452 6.63081 402.557C6.63081 417.147 19.5193 425.513 45.2818 430.25C67.7347 434.209 74.2527 437.763 74.2527 444.508C74.2527 451.635 64.2601 456.235 51.146 456.235C36.1456 456.235 24.5069 451.89 12.9608 444.26L1.36548 456.667C15.6455 465.994 32.6855 470.601 50.6252 470.601C76.0782 470.601 92.2734 460.334 92.2734 442.936C92.2734 429.599 80.5393 420.488 54.9445 415.748Z" fill="white"/>
<path fill-rule="evenodd" clip-rule="evenodd" d="M518.424 434.809C535.457 432.363 547.542 423.733 547.542 406.918C547.542 387.862 532.379 375.629 508.345 375.629H447.641V386.11L461.031 387.962V456.495L447.641 458.342V468.791H492.562V458.342L479.128 456.495V435.69H498.551C508.386 449.273 520.104 464.459 534.927 475.072C556.719 490.664 578.977 485.188 590.201 481.338V469.162C559.75 479.741 540.689 465.146 518.424 434.809ZM479.128 390.553H506.872C520.425 390.553 529.124 396.26 529.124 407.307C529.124 417.292 520.547 424.101 506.872 424.101H479.128V390.553Z" fill="white"/>
<path fill-rule="evenodd" clip-rule="evenodd" d="M193.36 470.601C161.783 470.601 139.793 449.21 139.793 423.247C139.793 397.282 162.146 375.629 193.679 375.629C225.252 375.629 247.23 397.034 247.23 422.967C247.23 448.974 224.936 470.601 193.36 470.601ZM193.36 390.468C172.982 390.468 158.698 405.024 158.698 422.967C158.698 440.942 173.24 455.755 193.679 455.755C214.073 455.755 228.32 441.216 228.32 423.247C228.32 405.284 213.792 390.468 193.36 390.468Z" fill="white"/>
<path fill-rule="evenodd" clip-rule="evenodd" d="M348.624 417.744V429.183H374.554V448.976C368.36 453.174 359.63 455.931 350.077 455.931C329.309 455.931 315.555 441.999 315.555 422.973C315.555 405.154 329.782 390.473 348.495 390.473C361.393 390.473 369.077 394.274 376.895 400.298L388.216 388.102C377.804 380.124 366.881 375.629 349.18 375.629C318.593 375.629 296.816 397.427 296.816 423.245C296.816 450.111 317.713 470.601 349.501 470.601C367.509 470.601 381.862 464.064 391.856 456.322V417.744H348.624Z" fill="white"/>
<path fill-rule="evenodd" clip-rule="evenodd" d="M714.992 456.788L675.339 375.629H658.52L618.856 456.704L606.73 458.374V468.739H648.449V458.374L637.278 456.85L644.978 440.648H688.306L695.942 456.704L683.775 458.374V468.739H726.563V458.374L714.992 456.788ZM650.437 429.14L666.617 395.062L682.783 429.14H650.437Z" fill="white"/>
<mask id="mask0_917_2741" style="mask-type:luminance" maskUnits="userSpaceOnUse" x="908" y="376" width="91" height="92">
<path d="M908.156 376.218H998.575V467.825H908.156V376.218Z" fill="black"/>
</mask>
<g mask="url(#mask0_917_2741)">
<path fill-rule="evenodd" clip-rule="evenodd" d="M987.027 441.592L984.946 453.463H939.604V427.739H978.403V416.33H939.604V390.621H984.194L986.251 402.483H997.829V376.218H908.156V386.525L921.497 388.348V455.737L908.156 457.552V467.825H998.576V441.592H987.027Z" fill="white"/>
</g>
<path fill-rule="evenodd" clip-rule="evenodd" d="M826.017 375.629H769.951V386.104L783.226 387.955V456.45L769.951 458.295V468.739H814.632V458.295L801.301 456.45V435.656H823.914C846.571 435.656 864.991 427.93 864.991 406.9C864.991 387.855 849.888 375.629 826.017 375.629ZM824.489 424.074H801.301V390.544H824.489C838.054 390.544 846.713 396.249 846.713 407.29C846.713 417.268 838.179 424.074 824.489 424.074Z" fill="white"/>
<path fill-rule="evenodd" clip-rule="evenodd" d="M927.852 193.259C934.451 230.294 886.952 231.975 871.48 226.45C884.221 218.738 879.954 212.863 887.195 206.519C895.772 198.961 884.635 195.746 881.354 200.652C871.654 215.181 835.819 217.981 814.501 187.444C829.001 187.65 828.179 180.755 841.891 180.993C848.791 181.136 849.584 172.073 839.152 173.526C826.012 175.387 804.416 163.048 804.416 130.776C822.983 146.393 830.609 134.539 847.382 137.331C860.878 139.581 860.082 143.548 865.509 146.747C870.283 149.553 875.713 143.164 868.637 139.56C854.085 132.12 858.297 120.825 860.834 110.939C871.353 126.877 923.964 100.528 910.497 142.744C908.264 149.835 916.471 152.262 917.041 145.641C918.164 132.287 933.739 132.3 932.044 118.291C949.057 124.241 966.175 171.671 929.249 177.104C922.969 174.15 910.153 166.793 889.926 169.961C907.246 172.088 922.217 180.51 929.834 185.32C947.495 197.15 964.005 212.062 994.167 216.199C961.121 217.217 946.17 201.788 926.918 188.963C927.262 190.37 927.603 191.844 927.852 193.259ZM812.433 109.879C808.047 100.116 809.664 93.516 811.061 92.5138C821.922 116.842 838.819 125.47 848.673 127.592C826.261 114.963 810.807 91.8901 808.273 72.8727C811.4 79.2301 815.14 85.9737 818.667 89.155C825.523 91.8901 829.62 100.197 830.534 104.594C837.54 104.594 852.558 97.4672 848.158 83.5231C848.158 83.5231 842.279 83.6067 837.743 83.5231C833.082 83.4501 833.103 79.6946 836.754 79.1466C847.177 77.5807 857.672 61.956 835.377 50.4286C830.707 60.0587 826.333 56.3345 823.287 63.3757C821.106 68.3943 815.722 66.1995 818.302 62.0813C820.001 59.3619 822.966 55.9457 820.866 52.3311C818.488 48.2155 802.478 42.521 799.793 39.4519C792.683 45.1647 783.784 57.1201 785.91 62.9999C786.929 65.8211 788.488 66.4578 792.521 68.2742C798.657 71.0067 793.848 75.5894 790.354 72.1628C785.048 66.985 778.177 70.8814 774.026 63.9942C758.861 80.9238 775.039 100.701 786.984 92.3468C789.946 90.2694 792.521 92.8557 790.863 95.4889C788.658 98.9391 783.619 104.644 783.619 104.644C787.964 112.04 804.795 116.109 812.433 109.879ZM1012.58 90.6844C996.58 81.4197 968.55 70.2733 938.594 70.2733C935.189 70.2733 932.001 70.3203 928.943 70.3829C921.974 100.124 875.082 97.1957 878.432 81.4875C880.093 73.6974 889.472 64.8685 920.085 62.6606C918.236 -14.0327 771.295 52.0519 747.128 0C783.434 43.9146 929.177 -21.9273 929.808 62.1909C933.54 62.11 937.5 62.0943 941.747 62.1909C968.183 62.7467 987.797 68.8771 1004.21 76.3593C1000.03 69.3051 997.369 63.1982 995.851 57.9683C994.349 58.0152 992.764 57.9343 991.089 57.689C972.988 55.0792 967.321 35.8165 970.135 26.1316C971.324 34.6421 976.566 49.9615 991.566 51.0941C992.57 51.175 993.519 51.1959 994.445 51.1907C992.347 33.8148 1004.72 28.5222 1008.94 28.9893C1019.67 30.1637 1017.49 51.6735 1002.11 56.8539C1004.77 63.6158 1009.87 71.6539 1018.62 80.8873C1015.8 83.5858 1013.69 86.9185 1012.58 90.6844ZM1000.21 50.4678C1010.74 47.7119 1012.42 37.86 1011.71 33.2929C1010.71 26.9355 996.837 33.2302 1000.21 50.4678ZM919.24 70.7066C890.797 72.1289 881.739 76.9361 882.844 83.5231C884.097 90.9897 913.816 91.9736 919.24 70.7066ZM1087.69 136.366C1087.06 139.918 1089.73 143.266 1093.69 143.872C1097.63 144.433 1101.36 142.034 1101.98 138.461C1102.63 134.92 1099.96 131.561 1096.01 130.982C1092.08 130.408 1088.34 132.798 1087.69 136.366ZM1078.74 117.539C1078.04 121.433 1080.99 125.118 1085.3 125.765C1089.61 126.407 1093.73 123.753 1094.42 119.833C1095.14 115.926 1092.22 112.257 1087.86 111.607C1083.55 110.994 1079.46 113.627 1078.74 117.539ZM1070.19 141.755C1075.06 142.507 1079.65 139.49 1080.45 135.124C1081.28 130.729 1077.97 126.579 1073.09 125.869C1068.21 125.152 1063.63 128.116 1062.85 132.527C1062.04 136.922 1065.36 141.04 1070.19 141.755ZM1069.44 113.83C1070.31 109.235 1066.84 104.887 1061.77 104.135C1056.66 103.391 1051.88 106.533 1051.05 111.108C1050.21 115.699 1053.65 120.05 1058.75 120.793C1063.83 121.553 1068.66 118.429 1069.44 113.83ZM1074.98 105.646C1079.61 106.322 1083.94 103.498 1084.7 99.3618C1085.44 95.1888 1082.32 91.2559 1077.73 90.5852C1073.1 89.9171 1068.76 92.7539 1068.04 96.8956C1067.25 101.011 1070.37 104.965 1074.98 105.646ZM1035.25 107.251C1041.78 108.217 1047.93 104.253 1049.04 98.3179C1050.09 92.4381 1045.67 86.9028 1039.19 85.8902C1032.61 84.9768 1026.44 88.9619 1025.38 94.8313C1024.28 100.719 1028.75 106.273 1035.25 107.251ZM1059.52 89.1968C1065.33 88.8288 1069.65 84.2878 1069.24 79.097C1068.83 73.8618 1063.84 69.9314 1058.05 70.2942C1052.27 70.6491 1047.89 75.1849 1048.33 80.4201C1048.75 85.6397 1053.76 89.5726 1059.52 89.1968ZM1045.09 119.979C1039.32 119.126 1033.89 122.646 1032.91 127.908C1031.96 133.067 1035.87 138.031 1041.67 138.889C1047.44 139.751 1052.91 136.199 1053.86 130.982C1054.8 125.752 1050.9 120.838 1045.09 119.979ZM1013.32 105.14C1006.12 105.62 1000.72 111.239 1001.23 117.727C1001.79 124.186 1007.97 129.064 1015.16 128.633C1022.36 128.163 1027.75 122.524 1027.24 116.038C1026.76 109.587 1020.52 104.707 1013.32 105.14ZM1281.2 334.239C1261.85 365.499 1230.49 384.599 1224.68 389.224C1207.86 402.636 1207.38 413.116 1206.53 421.844C1206.97 421.632 1207.42 421.405 1207.86 421.191C1220.69 415.17 1231.78 421.935 1230.93 434.117C1230.16 445.031 1220.11 446.3 1221.61 452.279C1222.93 457.446 1222.4 460.28 1221.79 463.279C1221.07 466.695 1218.66 468.645 1219.25 472.343C1219.87 476.276 1220.37 478.509 1220.25 481.307C1219.89 488.855 1213.79 492.14 1214.27 495.517C1214.61 498.07 1215.46 500.006 1214.55 505.956C1213.34 513.888 1208.54 518.442 1200.62 521.78C1200.39 521.871 1200.17 521.97 1199.94 522.072C1199.54 528.69 1199.27 532.983 1199.24 533.497C1198.48 545.706 1198.12 551.265 1179.57 551.265C1174.9 551.265 1171.4 550.892 1168.73 550.195C1163.61 554.423 1154.75 559.833 1150.8 561.92C1145.35 564.781 1143.93 564.562 1138.32 567.132C1132.88 569.638 1129.49 574.607 1126.05 578.936C1124.73 580.565 1123.71 582.277 1122.33 583.889C1120.76 585.716 1118.98 588.673 1116.68 589.621C1113.88 590.769 1109.83 590.328 1107.04 589.54C1099.71 587.494 1090.06 580.964 1084.27 576.561C1075.81 570.105 1069.85 563.259 1067.71 557.784C1065.49 552.149 1069.7 547.822 1073.2 544.378C1076.49 541.121 1083.04 534.763 1087.09 526.146C1099.32 499.925 1094.21 473.624 1109.53 453.44C1117.49 442.944 1124.18 436.025 1132.72 427.742C1137.8 422.809 1142.71 419.526 1150.74 417.081C1151.13 416.955 1151.53 416.822 1151.92 416.697C1150.68 408.675 1147.5 399.102 1134.43 389.224C1124.69 381.877 1112.18 373.604 1101.28 362.68C1072.17 333.618 1057.83 310.892 1040.72 315.441C1040.72 308.681 1049.19 303.146 1062.55 303.146C1076.99 303.146 1080.91 313.867 1089.86 313.987C1096.13 314.193 1099.18 309.24 1099.18 305.604C1099.18 285.188 1063.24 291.598 1033.37 292.224C981.386 293.349 946.422 262.175 938.594 234.765C961.234 240.676 984.262 224.62 1002.83 224.466C1021.4 224.305 1038.2 234.718 1045.45 236.346C1061 239.859 1066.72 222.567 1046.64 220.228C960.719 210.256 959.819 163.424 985.158 135.883C1024.83 178.801 1102.92 129.776 1116.59 211.248C1118.85 224.691 1136.62 221.452 1135.63 211.637C1134.04 195.751 1115.57 190.957 1115.57 164.129C1115.57 155.54 1123.28 142.955 1140.16 132.24C1144.81 159.055 1259.89 175.288 1206.73 226.549C1190.99 241.722 1219.74 252.746 1222.42 232.39C1223.87 221.371 1237.99 208.458 1266.25 207.905C1259.47 222.921 1274.19 243.674 1274.19 260.792C1274.19 286.892 1262.49 292.13 1262.49 305.795C1262.49 319 1284.92 316.471 1280.24 300.152C1287.27 302.754 1294.05 313.454 1281.2 334.239ZM1192.55 531.778C1192.48 530.749 1191.36 529.304 1188.19 529.15C1186.68 529.079 1179.55 528.515 1172.43 529.032C1166.66 529.45 1162.3 530.384 1159.49 531.146C1159.38 529.426 1159.29 527.798 1159.2 526.461C1159.18 526.086 1158.78 518.554 1158.48 513.794C1158.32 510.813 1155.76 510.654 1154.35 512.215C1152.51 514.237 1144.98 524.308 1125.21 534.319C1121.35 536.272 1117.41 536.238 1118.46 533.938C1119.55 531.53 1135.53 517.828 1138.07 496.475C1140.03 479.992 1134.24 465.492 1135.46 461.071C1136.98 455.588 1141.7 454.922 1145.18 450.272C1148.45 445.895 1149.04 440.866 1150.6 439.739C1152.32 438.486 1157.86 439.454 1165.35 436.722C1174.37 433.439 1185.43 423.002 1185.43 413.871C1185.43 411.511 1183.55 409.588 1180.63 411.41C1164.44 421.525 1147.21 424.709 1143.19 428.029C1133.05 436.38 1119.98 452.728 1116.73 457.689C1112.18 464.659 1107.31 475.913 1105.22 486.292C1101.39 505.301 1099.07 528.842 1083.78 544.357C1078.77 549.438 1076.18 552.116 1076.79 556.124C1078.48 567.174 1098.91 578.443 1104.85 580.507C1116.13 584.435 1123.45 572.472 1124.06 568.442C1124.99 562.479 1122.44 559.496 1124.32 557.985C1125.31 557.176 1127.35 557.411 1128.53 557.706C1135.21 559.305 1141.94 557.178 1147.79 554.321C1151.94 552.29 1160.51 546.39 1161.58 544.74C1160.76 543.078 1160.26 540.103 1159.94 536.861C1162.74 536.092 1167.13 535.147 1172.94 534.727C1180.14 534.194 1187.63 534.747 1188.71 534.854C1192.17 535.168 1192.66 532.848 1192.55 531.778ZM1205.96 503.357C1206.12 499.604 1203.8 497.605 1198.87 498.947C1197.14 499.424 1177.43 507.713 1175.41 508.519C1172.48 509.691 1168.98 511.873 1169.57 515.07C1170.03 517.403 1172.8 518.486 1175.17 518.517C1178.53 518.554 1191.03 516.218 1194.81 515.041C1199.22 513.653 1205.56 512.883 1205.96 503.357ZM1211.21 479.734C1210.84 475.464 1206.53 474.822 1202.37 475.764C1193.08 477.813 1173.96 486.02 1171.65 487.041C1165.49 489.805 1162.03 492.422 1161.34 494.312C1160.13 497.637 1162.13 500.082 1164.91 500.745C1168.36 501.567 1173.49 500.205 1180.05 498.247C1182.45 497.53 1196.4 493.542 1199.33 492.558C1206.91 490.034 1211.97 489.306 1211.21 479.734ZM1209.62 455.541C1202.98 458.161 1196.69 459.891 1189.44 460.22C1187.89 460.285 1186.32 459.844 1184.77 460.009C1183.37 460.168 1175.81 463.814 1171.11 466.554C1163.3 471.119 1167.96 478.729 1174.77 477.079C1181.1 475.55 1197.06 471.059 1199.48 470.346C1207.49 467.982 1212.27 466.664 1214.26 461.781C1215.7 458.315 1214.51 453.604 1209.62 455.541ZM1187.05 445.441C1185.4 448.322 1185.87 451.919 1191.62 451.919C1199.92 451.919 1222.38 440.603 1223.45 433.65C1224.05 429.576 1220.38 426.813 1216.12 426.922C1209.49 427.107 1190.07 440.232 1187.05 445.441Z" fill="white"/>
</svg>
