<svg width="1612" height="274" viewBox="0 0 1612 274" fill="none" xmlns="http://www.w3.org/2000/svg">
<g clip-path="url(#clip0_917_2757)">
<mask id="mask0_917_2757" style="mask-type:luminance" maskUnits="userSpaceOnUse" x="0" y="0" width="1612" height="274">
<path d="M1612 0H0V273.994H1612V0Z" fill="white"/>
</mask>
<g mask="url(#mask0_917_2757)">
<path d="M875.155 71.4311C894.786 71.4311 910.699 56.1938 910.699 37.3977C910.699 18.6015 894.786 3.36426 875.155 3.36426C855.524 3.36426 839.61 18.6015 839.61 37.3977C839.61 56.1938 855.524 71.4311 875.155 71.4311Z" fill="url(#paint0_radial_917_2757)"/>
<path d="M163.313 89.2348H167.016L163.313 24.0674C142.945 12.9593 114.06 7.40527 91.4701 7.40527C40.7356 7.40527 0 33.3242 0 82.1999C0 162.919 127.021 158.846 127.021 225.865C127.021 257.708 104.802 270.297 83.6934 270.297C42.5874 270.297 16.2943 234.751 4.07356 186.616H0.370324L4.07356 255.486C24.4414 266.595 56.6598 274 83.3231 274C132.946 274 178.496 248.822 178.496 191.8C178.496 107.748 51.4752 108.859 51.4752 45.5431C51.4752 21.1053 70.3618 11.1079 91.8405 11.1079C126.651 11.1079 151.092 49.2457 163.313 89.2348Z" fill="white"/>
<path d="M326.383 111.081V231.418C318.977 237.713 308.237 246.229 291.202 246.229C277.871 246.229 271.205 237.343 271.205 222.902V81.459H264.539L187.511 90.3455V94.0481C207.139 95.8996 209.361 97.3808 209.361 111.081V218.459C209.361 259.189 232.691 274 260.095 274C287.129 274 309.348 257.338 326.383 235.121H328.235L329.716 274H333.419L410.077 265.113V261.411C390.449 259.559 388.227 258.078 388.227 244.378V81.459H381.561L297.127 90.3455V94.0481C324.161 95.8996 326.383 97.3808 326.383 111.081Z" fill="white"/>
<path d="M493.522 108.859H491.668L493.522 0H489.818L409.827 8.88651V12.5892C429.453 14.4405 431.677 15.9216 431.677 29.6216V272.148H435.381L465.376 251.784C484.261 269.186 507.224 274 526.108 274C577.954 274 618.69 237.343 618.69 177.73C618.69 122.189 590.915 81.4594 544.255 81.4594C522.034 81.4594 505.37 92.1974 493.522 108.859ZM515.739 103.676C536.848 103.676 553.512 126.632 553.512 180.692C553.512 227.716 544.626 268.816 520.926 268.816C510.927 268.816 493.522 264.743 493.522 225.124V112.562C500.558 106.638 507.965 103.676 515.739 103.676Z" fill="white"/>
<path d="M633.826 112.932L702.336 272.149H734.556L792.697 115.154C798.25 100.714 802.325 92.1975 820.101 88.8651V85.1621H747.517V88.8651C787.51 91.0866 792.697 101.825 787.51 116.265L747.517 224.014H746.775L704.19 116.265C699.004 103.305 700.487 91.0866 721.966 88.8651V85.1621H611.98V88.8651C623.457 90.346 628.644 100.714 633.826 112.932Z" fill="white"/>
<path d="M907.753 252.524V81.459H904.05L824.058 90.3455V94.0481C843.685 95.8996 845.909 97.3808 845.909 111.081V252.524C845.909 263.262 843.685 264.743 824.058 266.594V270.297H929.6V266.594C909.974 264.743 907.753 263.262 907.753 252.524Z" fill="white"/>
<path d="M1067.24 140.702H1070.94L1067.24 92.9376C1052.42 85.9022 1028.72 81.459 1011.32 81.459C961.695 81.459 939.844 105.897 939.844 135.518C939.844 202.908 1037.24 200.686 1037.24 244.378C1037.24 260.67 1025.39 270.297 1006.5 270.297C978.359 270.297 953.917 251.043 941.698 211.054H937.995L942.069 261.04C956.879 268.445 985.395 274 1004.65 274C1052.06 274 1081.31 251.043 1081.31 215.867C1081.31 152.551 986.508 154.773 986.508 107.748C986.508 93.3079 995.023 85.1616 1010.58 85.1616C1034.65 85.1616 1057.24 114.413 1067.24 140.702Z" fill="white"/>
<path d="M1225.79 111.081V231.418C1218.39 237.713 1207.65 246.229 1190.61 246.229C1177.28 246.229 1170.61 237.343 1170.61 222.902V81.459H1163.95L1086.92 90.3455V94.0481C1106.55 95.8996 1108.77 97.3808 1108.77 111.081V218.459C1108.77 259.189 1132.1 274 1159.51 274C1186.54 274 1208.76 257.338 1225.79 235.121H1227.65L1229.13 274H1232.83L1309.49 265.113V261.411C1289.86 259.559 1287.64 258.078 1287.64 244.378V81.459H1280.97L1196.54 90.3455V94.0481C1223.57 95.8996 1225.79 97.3808 1225.79 111.081Z" fill="white"/>
<path d="M1478.11 246.97V138.11C1478.84 106.638 1452.92 81.459 1407 81.459C1353.68 81.459 1323.68 121.078 1323.68 142.183C1323.68 156.254 1335.16 161.438 1347.38 161.438C1361.08 161.438 1370.71 154.402 1370.71 145.886C1370.71 135.148 1348.86 131.445 1348.86 116.635C1348.86 102.194 1364.42 93.3079 1379.97 93.3079C1406.26 93.3079 1416.26 113.302 1416.26 134.038V171.435C1335.9 176.248 1318.12 207.351 1318.12 230.308C1318.12 254.745 1334.05 274 1362.2 274C1384.41 274 1402.93 262.891 1415.52 244.378H1416.26V248.821C1416.26 262.521 1425.89 274 1447 274C1468.11 274 1486.99 264.373 1502.18 252.154L1501.81 249.191C1496.99 252.154 1491.07 255.486 1486.62 255.486C1481.07 255.486 1478.11 252.154 1478.11 246.97ZM1416.26 175.138V240.675C1411.45 243.638 1407 246.6 1400.34 246.6C1388.49 246.6 1381.08 238.083 1381.08 216.238C1381.08 188.467 1393.67 178.1 1416.26 175.138Z" fill="white"/>
<path d="M1590.17 252.524V0H1586.47L1506.48 8.88651V12.5892C1526.11 14.4405 1528.33 15.9216 1528.33 29.6216V252.524C1528.33 263.262 1526.11 264.743 1506.48 266.595V270.297H1612.02V266.595C1592.4 264.743 1590.17 263.262 1590.17 252.524Z" fill="white"/>
</g>
</g>
<defs>
<radialGradient id="paint0_radial_917_2757" cx="0" cy="0" r="1" gradientUnits="userSpaceOnUse" gradientTransform="translate(898.867 13.8559) rotate(128.894) scale(56.5089 59.6825)">
<stop stop-color="white" stop-opacity="0.8"/>
<stop offset="1" stop-color="white"/>
</radialGradient>
<clipPath id="clip0_917_2757">
<rect width="1612" height="274" fill="white"/>
</clipPath>
</defs>
</svg>
