<svg width="1341" height="433" viewBox="0 0 1341 433" fill="none" xmlns="http://www.w3.org/2000/svg">
<mask id="mask0_612_73751" style="mask-type:luminance" maskUnits="userSpaceOnUse" x="0" y="0" width="1341" height="433">
<path d="M1340.14 0H0V433H1340.14V0Z" fill="white"/>
</mask>
<g mask="url(#mask0_612_73751)">
<path d="M638.713 228.165V228.137C638.302 222.761 636.51 217.762 633.658 213.537C633.4 213.104 633.128 212.679 632.842 212.268C632.584 211.835 632.313 211.41 632.027 210.992C631.769 210.559 631.497 210.134 631.211 209.716C630.953 209.283 630.681 208.858 630.395 208.44C630.137 208.007 629.865 207.582 629.579 207.164C629.321 206.731 629.049 206.306 628.763 205.888C628.505 205.455 628.234 205.03 627.948 204.612C627.69 204.179 627.418 203.754 627.132 203.343C626.874 202.91 626.602 202.485 626.316 202.067C626.058 201.634 625.786 201.209 625.5 200.798C625.242 200.365 624.97 199.94 624.684 199.529C624.426 199.096 624.155 198.671 623.869 198.253C623.611 197.82 623.339 197.395 623.053 196.977C622.795 196.544 622.523 196.119 622.237 195.701C621.979 195.268 621.707 194.843 621.421 194.432C621.163 193.999 620.891 193.574 620.605 193.156C620.347 192.723 620.076 192.298 619.79 191.88C619.532 191.447 619.26 191.022 618.974 190.604C618.716 190.171 618.444 189.746 618.158 189.328C617.9 188.895 617.628 188.47 617.342 188.052C617.084 187.619 616.812 187.194 616.526 186.776C616.269 186.343 615.997 185.918 615.711 185.507C615.453 185.074 615.181 184.649 614.895 184.231C614.637 183.798 614.365 183.373 614.079 182.962C613.821 182.529 613.549 182.104 613.263 181.686C613.005 181.253 612.733 180.828 612.447 180.41C612.189 179.977 611.918 179.552 611.632 179.134C611.374 178.701 611.102 178.276 610.816 177.865C610.558 177.432 610.286 177.007 610 176.589C609.742 176.156 609.47 175.731 609.184 175.313C608.926 174.88 608.654 174.455 608.369 174.044C608.111 173.611 607.839 173.186 607.553 172.768C607.295 172.335 607.023 171.91 606.737 171.492C606.479 171.059 606.207 170.634 605.921 170.223C605.663 169.79 605.391 169.365 605.105 168.947C604.847 168.514 604.575 168.089 604.29 167.671C604.032 167.238 603.76 166.813 603.474 166.402C603.216 165.969 602.944 165.544 602.658 165.126C599.116 159.248 593.594 154.702 586.865 152.47C584.759 151.773 582.765 151.348 580.59 151.139C579.516 151.034 579.425 151.027 525.715 151.027C513.332 151.027 498.145 151.027 479.535 151.027C413.03 151.032 379.564 151.05 379.136 151.083H379.095C378.627 151.125 377.895 151.215 377.756 151.229C369.361 152.275 361.844 157.017 357.131 164.24C354.628 168.082 353.066 172.342 352.48 176.923C352.215 179.001 352.215 179.538 352.229 193.386C352.25 206.473 352.25 206.543 352.396 207.826C352.689 210.462 353.268 212.958 354.126 215.252C354.976 217.532 356.085 219.673 357.417 221.639C357.682 222.071 357.947 222.497 358.233 222.915C358.498 223.347 358.762 223.772 359.048 224.184C359.313 224.616 359.578 225.042 359.864 225.46C360.129 225.892 360.394 226.318 360.68 226.729C360.945 227.161 361.21 227.587 361.496 228.005C361.761 228.437 362.026 228.863 362.312 229.274C362.576 229.706 362.841 230.132 363.127 230.55C363.392 230.982 363.657 231.408 363.943 231.826C364.208 232.258 364.473 232.683 364.759 233.095C365.024 233.527 365.289 233.953 365.575 234.371C365.84 234.803 366.105 235.229 366.39 235.647C366.655 236.079 366.92 236.505 367.206 236.923C367.471 237.355 367.736 237.78 368.022 238.192C368.287 238.624 368.552 239.05 368.838 239.468C369.103 239.9 369.368 240.325 369.654 240.744C369.919 241.176 370.184 241.601 370.47 242.013C370.734 242.445 370.999 242.871 371.285 243.289C371.55 243.721 371.815 244.146 372.101 244.558C372.366 244.99 372.631 245.416 372.917 245.834C373.182 246.266 373.447 246.692 373.733 247.103C373.998 247.535 374.263 247.961 374.548 248.379C374.813 248.811 375.078 249.237 375.364 249.655C375.629 250.087 375.894 250.513 376.18 250.931C376.445 251.363 376.71 251.788 376.996 252.207C377.261 252.639 377.526 253.064 377.812 253.476C378.077 253.908 378.342 254.333 378.627 254.752C378.892 255.184 379.157 255.609 379.443 256.021C379.708 256.453 379.973 256.879 380.259 257.297C380.524 257.729 380.789 258.154 381.075 258.573C381.34 259.005 381.605 259.43 381.891 259.842C382.156 260.274 382.421 260.7 382.706 261.118C382.971 261.55 383.236 261.975 383.522 262.387C383.787 262.819 384.052 263.245 384.338 263.663C384.603 264.095 384.868 264.521 385.154 264.939C385.419 265.371 385.684 265.796 385.97 266.215C386.235 266.647 386.5 267.072 386.785 267.491C387.05 267.923 387.315 268.348 387.601 268.76C387.866 269.192 388.131 269.617 388.417 270.036C392.371 276.555 398.681 281.338 406.086 283.228C407.32 283.542 408.645 283.786 410.018 283.953C411.148 284.093 411.169 284.093 426.118 284.107C438.941 284.121 462.885 284.121 510.724 284.128C526.852 284.128 540.957 284.128 553.096 284.128C609.882 284.128 610.328 284.107 610.851 284.086C612.559 284.009 613.772 283.863 615.32 283.556C619.476 282.726 623.485 280.934 626.888 278.375C632.947 273.836 637.026 267.177 638.351 259.647L638.372 259.528L638.581 258.475V258.245C638.769 256.844 638.776 255.184 638.783 245.687V242.787C638.797 229.162 638.783 228.869 638.727 228.158V228.13L638.713 228.165Z" fill="black"/>
<path d="M638.574 78.0515L638.525 77.6122L638.504 77.5216L638.302 75.7645L638.128 75.4089C637.319 71.6018 635.792 68.0109 633.616 64.8105C633.358 64.3782 633.086 63.9528 632.801 63.5414C632.543 63.1091 632.271 62.6838 631.985 62.2655C631.727 61.8332 631.455 61.4078 631.169 60.9895C630.911 60.5572 630.639 60.1318 630.353 59.7135C630.095 59.2812 629.823 58.8558 629.537 58.4445C629.279 58.0122 629.007 57.5868 628.722 57.1685C628.464 56.7362 628.192 56.3108 627.906 55.8925C627.648 55.4602 627.376 55.0348 627.09 54.6165C626.832 54.1842 626.56 53.7589 626.274 53.3405C626.016 52.9082 625.744 52.4829 625.458 52.0715C625.2 51.6392 624.928 51.2138 624.643 50.8025C624.385 50.3702 624.113 49.9448 623.827 49.5265C623.569 49.0942 623.297 48.6688 623.011 48.2505C622.753 47.8182 622.481 47.3928 622.195 46.9745C621.937 46.5422 621.665 46.1169 621.379 45.7055C621.121 45.2732 620.849 44.8478 620.564 44.4365C620.306 44.0042 620.034 43.5788 619.748 43.1605C619.49 42.7282 619.218 42.3028 618.932 41.8845C618.674 41.4522 618.402 41.0268 618.116 40.6155C617.858 40.1832 617.586 39.7578 617.3 39.3395C617.042 38.9072 616.771 38.4818 616.485 38.0635C616.227 37.6312 615.955 37.2058 615.669 36.7945C615.411 36.3622 615.139 35.9368 614.853 35.5185C614.595 35.0862 614.323 34.6608 614.037 34.2495C613.779 33.8171 613.507 33.3918 613.221 32.9735C612.963 32.5412 612.692 32.1158 612.406 31.6975C612.148 31.2652 611.876 30.8398 611.59 30.4215C611.332 29.9892 611.06 29.5638 610.774 29.1525C610.516 28.7202 610.244 28.2948 609.958 27.8765C609.7 27.4442 609.428 27.0188 609.142 26.6005C608.884 26.1682 608.613 25.7428 608.327 25.3245C608.069 24.8922 607.797 24.4669 607.511 24.0485C607.253 23.6162 606.981 23.1909 606.695 22.7795C606.437 22.3472 606.165 21.9218 605.879 21.5105C605.621 21.0782 605.349 20.6528 605.063 20.2345C604.805 19.8022 604.534 19.3768 604.248 18.9585C603.99 18.5262 603.718 18.1009 603.432 17.6895C603.174 17.2572 602.902 16.8318 602.616 16.4135C601.689 14.8865 600.629 13.4431 599.43 12.0904C595.434 7.5931 590.281 4.49028 584.515 3.1097C582.73 2.6774 581.189 2.46124 579.216 2.36363H579.195C578.825 2.34271 578.212 2.31482 491.633 2.31482C405.054 2.31482 404.384 2.34271 404.05 2.35666H404.022C396.205 2.71923 389.052 6.15674 383.871 12.0416C379.178 17.3827 376.494 24.2716 376.306 31.4465C376.145 37.7567 377.923 43.8089 381.375 48.8989C381.633 49.3312 381.905 49.7566 382.19 50.1749C382.448 50.6072 382.72 51.0326 383.006 51.4509C383.264 51.8832 383.536 52.3085 383.822 52.7199C384.08 53.1522 384.352 53.5776 384.638 53.989C384.896 54.4213 385.168 54.8466 385.454 55.2649C385.712 55.6972 385.984 56.1226 386.269 56.5409C386.527 56.9732 386.799 57.3986 387.085 57.81C387.343 58.2423 387.615 58.6676 387.901 59.0859C388.159 59.5182 388.431 59.9436 388.717 60.3619C388.975 60.7942 389.247 61.2196 389.533 61.6309C389.791 62.0633 390.063 62.4886 390.348 62.9069C390.606 63.3392 390.878 63.7646 391.164 64.176C391.422 64.6083 391.694 65.0336 391.98 65.4519C392.238 65.8843 392.51 66.3096 392.796 66.7279C393.054 67.1602 393.326 67.5856 393.612 68.0039C393.87 68.4362 394.142 68.8616 394.427 69.2729C394.685 69.7052 394.957 70.1306 395.243 70.5489C395.501 70.9812 395.773 71.4066 396.059 71.8249C396.317 72.2572 396.589 72.6826 396.875 73.1009C397.133 73.5332 397.405 73.9585 397.691 74.3769C397.949 74.8092 398.221 75.2345 398.506 75.6459C398.764 76.0782 399.036 76.5036 399.322 76.9149C399.58 77.3472 399.852 77.7726 400.138 78.1909C400.396 78.6232 400.668 79.0486 400.954 79.4669C401.212 79.8992 401.484 80.3246 401.77 80.7359C402.028 81.1682 402.3 81.5936 402.585 82.0119C402.843 82.4442 403.115 82.8696 403.401 83.2879C403.659 83.7202 403.931 84.1456 404.217 84.5639C404.475 84.9962 404.747 85.4215 405.033 85.8399C405.291 86.2722 405.563 86.6975 405.849 87.1089C406.107 87.5412 406.379 87.9666 406.664 88.3849C406.922 88.8172 407.194 89.2425 407.48 89.6609C407.738 90.0932 408.01 90.5185 408.296 90.9299C408.554 91.3622 408.826 91.7876 409.112 92.2059C409.37 92.6382 409.642 93.0635 409.928 93.4819C410.186 93.9142 410.458 94.3395 410.743 94.7579C411.001 95.1902 411.273 95.6155 411.559 96.0339C411.817 96.4662 412.089 96.8915 412.375 97.3099C413.386 98.9763 414.557 100.552 415.903 102.009C416.649 102.79 439.561 126.63 440.691 127.731C445.265 132.124 450.975 134.878 457.209 135.68H457.244C458.359 135.827 458.401 135.834 469.836 135.841C479.751 135.848 498.229 135.855 535.149 135.855C586.17 135.855 612.064 135.811 612.831 135.722C619.413 134.955 625.354 132.082 630.025 127.404C632.919 124.51 635.171 121.087 636.691 117.217C637.626 114.853 638.232 112.482 638.581 109.777C638.755 108.487 638.755 108.375 638.769 94.3186V94.2907C638.783 80.2479 638.783 79.7946 638.567 78.0654V78.0445L638.574 78.0515Z" fill="black"/>
<path d="M638.407 373.733L638.386 373.593V373.558L638.372 373.523C637.64 369.173 636.001 365.142 633.637 361.642C633.379 361.21 633.107 360.784 632.822 360.373C632.564 359.941 632.292 359.515 632.006 359.097C631.748 358.665 631.476 358.239 631.19 357.821C630.932 357.389 630.66 356.963 630.374 356.552C630.116 356.12 629.844 355.694 629.558 355.283C629.3 354.851 629.028 354.425 628.743 354.007C628.485 353.575 628.213 353.149 627.927 352.731C627.669 352.299 627.397 351.873 627.111 351.455C626.853 351.023 626.581 350.597 626.295 350.186C626.037 349.754 625.765 349.328 625.479 348.91C625.221 348.478 624.949 348.052 624.664 347.641C624.406 347.209 624.134 346.783 623.848 346.372C623.59 345.94 623.318 345.514 623.032 345.096C622.774 344.664 622.502 344.238 622.216 343.827C621.958 343.395 621.686 342.969 621.4 342.551C621.142 342.119 620.87 341.693 620.585 341.282C620.327 340.85 620.055 340.424 619.769 340.013C619.511 339.581 619.239 339.155 618.953 338.737C618.695 338.305 618.423 337.879 618.137 337.461C617.879 337.029 617.607 336.603 617.321 336.185C617.063 335.753 616.791 335.327 616.506 334.916C616.248 334.484 615.976 334.058 615.69 333.647C615.432 333.215 615.16 332.789 614.874 332.371C614.616 331.939 614.344 331.513 614.058 331.102C613.8 330.67 613.528 330.244 613.242 329.826C612.984 329.394 612.712 328.968 612.427 328.55C612.169 328.118 611.897 327.692 611.611 327.281C611.353 326.849 611.081 326.423 610.795 326.005C610.537 325.573 610.265 325.147 609.979 324.736C609.721 324.304 609.449 323.878 609.163 323.46C608.905 323.028 608.633 322.602 608.348 322.184C608.09 321.752 607.818 321.326 607.532 320.915C607.274 320.483 607.002 320.057 606.716 319.639C606.458 319.207 606.186 318.781 605.9 318.363C605.642 317.931 605.37 317.505 605.084 317.087C604.826 316.655 604.555 316.229 604.269 315.811C604.011 315.379 603.739 314.953 603.453 314.542C603.195 314.11 602.923 313.684 602.637 313.266C599.088 307.395 593.58 302.877 586.907 300.646C585.171 300.06 583.427 299.662 581.433 299.391C580.283 299.237 580.262 299.23 568.318 299.223C557.922 299.216 536.948 299.209 503.633 299.209C492.651 299.209 482.185 299.209 472.73 299.209C429.66 299.209 427.568 299.209 426.976 299.244C423.887 299.446 420.575 300.248 417.653 301.496C414.509 302.842 411.559 304.787 409.119 307.123C408.191 308.009 385.168 331.904 383.836 333.361C381.682 335.781 379.883 338.625 378.634 341.589C375.852 348.199 375.553 355.646 377.784 362.576C378.69 365.393 379.98 368.001 381.577 370.365C381.842 370.797 382.107 371.222 382.393 371.634C382.658 372.066 382.923 372.492 383.209 372.91C383.473 373.342 383.738 373.768 384.024 374.186C384.289 374.618 384.554 375.043 384.84 375.455C385.105 375.887 385.37 376.313 385.656 376.731C385.921 377.163 386.186 377.589 386.472 378.007C386.737 378.439 387.002 378.865 387.288 379.283C387.552 379.715 387.817 380.14 388.103 380.559C388.368 380.991 388.633 381.416 388.919 381.828C389.184 382.26 389.449 382.685 389.735 383.104C390 383.536 390.265 383.961 390.551 384.38C390.816 384.812 391.081 385.237 391.366 385.649C391.631 386.081 391.896 386.506 392.182 386.925C392.447 387.357 392.712 387.782 392.998 388.201C393.263 388.633 393.528 389.058 393.814 389.477C394.079 389.909 394.344 390.334 394.63 390.746C394.895 391.178 395.16 391.603 395.445 392.022C395.71 392.454 395.975 392.879 396.261 393.298C396.526 393.73 396.791 394.155 397.077 394.574C397.342 395.006 397.607 395.431 397.893 395.843C398.158 396.275 398.423 396.7 398.709 397.119C398.974 397.551 399.239 397.976 399.524 398.388C399.789 398.82 400.054 399.245 400.34 399.664C400.605 400.096 400.87 400.521 401.156 400.94C401.421 401.372 401.686 401.797 401.972 402.209C402.237 402.641 402.502 403.066 402.788 403.485C403.053 403.917 403.318 404.342 403.603 404.754C403.868 405.186 404.133 405.611 404.419 406.023C404.684 406.455 404.949 406.881 405.235 407.299C405.5 407.731 405.765 408.156 406.051 408.575C406.316 409.007 406.581 409.432 406.867 409.844C407.132 410.276 407.397 410.701 407.682 411.12C407.947 411.552 408.212 411.977 408.498 412.389C408.763 412.821 409.028 413.247 409.314 413.658C409.579 414.09 409.844 414.516 410.13 414.934C410.395 415.366 410.66 415.791 410.946 416.203C411.211 416.635 411.476 417.061 411.761 417.479C412.026 417.911 412.291 418.337 412.577 418.755C415.868 424.194 420.763 428.412 426.655 430.734C428.956 431.64 431.271 432.219 433.948 432.554C435.05 432.693 435.071 432.693 448.821 432.707C460.2 432.721 481.125 432.721 522.905 432.728C537.415 432.728 549.917 432.728 560.557 432.728C610.363 432.728 610.656 432.707 611.304 432.672C613.961 432.519 616.359 432.052 618.834 431.222C623.862 429.528 628.352 426.446 631.817 422.297C635.074 418.399 637.291 413.735 638.246 408.763L638.267 408.686L638.421 407.787V407.759C638.448 407.62 638.469 407.487 638.49 407.348C638.769 405.57 638.769 405.409 638.769 392.845V388.752C638.769 380.24 638.669 375.359 638.469 374.109C638.448 373.991 638.428 373.872 638.407 373.74V373.733Z" fill="black"/>
<path d="M344.594 174.106C345.124 162.769 344.176 151.703 341.784 141.217C340.229 134.411 338.103 127.962 335.083 120.919C332.594 115.111 329.666 109.617 326.277 104.373C326.012 103.948 325.74 103.522 325.461 103.104C325.196 102.679 324.924 102.253 324.645 101.828C324.38 101.403 324.109 100.977 323.83 100.552C323.565 100.127 323.293 99.7015 323.014 99.2762C322.749 98.8508 322.477 98.4255 322.198 98.0071C321.933 97.5818 321.654 97.1565 321.382 96.7312C321.117 96.3058 320.845 95.8805 320.566 95.4552C320.301 95.0298 320.03 94.6045 319.751 94.1792C319.486 93.7538 319.207 93.3285 318.935 92.9032C318.67 92.4779 318.398 92.0525 318.119 91.6342C317.854 91.2088 317.582 90.7835 317.303 90.3652C317.038 89.9398 316.759 89.5145 316.487 89.0892C316.222 88.6638 315.951 88.2385 315.672 87.8132C315.407 87.3878 315.128 86.9625 314.856 86.5372C314.591 86.1118 314.319 85.6865 314.04 85.2682C313.775 84.8428 313.503 84.4175 313.224 83.9991C312.959 83.5738 312.68 83.1485 312.408 82.7231C312.143 82.2978 311.865 81.8725 311.593 81.4472C311.328 81.0218 311.056 80.5965 310.777 80.1781C310.512 79.7528 310.24 79.3275 309.961 78.9022C309.696 78.4768 309.424 78.0515 309.145 77.6262C308.88 77.2008 308.608 76.7755 308.329 76.3571C308.065 75.9318 307.786 75.5065 307.514 75.0812C307.249 74.6558 306.977 74.2305 306.698 73.8121C306.433 73.3868 306.161 72.9615 305.882 72.5361C305.617 72.1108 305.345 71.6855 305.066 71.2602C304.801 70.8348 304.522 70.4095 304.25 69.9842C303.986 69.5588 303.714 69.1335 303.435 68.7151C303.17 68.2898 302.891 67.8645 302.619 67.4392C302.354 67.0138 302.082 66.5885 301.803 66.1632C301.538 65.7378 301.266 65.3125 300.987 64.8872C300.722 64.4618 300.443 64.0365 300.171 63.6112C299.907 63.1859 299.635 62.7605 299.356 62.3422C299.091 61.9168 298.819 61.4915 298.54 61.0731C298.275 60.6478 297.996 60.2225 297.724 59.7972C297.459 59.3718 297.18 58.9465 296.908 58.5212C296.643 58.0958 296.371 57.6705 296.093 57.2522C295.828 56.8268 295.556 56.4015 295.277 55.9762C291.156 49.4149 286.317 43.2441 280.676 37.3453L280.662 37.3314L280.648 37.3174C280.334 36.9897 279.588 36.2157 278.989 35.5882C271.779 28.0438 262.952 21.3989 252.737 15.8278C249.111 13.8476 245.039 11.8534 242.375 10.7517C231.01 6.07308 219.177 3.31192 207.199 2.54493H207.178C205.344 2.4264 204.193 2.38456 202.053 2.34272C200.282 2.30786 136.51 2.30786 129.245 2.30786C53.4382 2.30786 52.7479 2.34272 52.3784 2.35667C47.2256 2.59374 42.2402 4.21836 37.9729 7.06319C30.6935 11.8952 25.9242 19.8091 24.8783 28.7829C24.697 30.3448 24.6482 32.848 24.7668 34.3959C25.0596 38.2239 25.994 41.7381 27.6256 45.1407C28.2322 46.4027 28.9782 47.6927 29.808 48.9199C30.066 49.3452 30.3379 49.7775 30.6238 50.1889C30.8818 50.6142 31.1537 51.0465 31.4396 51.4649C31.6976 51.8902 31.9695 52.3225 32.2554 52.7409C32.5134 53.1662 32.7853 53.5985 33.0712 54.0169C33.3292 54.4422 33.6011 54.8745 33.887 55.2859C34.145 55.7112 34.4169 56.1435 34.7028 56.5619C34.9608 56.9872 35.2327 57.4195 35.5186 57.8378C35.7765 58.2632 36.0485 58.6955 36.3344 59.1138C36.5923 59.5392 36.8643 59.9715 37.1502 60.3898C37.4081 60.8152 37.6801 61.2475 37.966 61.6658C38.2239 62.0912 38.4959 62.5235 38.7818 62.9418C39.0397 63.3671 39.3117 63.7994 39.5975 64.2108C39.8555 64.6362 40.1275 65.0685 40.4133 65.4868C40.6713 65.9121 40.9433 66.3445 41.2291 66.7628C41.4871 67.1881 41.7591 67.6204 42.0449 68.0388C42.3029 68.4641 42.5749 68.8964 42.8607 69.3148C43.1187 69.7401 43.3907 70.1724 43.6765 70.5908C43.9345 71.0161 44.2065 71.4484 44.4923 71.8668C44.7503 72.2921 45.0223 72.7244 45.3081 73.1358C45.5661 73.5611 45.838 73.9934 46.1239 74.4118C46.3819 74.8371 46.6538 75.2694 46.9397 75.6878C47.1977 76.1131 47.4696 76.5454 47.7555 76.9638C48.0135 77.3891 48.2854 77.8214 48.5713 78.2398C48.8293 78.6651 49.1012 79.0974 49.3871 79.5157C49.6451 79.9411 49.917 80.3734 50.2029 80.7848C50.4609 81.2101 50.7328 81.6424 51.0187 82.0608C51.2767 82.4861 51.5486 82.9184 51.8345 83.3367C52.0925 83.7621 52.3644 84.1944 52.6503 84.6058C52.9083 85.0311 53.1802 85.4634 53.4661 85.8817C53.7241 86.3071 53.996 86.7394 54.2819 87.1577C54.5399 87.5831 54.8118 88.0154 55.0977 88.4337C55.3557 88.8591 55.6276 89.2914 55.9135 89.7097C56.1715 90.1351 56.4434 90.5674 56.7293 90.9857C56.9873 91.411 57.2592 91.8433 57.5451 92.2617C57.8031 92.687 58.075 93.1193 58.3609 93.5307C58.6189 93.956 58.8908 94.3884 59.1767 94.8067C59.4347 95.232 59.7066 95.6643 59.9925 96.0827C60.2505 96.508 60.5224 96.9403 60.8083 97.3587C61.8263 99.0252 63.0256 100.643 64.2737 102.009C64.455 102.205 88.9707 127.697 89.9748 128.589L89.9957 128.61L90.0166 128.631C91.955 130.339 94.0049 131.727 96.292 132.877C99.1298 134.3 101.968 135.185 105.231 135.666H105.28L105.328 135.68L105.935 135.764L106.765 135.882H107.602L170.781 135.91C196.705 135.924 216.249 135.938 226.352 135.945C225.286 137.772 224.107 139.397 222.768 140.875C221.353 142.43 221.151 142.639 220.67 143.113C218.487 145.282 215.921 146.941 212.588 148.329H212.567L212.547 148.349C212.114 148.531 211.291 148.886 210.685 149.186C209.395 149.835 207.631 150.413 205.943 150.741C204.995 150.922 204.054 151.062 202.199 151.208C198.936 151.243 170.02 151.257 115.209 151.271C79.6065 151.285 58.9954 151.292 46.2913 151.299C33.6708 151.308 27.0259 151.36 26.3565 151.452H26.3147L26.2729 151.466C22.6053 151.989 19.6349 152.917 16.6367 154.478C8.37414 158.76 2.54502 166.918 1.06682 176.296V176.359L1.04591 176.414L1.03196 176.484C1.01104 176.623 0.990125 176.749 0.969207 176.875C0.801864 178.027 0.71122 182.545 0.697275 190.429V192.416C0.68333 206.515 0.68333 206.787 0.927372 208.732C1.53399 213.509 3.20045 217.95 5.88491 221.918C6.14289 222.35 6.41483 222.775 6.69373 223.194C6.95172 223.626 7.22365 224.051 7.50256 224.47C7.76054 224.902 8.03248 225.327 8.31138 225.746C8.56937 226.178 8.8413 226.603 9.12021 227.022C9.37819 227.454 9.65012 227.879 9.92903 228.298C10.187 228.73 10.4589 229.155 10.7379 229.574C10.9958 230.006 11.2678 230.431 11.5467 230.85C11.8047 231.282 12.0766 231.707 12.3555 232.126C12.6135 232.558 12.8854 232.983 13.1643 233.402C13.4223 233.834 13.6942 234.259 13.9732 234.678C14.2311 235.11 14.5031 235.535 14.782 235.954C15.04 236.386 15.3119 236.811 15.5908 237.23C15.8488 237.662 16.1207 238.087 16.3996 238.506C16.6576 238.938 16.9295 239.363 17.2085 239.782C17.4664 240.214 17.7384 240.639 18.0173 241.058C18.2753 241.49 18.5472 241.915 18.8261 242.334C19.0841 242.766 19.356 243.191 19.6349 243.61C19.8929 244.042 20.1648 244.467 20.4437 244.885C20.7017 245.318 20.9737 245.743 21.2526 246.161C21.5106 246.594 21.7825 247.019 22.0614 247.437C22.3194 247.87 22.5913 248.295 22.8702 248.713C23.1282 249.146 23.4001 249.571 23.679 249.989C23.937 250.422 24.209 250.847 24.4879 251.265C24.7459 251.698 25.0178 252.123 25.2967 252.541C25.5547 252.974 25.8266 253.399 26.1055 253.817C26.3635 254.25 26.6354 254.675 26.9143 255.093C27.1723 255.526 27.4443 255.951 27.7232 256.369C27.9812 256.802 28.2531 257.227 28.532 257.645C28.79 258.078 29.0619 258.503 29.3408 258.921C29.5988 259.354 29.8707 259.779 30.1496 260.197C30.4076 260.63 30.6796 261.055 30.9585 261.473C31.2165 261.906 31.4884 262.331 31.7673 262.749C32.0253 263.182 32.2972 263.607 32.5761 264.025C32.8341 264.458 33.106 264.883 33.3849 265.301C33.6429 265.734 33.9149 266.159 34.1938 266.577C34.4518 267.01 34.7237 267.435 35.0026 267.853C35.2606 268.286 35.5325 268.711 35.8114 269.129C36.0694 269.562 36.3413 269.987 36.6202 270.405C36.8782 270.838 37.1502 271.263 37.4291 271.681C40.2042 275.781 44.1367 279.233 48.4876 281.422H48.5016L48.5155 281.436C51.5207 282.935 54.7839 283.918 57.9634 284.274H58.0122C58.0541 284.281 58.1029 284.288 58.1447 284.295C59.0303 284.441 59.7066 284.448 66.9302 284.455C71.3648 284.455 77.7657 284.462 85.6657 284.469C101.452 284.476 123.206 284.49 147.108 284.497C193.358 284.511 215.775 284.518 226.122 284.532C224.958 286.512 223.64 288.304 222.204 289.824L222.19 289.838L222.176 289.852C221.904 290.145 221.416 290.675 221.088 291.03H221.081V291.044C219.596 292.669 217.637 294.189 215.405 295.437C213.683 296.399 210.769 297.626 208.9 298.17C206.864 298.763 204.946 299.091 202.136 299.307C199.515 299.342 179.454 299.356 143.88 299.37C116.387 299.377 101.94 299.384 94.2071 299.397C84.7313 299.411 84.6686 299.425 83.5669 299.572C80.1224 300.046 77.1521 300.959 74.2166 302.451C71.079 304.041 68.2969 306.147 65.9471 308.72C61.3452 313.74 58.6398 319.988 58.1168 326.793C58.0611 327.511 58.0401 327.818 58.0471 341.672C58.0611 355.75 58.0611 355.848 58.2354 357.152C58.8629 361.928 60.3899 366.132 62.914 369.995C62.9907 370.107 63.0674 370.218 63.1441 370.33C63.3324 370.644 63.5276 370.958 63.7298 371.264C63.8065 371.376 63.8832 371.487 63.9599 371.599C64.1482 371.913 64.3434 372.227 64.5456 372.533C64.6223 372.645 64.699 372.756 64.7757 372.868C64.964 373.182 65.1592 373.496 65.3614 373.802C65.4381 373.914 65.5148 374.025 65.5915 374.137C65.7798 374.451 65.975 374.765 66.1772 375.071C66.2539 375.183 66.3306 375.295 66.4073 375.406C66.5955 375.72 66.7908 376.034 66.993 376.34C67.0697 376.452 67.1464 376.564 67.2231 376.675C67.4114 376.989 67.6066 377.303 67.8088 377.609C67.8855 377.721 67.9622 377.833 68.0389 377.944C68.2271 378.258 68.4224 378.572 68.6246 378.878C68.7013 378.99 68.778 379.102 68.8547 379.213C69.0429 379.527 69.2382 379.841 69.4404 380.147C69.5171 380.259 69.5938 380.371 69.6705 380.482C69.8587 380.796 70.054 381.11 70.2562 381.416C70.3329 381.528 70.4096 381.64 70.4863 381.751C70.6745 382.065 70.8698 382.379 71.072 382.686C71.1487 382.797 71.2254 382.909 71.3021 383.02C71.4903 383.334 71.6856 383.648 71.8878 383.954C71.9645 384.066 72.0412 384.178 72.1179 384.289C72.3061 384.603 72.5014 384.917 72.7036 385.224C72.7803 385.335 72.857 385.447 72.9337 385.558C73.1219 385.872 73.3172 386.186 73.5194 386.493C73.5961 386.604 73.6728 386.716 73.7495 386.827C73.9377 387.141 74.133 387.455 74.3352 387.762C74.4119 387.873 74.4886 387.985 74.5653 388.096C74.7535 388.41 74.9488 388.724 75.151 389.031C75.2277 389.142 75.3044 389.254 75.3811 389.365C75.5693 389.679 75.7646 389.993 75.9668 390.3C76.0435 390.411 76.1202 390.523 76.1969 390.634C76.3851 390.948 76.5804 391.262 76.7826 391.569C76.8593 391.68 76.936 391.792 77.0127 391.903C77.2009 392.217 77.3961 392.531 77.5984 392.838C77.6751 392.949 77.7518 393.061 77.8285 393.172C78.0167 393.486 78.2119 393.8 78.4141 394.107C78.4908 394.218 78.5675 394.33 78.6442 394.441C78.8325 394.755 79.0277 395.069 79.2299 395.376C79.3066 395.487 79.3833 395.599 79.46 395.71C79.6483 396.024 79.8435 396.338 80.0457 396.645C80.1224 396.756 80.1991 396.868 80.2758 396.979C80.4641 397.293 80.6593 397.607 80.8615 397.914C80.9382 398.025 81.0149 398.137 81.0916 398.248C81.2799 398.562 81.4751 398.876 81.6773 399.183C81.754 399.294 81.8307 399.406 81.9074 399.517C82.0957 399.831 82.2909 400.145 82.4931 400.452C82.5698 400.563 82.6465 400.675 82.7232 400.786C82.9115 401.1 83.1067 401.414 83.3089 401.721C83.3856 401.832 83.4623 401.944 83.539 402.055C83.7273 402.369 83.9225 402.683 84.1247 402.99C84.2014 403.101 84.2781 403.213 84.3548 403.324C84.5431 403.638 84.7383 403.952 84.9405 404.259C85.0172 404.37 85.0939 404.482 85.1706 404.593C85.3589 404.907 85.5541 405.221 85.7563 405.528C85.833 405.639 85.9097 405.751 85.9864 405.863C86.1747 406.176 86.3699 406.49 86.5721 406.797C86.6488 406.908 86.7255 407.02 86.8022 407.132C86.9905 407.445 87.1857 407.759 87.3879 408.066C87.4646 408.177 87.5413 408.289 87.618 408.401C87.8063 408.714 88.0015 409.028 88.2037 409.335C88.2804 409.446 88.3571 409.558 88.4338 409.67C88.6221 409.983 88.8173 410.297 89.0195 410.604C89.0962 410.715 89.1729 410.827 89.2496 410.939C89.4379 411.252 89.6331 411.566 89.8353 411.873C89.912 411.984 89.9887 412.096 90.0654 412.208C90.2537 412.521 90.4489 412.835 90.6511 413.142C90.7278 413.253 90.8045 413.365 90.8812 413.477C91.0695 413.79 91.2647 414.104 91.4669 414.411C91.5436 414.523 91.6203 414.634 91.697 414.746C91.8853 415.059 92.0805 415.373 92.2827 415.68C92.3594 415.791 92.4361 415.903 92.5128 416.015C92.7011 416.328 92.8963 416.642 93.0985 416.949C93.1752 417.061 93.2519 417.172 93.3286 417.284C93.5169 417.597 93.7121 417.911 93.9143 418.218C93.991 418.33 94.0677 418.441 94.1444 418.553C94.3327 418.866 94.5279 419.18 94.7301 419.487C98.3489 425.037 103.53 429.095 109.721 431.208C112.245 432.073 114.686 432.54 117.412 432.7H117.475C117.935 432.728 118.409 432.749 154.764 432.749C158.021 432.749 234.594 432.749 236.246 432.665C239.147 432.519 240.876 432.4 242.85 432.205C253.755 431.145 264.318 428.468 274.24 424.249H274.261C275.753 423.601 277.022 423.008 279.1 421.99C290.152 416.552 299.37 410.29 307.284 402.836C308.866 401.344 310.421 399.768 313.203 396.819C320.134 389.47 326.026 381.333 330.705 372.638C333.368 367.68 335.962 361.789 338.012 356.036C341.645 345.807 343.799 334.923 344.413 323.676C344.58 320.532 344.643 315.769 344.552 313.043C344.399 308.315 344.064 303.867 343.583 300.192C342.091 288.778 339.288 278.494 335.014 268.746C332.685 263.426 329.896 258.259 326.709 253.336C326.444 252.911 326.172 252.486 325.894 252.067C325.629 251.642 325.357 251.217 325.078 250.791C324.813 250.366 324.541 249.941 324.262 249.515C323.997 249.09 323.718 248.665 323.446 248.239C323.202 247.849 322.951 247.458 322.7 247.068C321.25 243.651 321.445 239.565 323.209 236.414C323.342 236.177 323.627 235.751 324.095 235.075C330.084 226.513 334.784 217.385 338.047 207.972C338.179 207.589 338.312 207.212 338.354 207.087L338.333 207.15C338.716 206.097 339.623 203.119 339.637 203.092C342.363 194.034 343.987 184.293 344.462 174.134L344.594 174.106Z" fill="black"/>
<path d="M927.777 361.803C927.75 361.761 927.722 361.726 927.694 361.684C927.457 361.293 927.213 360.91 926.962 360.527C926.934 360.485 926.906 360.45 926.878 360.408C926.641 360.018 926.397 359.634 926.146 359.251C926.118 359.209 926.09 359.174 926.062 359.132C925.825 358.742 925.581 358.358 925.33 357.975C925.302 357.933 925.274 357.898 925.246 357.856C925.009 357.466 924.765 357.082 924.514 356.699C924.486 356.657 924.458 356.622 924.431 356.58C924.194 356.19 923.949 355.806 923.698 355.423C923.671 355.381 923.643 355.346 923.615 355.304C923.378 354.914 923.134 354.53 922.883 354.147C922.855 354.105 922.827 354.07 922.799 354.028C922.562 353.638 922.318 353.254 922.067 352.871C922.039 352.829 922.011 352.794 921.983 352.752C921.746 352.362 921.502 351.978 921.251 351.595C921.223 351.553 921.195 351.518 921.167 351.476C920.93 351.086 920.686 350.702 920.435 350.319C920.407 350.277 920.379 350.242 920.352 350.2C920.114 349.81 919.87 349.426 919.619 349.043C919.592 349.001 919.564 348.966 919.536 348.924C919.299 348.534 919.055 348.15 918.804 347.767C918.776 347.725 918.748 347.69 918.72 347.648C918.483 347.258 918.239 346.874 917.988 346.491C917.96 346.449 917.932 346.414 917.904 346.372C917.667 345.982 917.423 345.598 917.172 345.215C917.144 345.173 917.116 345.138 917.088 345.096C916.851 344.706 916.607 344.322 916.356 343.939C916.328 343.897 916.3 343.862 916.273 343.82C916.036 343.43 915.792 343.046 915.54 342.663C915.513 342.621 915.485 342.586 915.457 342.544C915.22 342.154 914.976 341.77 914.725 341.387C914.697 341.345 914.669 341.31 914.641 341.268C914.404 340.878 914.16 340.494 913.909 340.111C913.881 340.069 913.853 340.034 913.825 339.992C913.588 339.602 913.344 339.218 913.093 338.835C913.065 338.793 913.037 338.758 913.009 338.716C912.772 338.326 912.528 337.942 912.277 337.559C912.249 337.517 912.221 337.482 912.194 337.44C911.957 337.05 911.712 336.666 911.461 336.283C911.434 336.241 911.406 336.206 911.378 336.164C911.141 335.774 910.897 335.39 910.646 335.007C910.618 334.965 910.59 334.93 910.562 334.888C910.325 334.498 910.081 334.114 909.83 333.731C909.802 333.689 909.774 333.654 909.746 333.612C909.509 333.222 909.265 332.838 909.014 332.455C908.986 332.413 908.958 332.378 908.93 332.336C908.693 331.946 908.449 331.562 908.198 331.179C908.17 331.137 908.143 331.102 908.115 331.06C907.878 330.67 907.633 330.286 907.382 329.903C907.355 329.861 907.327 329.826 907.299 329.784C907.062 329.394 906.818 329.01 906.567 328.627C906.539 328.585 906.511 328.55 906.483 328.508C906.246 328.118 906.002 327.734 905.751 327.351C905.723 327.309 905.695 327.274 905.667 327.232C905.43 326.842 905.186 326.458 904.935 326.075C904.907 326.033 904.879 325.998 904.851 325.956C904.614 325.566 904.37 325.182 904.119 324.799C904.091 324.757 904.064 324.722 904.036 324.68C903.799 324.29 903.555 323.906 903.304 323.523C903.276 323.481 903.248 323.446 903.22 323.404C902.983 323.014 902.739 322.63 902.488 322.247C902.46 322.205 902.432 322.17 902.404 322.128C902.167 321.738 901.93 321.354 901.672 320.971C901.644 320.929 901.616 320.894 901.588 320.852C901.351 320.462 901.107 320.078 900.856 319.695C900.828 319.653 900.8 319.618 900.772 319.576C900.535 319.186 900.291 318.802 900.04 318.419C900.012 318.377 899.985 318.342 899.957 318.3C899.72 317.91 899.476 317.526 899.225 317.143C899.197 317.101 899.169 317.066 899.141 317.024C898.904 316.634 898.66 316.25 898.409 315.867C898.381 315.825 898.353 315.79 898.325 315.748C898.088 315.358 897.844 314.974 897.593 314.591C897.565 314.549 897.537 314.514 897.509 314.472C897.272 314.082 897.035 313.698 896.777 313.315C896.749 313.273 896.721 313.238 896.693 313.196C896.456 312.806 896.212 312.422 895.961 312.039C892.356 306.635 887.015 302.535 880.928 300.513C879.199 299.934 877.463 299.537 875.476 299.265C874.702 299.158 870.33 299.103 862.36 299.098C851.964 299.091 830.99 299.084 797.675 299.084C786.686 299.084 776.227 299.084 766.773 299.084C723.647 299.084 721.611 299.084 721.018 299.119H720.976C716.758 299.404 712.386 300.736 708.67 302.877C706.404 304.181 704.577 305.589 702.569 307.59C702.394 307.765 678.694 332.273 677.628 333.508C674.058 337.635 671.68 342.621 670.773 347.92C670.453 349.775 670.355 350.981 670.355 353.073C670.355 355.165 670.481 356.643 670.836 358.56C671.352 361.363 672.321 364.292 673.576 366.795V366.809L673.59 366.823C674.176 367.987 674.832 369.103 675.557 370.17C675.815 370.602 676.087 371.027 676.372 371.446C676.63 371.878 676.902 372.303 677.188 372.722C677.446 373.154 677.718 373.579 678.004 373.991C678.262 374.423 678.534 374.848 678.82 375.267C679.078 375.699 679.35 376.124 679.636 376.543C679.894 376.975 680.166 377.4 680.451 377.819C680.709 378.251 680.981 378.676 681.267 379.095C681.525 379.527 681.797 379.952 682.083 380.371C682.341 380.803 682.613 381.228 682.899 381.647C683.157 382.079 683.429 382.504 683.715 382.916C683.973 383.348 684.245 383.773 684.53 384.192C684.788 384.624 685.06 385.049 685.346 385.461C685.604 385.893 685.876 386.318 686.162 386.737C686.42 387.169 686.692 387.594 686.978 388.013C687.236 388.445 687.508 388.87 687.794 389.289C688.052 389.721 688.324 390.146 688.609 390.558C688.867 390.99 689.139 391.415 689.425 391.834C689.683 392.266 689.955 392.691 690.241 393.11C690.499 393.542 690.771 393.967 691.057 394.386C691.315 394.818 691.587 395.243 691.873 395.662C692.131 396.094 692.403 396.519 692.688 396.931C692.946 397.363 693.218 397.788 693.504 398.2C693.762 398.632 694.034 399.057 694.32 399.476C694.578 399.908 694.85 400.333 695.136 400.752C695.394 401.184 695.666 401.609 695.952 402.021C696.21 402.453 696.482 402.878 696.767 403.297C697.025 403.729 697.297 404.154 697.583 404.573C697.841 405.005 698.113 405.43 698.399 405.849C698.657 406.281 698.929 406.706 699.215 407.125C699.473 407.557 699.745 407.982 700.031 408.394C700.289 408.826 700.561 409.251 700.846 409.67C701.104 410.102 701.376 410.527 701.662 410.946C701.92 411.378 702.192 411.803 702.478 412.222C702.736 412.654 703.008 413.079 703.294 413.498C703.552 413.93 703.824 414.355 704.11 414.774C704.368 415.206 704.639 415.631 704.925 416.05C705.183 416.482 705.455 416.907 705.741 417.326C705.999 417.758 706.271 418.183 706.557 418.601C709.604 423.636 714.032 427.645 719.24 430.037C721.98 431.299 724.763 432.073 727.984 432.477C729.079 432.616 729.099 432.616 742.849 432.63C754.229 432.644 775.154 432.644 816.934 432.651C831.395 432.651 843.862 432.651 854.495 432.651C903.206 432.651 904.649 432.63 905.291 432.596C909.321 432.358 913.002 431.382 916.545 429.604C924.954 425.393 930.88 417.27 932.421 407.864C932.442 407.745 932.456 407.641 932.47 407.55C932.491 407.424 932.512 407.299 932.526 407.173C932.791 405.402 932.791 405.27 932.791 392.182V390.648C932.791 376.326 932.791 376.229 932.609 374.89C931.975 369.988 930.392 365.686 927.75 361.74L927.777 361.803Z" fill="black"/>
<path d="M1339.43 101.626C1339.42 85.863 1339.37 77.6074 1339.29 76.8592V76.8313C1338.7 71.7552 1337.04 67.1951 1334.33 63.2207C1334.07 62.7884 1333.8 62.3631 1333.51 61.9517C1333.26 61.5194 1332.98 61.0941 1332.7 60.6757C1332.44 60.2434 1332.17 59.8181 1331.88 59.3998C1331.62 58.9674 1331.35 58.5421 1331.07 58.1238C1330.81 57.6915 1330.54 57.2661 1330.25 56.8547C1329.99 56.4224 1329.72 55.9971 1329.44 55.5788C1329.18 55.1464 1328.91 54.7211 1328.62 54.3028C1328.36 53.8705 1328.09 53.4451 1327.8 53.0268C1327.55 52.5945 1327.27 52.1691 1326.99 51.7508C1326.73 51.3185 1326.46 50.8931 1326.17 50.4818C1325.91 50.0495 1325.64 49.6241 1325.36 49.2127C1325.1 48.7804 1324.83 48.3551 1324.54 47.9368C1324.28 47.5045 1324.01 47.0791 1323.72 46.6608C1323.47 46.2285 1323.19 45.8031 1322.91 45.3848C1322.65 44.9525 1322.38 44.5271 1322.09 44.1158C1321.84 43.6835 1321.56 43.2581 1321.28 42.8467C1321.02 42.4144 1320.75 41.9891 1320.46 41.5707C1320.2 41.1384 1319.93 40.7131 1319.65 40.2948C1319.39 39.8625 1319.12 39.4371 1318.83 39.0257C1318.57 38.5934 1318.3 38.1681 1318.01 37.7497C1317.76 37.3174 1317.48 36.8921 1317.2 36.4738C1316.94 36.0415 1316.67 35.6161 1316.38 35.2047C1316.12 34.7724 1315.85 34.3471 1315.57 33.9288C1315.31 33.4964 1315.04 33.0711 1314.75 32.6597C1314.49 32.2274 1314.22 31.8021 1313.94 31.3837C1313.68 30.9514 1313.41 30.5261 1313.12 30.1078C1312.86 29.6754 1312.59 29.2501 1312.3 28.8318C1312.05 28.3995 1311.77 27.9741 1311.49 27.5627C1311.23 27.1304 1310.96 26.7051 1310.67 26.2868C1310.41 25.8545 1310.14 25.4291 1309.86 25.0108C1309.6 24.5785 1309.33 24.1531 1309.04 23.7348C1308.78 23.3025 1308.51 22.8771 1308.22 22.4588C1307.97 22.0265 1307.69 21.6011 1307.41 21.1898C1307.15 20.7575 1306.88 20.3321 1306.59 19.9207C1306.34 19.4884 1306.06 19.0631 1305.78 18.6448C1305.52 18.2125 1305.25 17.7871 1304.96 17.3688C1304.7 16.9365 1304.43 16.5111 1304.15 16.0997C1303.89 15.6674 1303.62 15.2421 1303.33 14.8238C1302.49 13.4292 1301.52 12.0975 1300.43 10.8424H1300.42V10.8215C1299.51 9.78255 1298.06 8.36013 1297.03 7.5025C1291.76 3.13764 1285.15 0.732082 1278.4 0.732082C1277.07 0.732082 1275.74 0.829699 1274.44 1.01796C1268.17 1.91743 1262.67 4.73437 1258.08 9.38511L1258.07 9.39905L1258.06 9.413C1257.31 10.173 1237.06 33.0363 1228.39 42.8328C1177.52 100.287 1130.21 153.718 1127.45 156.821C1127.33 156.933 1127.13 157.114 1127.03 157.198C1126.36 157.735 1125.65 158.055 1124.81 158.188C1124.63 158.202 1124.29 158.216 1123.93 158.216C1123.87 158.216 1123.82 158.216 1123.78 158.216C1122.74 158.104 1121.88 157.714 1121.11 157.003C1119.17 154.834 1105.06 138.978 1085.24 116.638C1077.19 107.574 1067.53 96.6824 1057.82 85.7423L1043.24 69.3218L1042.33 68.2898L1041.47 67.3276L1040.96 66.7559L1038.43 63.9041C1034.13 59.0581 1030.05 54.4562 1026.37 50.3074L1020.19 43.3488C992.218 11.8325 990.294 9.71282 989.903 9.30144C989.506 8.89703 988.844 8.25554 988.286 7.76746C983.9 3.89765 978.531 1.49907 972.772 0.836671C971.328 0.669326 969.132 0.662354 969.104 0.662354C968.484 0.662354 967.988 0.683271 967.507 0.732082H967.431L967.382 0.746027C967.263 0.759972 967.103 0.773918 966.957 0.787863H966.922C963.693 1.08071 960.395 1.97321 957.39 3.36773C949.288 7.12598 943.396 14.259 941.256 22.9399V22.9748C940.83 24.697 940.565 26.3495 940.426 28.1763V28.2182C940.321 29.6336 940.321 69.775 940.426 71.1695C940.823 76.5315 942.566 81.5727 945.488 85.8888C945.746 86.3211 946.018 86.7464 946.304 87.1647C946.562 87.597 946.834 88.0224 947.119 88.4338C947.377 88.8661 947.649 89.2914 947.935 89.7098C948.193 90.1421 948.465 90.5674 948.751 90.9857C949.009 91.418 949.281 91.8434 949.567 92.2617C949.825 92.694 950.097 93.1194 950.383 93.5308C950.641 93.9631 950.913 94.3884 951.198 94.8067C951.456 95.239 951.728 95.6644 952.014 96.0827C952.272 96.515 952.544 96.9404 952.83 97.3517C953.088 97.784 953.36 98.2094 953.646 98.6277C953.904 99.06 954.176 99.4854 954.462 99.9037C954.72 100.336 954.992 100.761 955.277 101.18C955.535 101.612 955.807 102.037 956.093 102.449C956.351 102.881 956.623 103.306 956.909 103.725C957.167 104.157 957.439 104.582 957.725 105.001C957.983 105.433 958.255 105.858 958.541 106.277C958.799 106.709 959.071 107.134 959.356 107.553C959.614 107.985 959.886 108.41 960.172 108.822C960.43 109.254 960.702 109.679 960.988 110.098C961.246 110.53 961.518 110.955 961.804 111.374C962.062 111.806 962.334 112.231 962.62 112.65C962.878 113.082 963.15 113.507 963.435 113.926C963.693 114.358 963.965 114.783 964.251 115.202C964.509 115.634 964.781 116.059 965.067 116.471C965.325 116.903 965.597 117.328 965.883 117.747C966.141 118.179 966.413 118.604 966.699 119.023C966.957 119.455 967.228 119.88 967.514 120.299C967.772 120.731 968.044 121.156 968.33 121.575C968.588 122.007 968.86 122.432 969.146 122.851C969.404 123.283 969.676 123.708 969.962 124.12C970.22 124.552 970.492 124.977 970.778 125.396C971.036 125.828 971.307 126.253 971.593 126.672C971.851 127.104 972.123 127.529 972.409 127.948C972.667 128.38 972.939 128.805 973.225 129.217C973.483 129.649 973.755 130.074 974.041 130.493C974.299 130.925 974.571 131.35 974.857 131.769C975.115 132.201 975.387 132.626 975.672 133.038C975.93 133.47 976.202 133.895 976.488 134.314C977.192 135.478 977.973 136.601 978.845 137.667L978.866 137.695C981.006 140.157 1134.16 312.841 1135.12 313.866C1139.42 318.489 1145.23 321.598 1151.46 322.623C1153.39 322.944 1155.29 322.993 1156.25 322.993C1157.07 322.993 1157.84 322.958 1158.55 322.895C1165.5 322.275 1171.76 319.297 1176.65 314.298C1177.31 313.601 1181.26 309.215 1221.26 264.5C1223.22 262.31 1225.14 260.17 1227.01 258.071V258.615C1227.02 302.528 1227.03 328.006 1227.04 340.947C1227.06 355.29 1227.06 355.52 1227.2 356.608C1227.71 360.98 1228.97 364.85 1231.04 368.447C1231.42 369.103 1231.81 369.723 1232.22 370.323C1232.48 370.762 1232.75 371.181 1233.03 371.599C1233.3 372.038 1233.57 372.457 1233.85 372.875C1234.11 373.314 1234.38 373.74 1234.66 374.151C1234.93 374.59 1235.2 375.009 1235.48 375.42C1235.74 375.859 1236.02 376.278 1236.3 376.696C1236.56 377.135 1236.83 377.561 1237.11 377.972C1237.38 378.411 1237.65 378.83 1237.93 379.248C1238.19 379.687 1238.46 380.106 1238.74 380.524C1239.01 380.963 1239.28 381.389 1239.56 381.8C1239.82 382.239 1240.1 382.658 1240.37 383.069C1240.64 383.508 1240.91 383.927 1241.19 384.345C1241.45 384.784 1241.73 385.203 1242.01 385.621C1242.27 386.06 1242.54 386.479 1242.82 386.89C1243.09 387.329 1243.36 387.748 1243.64 388.166C1243.9 388.605 1244.17 389.024 1244.45 389.442C1244.72 389.881 1244.99 390.3 1245.27 390.711C1245.53 391.15 1245.81 391.576 1246.08 391.987C1246.35 392.426 1246.62 392.845 1246.9 393.256C1247.17 393.695 1247.44 394.121 1247.72 394.532C1247.98 394.971 1248.25 395.39 1248.53 395.808C1248.8 396.247 1249.07 396.666 1249.35 397.084C1249.61 397.523 1249.88 397.942 1250.16 398.36C1250.43 398.799 1250.7 399.225 1250.98 399.636C1251.24 400.075 1251.52 400.494 1251.8 400.912C1252.06 401.351 1252.33 401.77 1252.61 402.181C1252.88 402.62 1253.15 403.046 1253.43 403.457C1253.69 403.896 1253.96 404.315 1254.24 404.726C1254.51 405.165 1254.78 405.591 1255.06 406.002C1255.32 406.441 1255.6 406.86 1255.87 407.278C1256.14 407.717 1256.41 408.136 1256.69 408.554C1256.95 408.993 1257.23 409.419 1257.51 409.83C1257.77 410.269 1258.04 410.688 1258.32 411.099C1258.59 411.538 1258.86 411.957 1259.14 412.375C1259.4 412.814 1259.67 413.233 1259.95 413.644C1260.22 414.083 1260.49 414.502 1260.77 414.913C1261.03 415.352 1261.31 415.778 1261.58 416.189C1261.85 416.628 1262.12 417.047 1262.4 417.465C1262.67 417.904 1262.94 418.323 1263.22 418.741C1264.41 420.714 1265.71 422.395 1267.39 424.096C1269.72 426.488 1272.2 428.3 1275.19 429.8C1278.17 431.292 1281.28 432.219 1284.73 432.644H1284.75C1285.6 432.751 1290.24 432.81 1298.67 432.819C1301.51 432.819 1303.73 432.819 1305.46 432.819C1311.21 432.819 1312.42 432.798 1314.1 432.582C1319.03 431.947 1323.76 430.016 1327.77 426.99C1333.17 422.911 1337.04 416.991 1338.69 410.318C1338.99 409.07 1339.23 407.738 1339.39 406.358C1339.48 405.595 1339.52 397.272 1339.53 381.389C1339.54 360.248 1339.55 320.692 1339.55 241.65C1339.55 162.609 1339.55 122.823 1339.53 101.738L1339.43 101.626Z" fill="black"/>
<path d="M931.089 71.567C930.225 69.1335 929.06 66.8604 927.659 64.7896C927.401 64.3573 927.129 63.9319 926.843 63.5205C926.585 63.0882 926.313 62.6629 926.027 62.2446C925.769 61.8123 925.497 61.3869 925.212 60.9686C924.954 60.5363 924.682 60.1109 924.396 59.6996C924.138 59.2673 923.866 58.8419 923.58 58.4236C923.322 57.9913 923.05 57.5659 922.764 57.1545C922.506 56.7222 922.234 56.2969 921.948 55.8786C921.69 55.4463 921.418 55.0209 921.132 54.6026C920.875 54.1703 920.603 53.7449 920.317 53.3335C920.059 52.9012 919.787 52.4759 919.501 52.0576C919.243 51.6253 918.971 51.1999 918.685 50.7816C918.427 50.3493 918.155 49.9239 917.869 49.5125C917.611 49.0802 917.339 48.6549 917.054 48.2366C916.796 47.8043 916.524 47.3789 916.238 46.9675C915.98 46.5352 915.708 46.1099 915.422 45.6915C915.164 45.2592 914.892 44.8339 914.606 44.4156C914.348 43.9833 914.076 43.5579 913.79 43.1465C913.532 42.7142 913.26 42.2889 912.975 41.8706C912.717 41.4382 912.445 41.0129 912.159 40.5946C911.901 40.1623 911.629 39.7369 911.343 39.3255C911.085 38.8932 910.813 38.4679 910.527 38.0496C910.269 37.6173 909.997 37.1919 909.711 36.7736C909.453 36.3413 909.181 35.9159 908.896 35.4976C908.638 35.0653 908.366 34.6399 908.08 34.2216C907.822 33.7893 907.55 33.3639 907.264 32.9456C907.006 32.5133 906.734 32.088 906.448 31.6696C906.19 31.2373 905.918 30.812 905.632 30.3936C905.374 29.9613 905.103 29.536 904.817 29.1246C904.559 28.6923 904.287 28.267 904.001 27.8486C903.743 27.4163 903.471 26.991 903.185 26.5726C902.927 26.1403 902.655 25.715 902.369 25.2966C902.111 24.8643 901.839 24.439 901.553 24.0206C901.295 23.5883 901.023 23.163 900.738 22.7446C900.48 22.3123 900.208 21.887 899.922 21.4687C899.664 21.0363 899.392 20.611 899.106 20.1996C898.848 19.7673 898.576 19.342 898.29 18.9236C898.032 18.4913 897.76 18.066 897.474 17.6477C897.216 17.2153 896.944 16.79 896.659 16.3717C892.635 9.72675 886.193 4.92261 878.565 3.09578C876.78 2.66348 875.246 2.44733 873.286 2.34971H873.265C872.833 2.32879 870.888 2.3009 791.184 2.3009C699.131 2.3009 698.364 2.33577 698.029 2.35668C687.543 2.84477 678.402 8.86912 673.604 18.4634C670.857 23.9509 669.818 30.031 670.592 36.0414C671.192 40.6922 672.844 45.057 675.417 48.8711C675.675 49.3034 675.947 49.7287 676.233 50.1471C676.491 50.5794 676.763 51.0047 677.049 51.4161C677.307 51.8484 677.579 52.2737 677.865 52.6921C678.123 53.1244 678.395 53.5497 678.68 53.9611C678.938 54.3934 679.21 54.8187 679.496 55.2371C679.754 55.6694 680.026 56.0947 680.312 56.5061C680.57 56.9384 680.842 57.3637 681.128 57.7821C681.386 58.2144 681.658 58.6397 681.944 59.0581C682.202 59.4904 682.474 59.9157 682.759 60.3271C683.017 60.7594 683.289 61.1847 683.575 61.6031C683.833 62.0354 684.105 62.4607 684.391 62.8791C684.649 63.3114 684.921 63.7367 685.207 64.1551C685.465 64.5874 685.737 65.0127 686.023 65.4241C686.281 65.8564 686.553 66.2817 686.838 66.7001C687.096 67.1324 687.368 67.5577 687.654 67.9761C687.912 68.4084 688.184 68.8337 688.47 69.2451C688.728 69.6774 689 70.1027 689.286 70.5211C689.544 70.9534 689.816 71.3787 690.102 71.7901C690.36 72.2224 690.632 72.6477 690.917 73.0661C691.175 73.4984 691.447 73.9237 691.733 74.3351C691.991 74.7674 692.263 75.1927 692.549 75.6111C692.807 76.0434 693.079 76.4687 693.365 76.8871C693.623 77.3194 693.895 77.7447 694.181 78.1631C694.439 78.5954 694.711 79.0207 694.996 79.4391C695.254 79.8714 695.526 80.2967 695.812 80.7081C696.07 81.1404 696.342 81.5657 696.628 81.9841C696.886 82.4164 697.158 82.8417 697.444 83.2531C697.702 83.6854 697.974 84.1107 698.26 84.5291C698.518 84.9614 698.789 85.3867 699.075 85.8051C699.333 86.2374 699.605 86.6627 699.891 87.0741C700.149 87.5064 700.421 87.9317 700.707 88.3501C700.965 88.7824 701.237 89.2077 701.523 89.6191C701.781 90.0514 702.053 90.4767 702.339 90.8951C702.597 91.3274 702.868 91.7527 703.154 92.1711C703.412 92.6034 703.684 93.0287 703.97 93.4471C704.228 93.8794 704.5 94.3047 704.786 94.7231C705.044 95.1554 705.316 95.5807 705.602 95.9921C705.86 96.4244 706.132 96.8497 706.418 97.2681C707.422 98.9275 708.586 100.496 709.911 101.947L709.925 101.961L709.939 101.975C710.078 102.128 733.75 126.755 734.698 127.676L734.726 127.697L734.754 127.718C739.328 132.117 745.053 134.864 751.293 135.666C752.423 135.813 752.472 135.813 763.907 135.827C773.822 135.834 792.299 135.841 829.219 135.841C880.238 135.841 906.134 135.797 906.901 135.708C912.291 135.081 917.339 132.996 921.523 129.684C928.063 124.517 932.059 117.022 932.763 108.585C932.874 107.225 932.874 80.6453 932.763 79.2717C932.54 76.5942 931.975 73.9934 931.103 71.553L931.089 71.567Z" fill="black"/>
<path d="M932.519 225.955L932.505 225.892C932.491 225.815 932.484 225.753 932.47 225.683L932.435 225.46V225.432C931.787 221.604 930.378 217.86 928.363 214.589C927.945 213.906 927.492 213.244 927.017 212.602C926.759 212.212 926.487 211.821 926.209 211.445C925.958 211.075 925.7 210.706 925.435 210.35C925.184 209.974 924.926 209.611 924.661 209.248C924.41 208.872 924.152 208.502 923.887 208.14C923.636 207.763 923.378 207.394 923.113 207.024C922.862 206.648 922.604 206.271 922.339 205.902C922.088 205.518 921.83 205.142 921.565 204.779C921.314 204.402 921.063 204.026 920.798 203.663C920.547 203.28 920.289 202.91 920.024 202.548C919.773 202.164 919.515 201.788 919.243 201.418C918.992 201.035 918.734 200.651 918.462 200.282C918.211 199.891 917.953 199.515 917.681 199.138C917.43 198.748 917.172 198.364 916.9 197.988C916.663 197.618 916.419 197.255 916.168 196.907C915.917 196.516 915.652 196.133 915.387 195.749C915.136 195.352 914.871 194.968 914.599 194.585C914.348 194.188 914.083 193.797 913.811 193.414C913.567 193.023 913.316 192.647 913.051 192.27C912.814 191.887 912.563 191.517 912.305 191.147C912.054 190.743 911.789 190.346 911.517 189.955C911.266 189.544 911.001 189.146 910.729 188.749C910.492 188.365 910.241 187.982 909.983 187.605C909.739 187.208 909.488 186.824 909.23 186.441C908.979 186.023 908.714 185.611 908.442 185.214C908.198 184.809 907.947 184.412 907.682 184.021C907.445 183.624 907.201 183.24 906.95 182.864C906.699 182.439 906.434 182.013 906.162 181.602C905.925 181.198 905.681 180.8 905.423 180.41C905.186 179.998 904.935 179.594 904.677 179.196C904.426 178.764 904.168 178.332 903.903 177.92C903.68 177.523 903.443 177.132 903.199 176.742C902.948 176.296 902.69 175.85 902.418 175.424C902.167 174.971 901.902 174.518 901.63 174.078C901.421 173.695 901.205 173.318 900.982 172.949C900.766 172.538 900.535 172.126 900.298 171.729C900.04 171.22 899.768 170.725 899.476 170.237C899.259 169.818 899.043 169.407 898.806 169.002C898.597 168.577 898.374 168.159 898.144 167.74C897.684 166.778 897.182 165.844 896.631 164.951C892.998 159.066 887.441 154.653 880.984 152.526C878.871 151.829 876.877 151.403 874.716 151.201C873.642 151.097 873.551 151.09 819.841 151.09C807.458 151.09 792.271 151.09 773.661 151.09C676.456 151.09 673.967 151.09 673.318 151.146C672.217 151.229 670.662 151.466 669.755 151.648H669.714C662.894 153.049 656.786 156.919 652.512 162.539C650.009 165.83 648.238 169.532 647.255 173.542C646.781 175.438 646.523 177.188 646.404 179.217V179.308C646.334 180.661 646.334 204.807 646.404 206.215V206.285C646.704 211.87 648.475 217.148 651.564 221.708C651.822 222.141 652.094 222.566 652.38 222.984C652.638 223.417 652.91 223.842 653.195 224.26C653.453 224.693 653.725 225.118 654.011 225.529C654.269 225.962 654.541 226.387 654.827 226.798C655.085 227.231 655.357 227.656 655.643 228.074C655.901 228.507 656.173 228.932 656.459 229.35C656.717 229.783 656.989 230.208 657.274 230.626C657.532 231.059 657.804 231.484 658.09 231.902C658.348 232.335 658.62 232.76 658.906 233.171C659.164 233.604 659.436 234.029 659.722 234.447C659.98 234.88 660.252 235.305 660.538 235.723C660.796 236.156 661.068 236.581 661.353 236.992C661.611 237.425 661.883 237.85 662.169 238.268C662.427 238.701 662.699 239.126 662.985 239.544C663.243 239.977 663.515 240.402 663.801 240.82C664.059 241.253 664.331 241.678 664.617 242.089C664.875 242.522 665.147 242.947 665.432 243.365C665.69 243.798 665.962 244.223 666.248 244.641C666.506 245.074 666.778 245.499 667.064 245.917C667.322 246.35 667.594 246.775 667.88 247.193C668.138 247.626 668.41 248.051 668.696 248.469C668.954 248.902 669.226 249.327 669.511 249.745C669.769 250.178 670.041 250.603 670.327 251.021C670.585 251.454 670.857 251.879 671.143 252.297C671.401 252.73 671.673 253.155 671.959 253.566C672.217 253.999 672.489 254.424 672.775 254.842C673.033 255.275 673.305 255.7 673.59 256.118C673.848 256.551 674.12 256.976 674.406 257.394C674.664 257.827 674.936 258.252 675.222 258.67C675.48 259.103 675.752 259.528 676.038 259.939C676.296 260.372 676.568 260.797 676.854 261.215C677.112 261.648 677.384 262.073 677.669 262.491C677.927 262.924 678.199 263.349 678.485 263.76C678.743 264.193 679.015 264.618 679.301 265.036C679.559 265.469 679.831 265.894 680.117 266.305C680.375 266.738 680.647 267.163 680.933 267.581C681.191 268.014 681.462 268.439 681.748 268.857C682.006 269.29 682.278 269.715 682.564 270.133C683.275 271.312 684.07 272.441 684.949 273.522C686.057 274.882 687.961 276.771 689.293 277.831C693.679 281.324 698.545 283.36 704.165 284.037C705.274 284.176 705.295 284.176 720.244 284.19C733.067 284.204 757.011 284.204 804.857 284.211C820.978 284.211 835.09 284.211 847.223 284.211C904.008 284.211 904.454 284.19 904.97 284.169C906.678 284.093 907.892 283.946 909.446 283.639C913.393 282.851 917.228 281.192 920.505 278.835C927.387 273.885 931.731 266.459 932.742 257.903C932.902 256.579 932.902 256.502 932.902 242.494V240.339C932.902 232.089 932.812 227.363 932.63 226.164L932.603 226.004L932.519 225.955Z" fill="black"/>
<path d="M887.964 26.0009C885.984 20.4298 881.403 16.2392 875.824 14.9075C874.765 14.6495 873.949 14.5379 872.736 14.4752C872.282 14.4543 832.608 14.4403 791.261 14.4403C746.231 14.4403 699.215 14.4543 698.678 14.4821C692.598 14.768 687.313 18.2822 684.489 23.9231C681.093 30.7074 682.125 38.7329 687.089 44.1646C687.64 44.7573 710.971 68.9872 711.375 69.3776C714.094 71.9854 717.379 73.5751 721.074 74.0493C721.611 74.119 724.63 74.119 797.459 74.119C860.387 74.119 873.363 74.112 873.747 74.0632C876.905 73.6937 879.813 72.5014 882.253 70.5699C886.137 67.502 888.529 62.9907 888.947 57.9355C889.003 57.2662 889.003 31.321 888.947 30.6517C888.808 29.041 888.473 27.4443 887.95 25.98L887.964 26.0009Z" fill="#FFC901"/>
<path d="M662.511 216.214C663.055 216.883 664.338 218.153 664.993 218.675C667.636 220.781 670.39 221.932 673.8 222.343C674.357 222.413 679.182 222.413 773.034 222.427C789.134 222.427 803.225 222.427 815.351 222.427C853.463 222.427 872.129 222.42 872.61 222.392C873.698 222.343 874.297 222.273 875.246 222.085C877.547 221.625 879.743 220.67 881.633 219.317C885.712 216.381 888.305 211.912 888.912 206.78C888.982 206.187 888.989 205.49 888.989 192.793V190.646C888.989 180.096 888.989 179.183 888.849 178.29C888.835 178.206 888.821 178.123 888.807 178.032C888.793 177.976 888.787 177.92 888.78 177.858C888.396 175.529 887.552 173.263 886.339 171.296C884.192 167.824 880.956 165.237 877.191 163.996C875.929 163.578 874.855 163.348 873.572 163.222C873.133 163.18 865.672 163.166 819.841 163.166C807.458 163.166 792.271 163.166 773.661 163.166C719.059 163.166 674.302 163.18 674.204 163.187C673.709 163.222 672.656 163.376 672.133 163.48C668.208 164.282 664.617 166.562 662.134 169.832C660.635 171.805 659.575 174.03 658.983 176.428C658.69 177.6 658.543 178.604 658.474 179.873C658.425 180.877 658.425 204.577 658.474 205.63C658.683 209.576 660.057 213.16 662.511 216.186V216.214Z" fill="#FFC901"/>
<path d="M1244.19 365.909C1245.6 367.346 1246.99 368.364 1248.76 369.256C1250.51 370.128 1252.26 370.644 1254.36 370.909C1254.86 370.971 1255.98 370.978 1266.83 370.992C1269.67 370.992 1271.88 370.992 1273.61 370.992C1279.27 370.992 1279.87 370.964 1280.7 370.853C1283.58 370.483 1286.28 369.375 1288.63 367.604C1291.81 365.198 1294.12 361.67 1295.1 357.682C1295.29 356.929 1295.44 356.099 1295.53 355.22C1295.6 354.628 1295.6 347.362 1295.6 191.908C1295.6 36.4528 1295.6 29.1873 1295.53 28.5877C1295.09 24.7249 1293.72 21.5175 1291.36 18.7912C1290.89 18.2473 1289.91 17.2851 1289.38 16.8458C1286.27 14.2659 1282.36 12.8575 1278.47 12.8575C1277.72 12.8575 1276.97 12.9132 1276.23 13.0178C1272.59 13.5408 1269.47 15.1515 1266.76 17.9056C1266.46 18.2124 1253.29 33.0502 1237.52 50.8722C1170.76 126.267 1136.73 164.7 1136.38 165.07C1135.96 165.53 1135.19 166.248 1134.66 166.667C1132.24 168.598 1129.44 169.797 1126.37 170.216C1125.85 170.285 1124.84 170.327 1124 170.327C1123.58 170.327 1123.21 170.32 1122.94 170.292C1118.93 169.944 1115.34 168.277 1112.49 165.425C1112.21 165.14 1095.91 146.809 1076.27 124.684C1064.15 111.032 1048.37 93.2518 1034.27 77.3682L1033.35 76.3362L1032.51 75.381L1031.99 74.7953L1029.46 71.9505C1022.56 64.176 1016.25 57.0639 1011.22 51.3952C995.077 33.2175 981.641 18.0939 981.348 17.8011C981.055 17.5012 980.63 17.0898 980.386 16.8876C977.841 14.6355 974.752 13.2549 971.433 12.8714C971.036 12.8226 969.857 12.7808 969.174 12.7808C968.972 12.7808 968.811 12.7808 968.735 12.7947H968.637C968.498 12.8156 968.281 12.8365 968.065 12.8575C966.252 13.0178 964.272 13.5547 962.55 14.3566C957.808 16.553 954.308 20.7993 953.053 25.8684C952.788 26.9491 952.628 27.9532 952.537 29.1316C952.481 29.9055 952.481 69.5379 952.537 70.2979C952.816 74.0492 954.197 77.5913 956.477 80.3804C956.881 80.8754 1111.46 255.149 1112.2 255.951C1114.68 258.615 1118.07 260.434 1121.65 261.02C1122.46 261.153 1123.53 261.229 1124.48 261.229C1124.93 261.229 1125.35 261.215 1125.7 261.181C1129.77 260.818 1133.39 259.096 1136.24 256.167C1136.49 255.93 1156.39 233.694 1180.49 206.759C1204.58 179.824 1224.45 157.63 1224.64 157.435C1225.08 156.989 1225.73 156.459 1226.21 156.166C1227.52 155.35 1229.03 154.911 1230.49 154.911C1230.68 154.911 1230.88 154.918 1231.07 154.932C1233.23 155.113 1235.14 156.012 1236.62 157.532C1237.85 158.801 1238.6 160.273 1238.96 162.148L1239.05 162.615L1239.07 258.566C1239.09 349.942 1239.09 354.544 1239.17 355.123C1239.49 357.891 1240.23 360.178 1241.48 362.353C1242.27 363.72 1243.05 364.752 1244.18 365.902L1244.19 365.909Z" fill="#FFC901"/>
<path d="M697.751 370.902C698.267 370.965 703.768 370.972 785.208 370.985C799.683 370.985 812.164 370.985 822.805 370.985C857.396 370.985 872.457 370.979 872.861 370.951C875.232 370.811 877.344 370.253 879.394 369.221C884.331 366.746 887.88 361.844 888.766 356.273C888.78 356.21 888.787 356.155 888.793 356.099C888.807 356.008 888.821 355.925 888.835 355.841C888.975 354.914 888.975 353.965 888.975 342.607V341.073C888.975 328.306 888.975 327.434 888.898 326.905C888.508 323.83 887.594 321.299 885.977 318.879C883.836 315.672 880.754 313.294 877.177 312.109C876.145 311.767 875.162 311.544 873.914 311.37C873.44 311.307 869.131 311.3 797.752 311.3C786.763 311.3 776.304 311.3 766.849 311.3C740.486 311.3 721.967 311.3 721.883 311.307C719.477 311.467 716.911 312.248 714.771 313.489C713.432 314.256 712.435 315.037 711.18 316.285C709.953 317.505 687.34 340.982 686.859 341.54C684.733 343.994 683.31 346.972 682.773 350.095C682.571 351.26 682.529 351.79 682.529 353.198C682.529 354.607 682.592 355.304 682.815 356.503C683.122 358.191 683.743 360.045 684.475 361.517C686.253 365.052 689.153 367.911 692.563 369.472C694.195 370.225 695.742 370.651 697.751 370.902Z" fill="#FFC901"/>
<path d="M82.033 370.107C83.5321 370.616 84.8638 370.874 86.5024 370.965C86.9347 370.985 103.034 370.999 123.178 370.999C157.372 370.999 203.231 370.971 204.04 370.93C206.766 370.79 208.335 370.686 210.078 370.511C219.805 369.57 229.086 367.213 237.906 363.462C239.147 362.932 240.235 362.43 242.173 361.475C252.172 356.559 260.33 351.023 267.4 344.371C268.795 343.06 270.231 341.596 272.811 338.863C279.031 332.273 284.281 325.015 288.464 317.24C290.821 312.855 293.199 307.451 295.026 302.312C298.296 293.115 300.192 283.5 300.743 273.348C300.89 270.614 300.952 266.18 300.869 263.781C300.729 259.458 300.423 255.379 299.99 252.088C298.644 241.804 296.162 232.656 292.334 223.933C289.727 217.978 286.449 212.191 282.67 206.857C281.457 205.149 280.648 203.733 279.979 202.157C277.05 195.275 277.455 187.278 281.06 180.842C281.415 180.207 281.847 179.538 282.58 178.492C287.921 170.857 292.139 162.678 295.026 154.346C295.193 153.858 295.36 153.391 295.388 153.314C295.472 153.091 296.19 150.832 296.462 149.932C298.909 141.809 300.353 133.073 300.785 123.91C301.266 113.661 300.416 103.676 298.268 94.2768C296.866 88.1549 294.977 82.4513 292.237 76.0574C287.439 64.8663 280.809 54.9303 272.016 45.7543C271.695 45.4197 270.935 44.6248 270.329 43.9903C264.005 37.3732 256.125 31.4535 247.033 26.4959C243.77 24.711 240.095 22.905 237.85 21.9847C227.684 17.7941 217.197 15.3467 206.515 14.6704C204.884 14.5658 203.887 14.5309 201.892 14.4891C200.77 14.4682 165.335 14.4542 129.328 14.4542C93.3216 14.4542 53.5637 14.4682 53.0408 14.4891C50.0425 14.6216 47.2186 15.542 44.7503 17.1875C40.4622 20.0323 37.5964 24.8295 36.9689 30.2333C36.8782 31.0072 36.8434 32.7504 36.9061 33.5383C37.0804 35.8393 37.6382 37.938 38.6074 39.9671C39.2977 41.4034 40.3785 43.0141 41.4523 44.1855C42.2472 45.0571 65.982 69.6425 66.2888 69.9145C67.4253 70.9185 68.6385 71.7413 69.9843 72.4177C71.6647 73.2613 73.2963 73.7634 75.2765 74.0562L75.8831 74.1399L139.062 74.1678C173.807 74.1817 202.339 74.2026 202.457 74.2236C202.576 74.2375 203.001 74.2654 203.391 74.2933C206.71 74.4885 210.099 75.1021 213.16 76.0504C215.196 76.6849 217.978 77.8284 220.168 78.9231C223.368 80.5338 226.115 82.4443 228.618 84.801C229.434 85.575 229.908 86.0631 231.721 88.0572C235.968 92.7219 239.356 98.8578 241.406 105.586C242.215 108.229 242.822 111.13 243.115 113.703C244.056 122.167 242.417 130.946 238.352 139.16C236.497 142.897 234.308 146.146 231.721 148.998C230.292 150.567 229.915 150.971 229.218 151.669C225.92 154.953 222.057 157.477 217.253 159.471C216.842 159.645 216.326 159.875 216.103 159.98C213.85 161.109 211.047 162.044 208.272 162.588C206.599 162.915 205.114 163.097 202.778 163.271C202.262 163.306 182.585 163.327 115.223 163.341C47.4975 163.362 28.2601 163.376 27.9881 163.41C25.6663 163.745 23.9928 164.254 22.2078 165.181C17.334 167.706 13.8965 172.558 13.0109 178.151C12.997 178.22 12.99 178.283 12.983 178.346C12.9691 178.436 12.9552 178.52 12.9412 178.604C12.8157 179.468 12.8157 180.347 12.8018 190.415V192.403C12.7878 205.386 12.7878 206.02 12.9342 207.157C13.3038 210.064 14.3009 212.721 15.9116 215.105C17.5362 217.497 19.8581 219.547 22.3821 220.816C24.1114 221.681 26.0219 222.259 27.7859 222.455C28.0858 222.489 28.4065 222.524 28.4971 222.545C28.5878 222.559 67.7739 222.587 115.592 222.601C196.949 222.622 202.569 222.629 203.252 222.692C206.648 223.012 209.186 223.48 212.24 224.365C214.018 224.874 216.737 225.836 217.95 226.38C221.074 227.782 224.184 229.846 227.308 232.579C229.274 234.301 231.617 236.693 232.983 238.366C238.087 244.6 241.762 253.05 242.947 261.292C244.014 268.725 243.038 276.241 240.012 283.849C237.85 289.28 234.817 294.14 231.212 297.954C230.968 298.212 230.529 298.686 230.236 299.007C227.879 301.601 224.902 303.93 221.527 305.819C219.017 307.228 215.238 308.811 212.505 309.612C209.548 310.477 206.773 310.944 202.938 311.223C202.422 311.258 188.728 311.279 144.103 311.293C89.4379 311.314 85.9028 311.321 85.4286 311.383C83.3159 311.676 81.6564 312.178 79.8924 313.071C78.0655 313.998 76.4339 315.232 75.0743 316.718C72.3131 319.73 70.6955 323.467 70.3817 327.546C70.3468 327.964 70.3399 331.967 70.3468 341.491C70.3608 353.965 70.3608 354.886 70.4305 355.395C70.821 358.379 71.7135 360.868 73.2474 363.211C75.3741 366.467 78.4351 368.873 82.026 370.1L82.033 370.107Z" fill="#FFC901"/>
<path d="M399.343 369.835C400.703 370.372 402.021 370.693 403.701 370.902C404.217 370.965 409.718 370.971 491.159 370.985C505.683 370.985 518.199 370.985 528.846 370.985C563.479 370.985 578.407 370.978 578.819 370.951C580.436 370.86 581.754 370.609 583.239 370.107C589.166 368.113 593.642 362.765 594.709 356.392C594.723 356.322 594.73 356.252 594.744 356.19V356.176C594.765 356.085 594.779 356.001 594.793 355.918C594.939 354.997 594.939 354.049 594.939 343.206V339.114C594.939 328.243 594.939 327.295 594.793 326.375C594.772 326.228 594.744 326.082 594.716 325.893C593.635 319.451 589.173 314.138 583.149 312.13C582.124 311.788 581.14 311.565 579.885 311.39C579.404 311.328 575.102 311.321 503.716 311.321C492.734 311.321 482.269 311.321 472.814 311.321C446.45 311.321 427.931 311.321 427.847 311.328C426.111 311.439 424.159 311.92 422.485 312.632C420.665 313.412 418.95 314.542 417.563 315.867C416.949 316.453 393.458 340.829 392.942 341.415C391.673 342.844 390.572 344.587 389.846 346.309C388.194 350.242 388.02 354.711 389.365 358.881C391.011 363.971 394.671 367.987 399.35 369.835H399.343Z" fill="#FFC901"/>
<path d="M594.814 29.7522C594.8 29.6894 594.793 29.6267 594.786 29.5639C593.789 22.3891 588.594 16.5391 581.782 14.9075C580.722 14.6495 579.906 14.5379 578.693 14.4752C578.233 14.4543 534.982 14.4403 491.716 14.4403C448.451 14.4403 405.172 14.4543 404.663 14.4752C400.173 14.6844 396.017 16.6785 393.04 20.0672C390.216 23.2816 388.598 27.4512 388.487 31.8021C388.368 36.3971 390.028 40.8596 393.089 44.1855C393.709 44.8688 416.963 69.0011 417.353 69.3706C420.094 72.0063 423.35 73.5682 427.052 74.0493C427.596 74.119 430.608 74.119 503.444 74.119C566.372 74.119 579.348 74.112 579.732 74.0632C583.588 73.61 587.018 71.9575 589.765 69.2103C591.495 67.4811 592.813 65.466 593.726 63.1441C594.291 61.7077 594.653 60.2714 594.876 58.57C594.946 58.061 594.946 57.1407 594.96 44.6666V44.6527C594.974 31.9346 594.974 30.8818 594.842 29.8428L594.828 29.7382L594.814 29.7522Z" fill="#FFC901"/>
<path d="M364.48 206.529C364.661 208.161 365.01 209.709 365.519 211.075C367.534 216.486 371.941 220.523 377.331 221.904C378.063 222.092 378.872 222.238 379.743 222.343C380.301 222.413 385.133 222.413 478.977 222.427C495.084 222.427 509.169 222.427 521.294 222.427C559.407 222.427 578.072 222.42 578.554 222.392C579.641 222.343 580.241 222.273 581.189 222.085C583.609 221.604 585.903 220.579 587.876 219.094C591.46 216.409 593.9 212.407 594.688 207.938C594.695 207.889 594.702 207.84 594.709 207.798L594.723 207.735L594.737 207.659C594.758 207.561 594.772 207.477 594.786 207.394C594.932 206.536 594.932 205.658 594.939 195.931V193.156C594.953 183.777 594.939 179.831 594.911 179.413C594.36 172.259 589.71 166.165 583.135 163.989C581.879 163.571 580.799 163.341 579.516 163.215C579.076 163.173 571.623 163.159 525.785 163.159C513.401 163.159 498.215 163.159 479.605 163.159C425.002 163.159 380.245 163.173 380.148 163.18C380.043 163.187 379.673 163.229 379.318 163.271C374.472 163.878 370.086 166.667 367.325 170.892C365.84 173.172 364.891 175.752 364.543 178.499C364.382 179.733 364.375 180.507 364.389 193.407C364.403 204.946 364.41 205.902 364.48 206.501V206.529Z" fill="#FFC901"/>
</g>
</svg>
