<svg width="443" height="145" viewBox="0 0 443 145" fill="none" xmlns="http://www.w3.org/2000/svg">
<mask id="mask0_610_73717" style="mask-type:luminance" maskUnits="userSpaceOnUse" x="0" y="0" width="443" height="145">
<path d="M442.25 0H0V145H442.25V0Z" fill="white"/>
</mask>
<g mask="url(#mask0_610_73717)">
<path d="M151.829 70.2977C151.711 67.0784 152.249 63.8684 153.411 60.8608C154.572 57.8531 156.333 55.1101 158.588 52.7962C160.842 50.4824 163.543 48.6452 166.53 47.3957C169.516 46.1458 172.726 45.5093 175.966 45.5238C188.174 45.5238 195.4 52.6462 197.58 61.0076L189.918 63.5777C189.244 60.4606 187.462 57.6893 184.9 55.7724C182.337 53.8555 179.165 52.9217 175.966 53.1417C168.055 53.1417 160.145 58.8706 160.145 70.4525C160.145 82.0344 167.868 87.5466 176.059 87.5466C179.276 87.6394 182.431 86.6552 185.018 84.7513C187.605 82.8475 189.473 80.1349 190.323 77.0486L197.767 79.4643C196.492 84.176 193.635 88.3122 189.669 91.1853C185.703 94.0585 180.867 95.4955 175.966 95.2573C172.696 95.3182 169.45 94.707 166.43 93.4615C163.409 92.2159 160.68 90.3636 158.414 88.02C156.148 85.6764 154.393 82.8924 153.26 79.8427C152.127 76.793 151.64 73.5436 151.829 70.2977Z" fill="white"/>
<path d="M212.529 94.1118H204.681V45.3998H212.529V64.5068C213.672 63.1627 215.107 62.094 216.725 61.3806C218.344 60.6672 220.103 60.3279 221.872 60.3881C230.001 60.3881 233.925 66.179 233.925 73.3946V94.1118H226.295V74.7261C226.438 73.7832 226.366 72.8201 226.083 71.9087C225.8 70.9974 225.315 70.1611 224.663 69.4618C224.01 68.7629 223.208 68.2188 222.315 67.8701C221.422 67.5217 220.462 67.3775 219.505 67.4489C218.556 67.4496 217.618 67.6465 216.749 68.0267C215.88 68.4073 215.101 68.963 214.459 69.659C213.818 70.3547 213.329 71.1754 213.024 72.0693C212.718 72.9629 212.603 73.9097 212.685 74.85L212.529 94.1118Z" fill="white"/>
<path d="M251.46 75.3456L259.9 74.0449C261.8 73.797 262.329 72.8371 262.329 71.6912C262.329 68.9351 260.46 66.7054 256.1 66.7054C255.259 66.6336 254.413 66.7326 253.612 66.9957C252.81 67.2593 252.071 67.6816 251.439 68.2377C250.807 68.7937 250.295 69.4716 249.935 70.2303C249.574 70.989 249.372 71.8126 249.342 72.6511L242.179 71.0409C242.77 65.3739 247.94 60.3261 256.038 60.3261C266.191 60.3261 270.053 66.055 270.053 72.7131V88.9712C270.035 90.7344 270.17 92.4958 270.458 94.2354H263.139C262.888 92.8569 262.783 91.4554 262.827 90.0551C261.734 91.7211 260.222 93.0747 258.442 93.9817C256.661 94.8887 254.673 95.3179 252.674 95.2265C251.281 95.3403 249.879 95.1721 248.552 94.7321C247.226 94.292 246.004 93.5887 244.959 92.6655C243.914 91.7418 243.067 90.6173 242.472 89.3598C241.876 88.1019 241.544 86.7371 241.493 85.348C241.493 79.3711 245.822 76.1507 251.46 75.3456ZM262.329 80.6098V79.1235L253.733 80.393C252.565 80.4329 251.457 80.9183 250.64 81.7484C249.822 82.5789 249.357 83.6903 249.342 84.8525C249.352 85.4524 249.487 86.0437 249.738 86.5889C249.99 87.1344 250.353 87.6216 250.803 88.0204C251.254 88.4191 251.783 88.7207 252.357 88.9056C252.931 89.0905 253.538 89.155 254.138 89.0948C255.272 89.2101 256.418 89.0666 257.488 88.6754C258.558 88.2846 259.525 87.6561 260.315 86.8383C261.104 86.0205 261.696 85.0345 262.045 83.9553C262.394 82.8761 262.491 81.7321 262.329 80.6098Z" fill="white"/>
<path d="M283.383 44.7187C284.063 44.7104 284.738 44.8365 285.368 45.0899C285.999 45.3429 286.573 45.7177 287.056 46.1933C287.54 46.6686 287.925 47.2344 288.187 47.8587C288.449 48.4825 288.584 49.1521 288.584 49.8285C288.584 51.1752 288.046 52.4671 287.088 53.4194C286.13 54.3721 284.831 54.9071 283.476 54.9071C282.121 54.9071 280.822 54.3721 279.864 53.4194C278.906 52.4671 278.368 51.1752 278.368 49.8285C278.368 48.4945 278.892 47.2131 279.829 46.2582C280.766 45.3038 282.041 44.751 283.383 44.7187ZM279.552 94.2666V61.3484H287.307V94.1119L279.552 94.2666Z" fill="white"/>
<path d="M305.308 94.1118H297.46V61.3483H305.121V65.7146C306.116 64.0384 307.546 62.6591 309.261 61.7221C310.976 60.7846 312.914 60.3239 314.87 60.3881C322.905 60.3881 326.767 66.179 326.767 73.3946V94.1118H318.918V74.726C318.918 70.7005 317.081 67.4488 312.16 67.4488C311.18 67.4546 310.213 67.6667 309.322 68.0705C308.431 68.4743 307.636 69.0612 306.989 69.792C306.341 70.5232 305.857 71.3823 305.568 72.3129C305.278 73.243 305.19 74.224 305.308 75.1907V94.1118Z" fill="white"/>
<path d="M336.328 94.1118V45.3998H344.176V94.1118H336.328Z" fill="white"/>
<path d="M358.191 44.7187C359.554 44.7187 360.862 45.257 361.825 46.2155C362.79 47.1736 363.33 48.4731 363.33 49.8285C363.323 50.8301 363.018 51.8078 362.457 52.6383C361.893 53.4688 361.095 54.1147 360.163 54.4954C359.231 54.876 358.207 54.9739 357.218 54.777C356.231 54.5798 355.323 54.097 354.611 53.3883C353.899 52.68 353.413 51.7781 353.215 50.7957C353.017 49.8133 353.115 48.795 353.498 47.8681C353.881 46.9416 354.53 46.1481 355.366 45.5876C356.201 45.0272 357.184 44.7249 358.191 44.7187ZM354.33 94.2667V61.3484H362.115V94.1119L354.33 94.2667Z" fill="white"/>
<path d="M380.118 94.1118H372.269V61.3484H379.9V65.7147C380.897 64.0428 382.329 62.6675 384.043 61.7308C385.758 60.7941 387.694 60.3308 389.648 60.3881C397.713 60.3881 401.574 66.179 401.574 73.3946V94.1118H393.726V74.7261C393.871 73.7832 393.798 72.82 393.516 71.9087C393.233 70.9974 392.747 70.1611 392.095 69.4618C391.442 68.7629 390.641 68.2188 389.745 67.8701C388.854 67.5217 387.893 67.3775 386.936 67.4489C385.961 67.4543 384.993 67.666 384.105 68.0702C383.213 68.4744 382.419 69.0616 381.774 69.7935C381.129 70.525 380.65 71.3845 380.364 72.3151C380.078 73.2456 379.994 74.2254 380.118 75.1908V94.1118Z" fill="white"/>
<path d="M428.421 75.1908L442.25 94.1119H432.626L422.94 80.6098L418.89 84.8525V94.1427H411.104V45.3998H418.89V74.6021L431.538 61.3484H441.971L428.421 75.1908Z" fill="white"/>
<path d="M58.8316 32.2388L92.779 51.6243V90.5503L58.9251 110.06L24.9778 90.7055V51.7791L58.8316 32.2388ZM58.8316 3.62498L46.3739 10.8094L12.4577 30.3499L0 37.5343V51.8411V90.7363V105.043L12.4577 112.166L46.4051 131.551L58.8627 138.674L71.3208 131.489L105.175 111.949L117.632 104.795V90.4887V51.5623V37.2556L105.175 30.1331L71.2273 10.7475L58.7696 3.62498H58.8316Z" fill="white"/>
</g>
</svg>
