<svg width="3529" height="827" viewBox="0 0 3529 827" fill="none" xmlns="http://www.w3.org/2000/svg">
<path d="M512.184 600.981L365.174 665.077V658.609C336.948 665.665 305.193 669.782 275.791 671.546C137.014 670.37 27.6379 597.453 25.8738 511.599V479.845C71.153 545.705 164.063 590.396 275.791 588.632C313.426 590.396 352.237 584.516 384.579 575.695L397.516 543.941C359.293 555.702 316.954 563.346 275.791 563.346C137.014 563.346 27.6379 491.017 25.8738 403.399V377.525C71.153 438.682 164.063 482.785 275.791 479.845C326.363 482.785 375.17 472.2 416.921 453.971L423.39 422.217C382.815 443.386 330.479 455.735 276.379 453.971C137.602 455.735 28.226 383.406 26.4619 294.024V268.15C71.741 330.482 164.652 375.173 276.379 376.937C339.888 375.173 399.868 358.12 449.263 332.246L455.732 294.024C411.041 326.954 345.768 348.711 276.379 351.652C137.602 348.711 28.226 275.794 26.4619 185.236C27.6379 98.7939 137.602 26.4649 276.379 25.2888C358.705 26.4649 435.738 55.279 481.018 102.322L485.722 109.967H518.064L513.36 102.322C468.081 40.5779 376.934 0.00306555 276.379 0.00306555C122.313 -0.584976 0 83.5049 0 184.648V191.116V517.479C5.29237 616.27 124.665 696.832 275.203 696.832C374.582 697.42 464.552 658.021 512.184 600.981Z" fill="white"/>
<path d="M452.204 826.2L503.952 606.272L355.178 670.957L445.736 289.906H271.676L316.955 102.321H872.654L827.375 289.906H646.258L607.447 393.402L807.969 309.312L452.204 826.2ZM542.763 561.581L516.889 690.95L730.348 368.116L555.7 445.737L633.321 264.62H807.969L840.311 128.783H335.772L303.43 264.62H478.078L393.988 626.266L542.763 561.581Z" fill="#FABF2C"/>
<path d="M1241.36 228.75C1241.94 249.331 1235.48 265.208 1222.54 276.969C1209.6 288.73 1191.96 294.61 1169.03 294.61C1146.09 294.61 1127.28 286.966 1113.16 272.265C1099.05 257.564 1091.99 238.158 1091.99 214.637V176.414C1091.99 152.892 1099.05 133.487 1112.57 118.786C1126.69 104.085 1144.92 96.4406 1167.26 96.4406C1190.78 96.4406 1209.01 102.321 1222.54 113.494C1236.06 125.255 1242.53 141.132 1241.94 161.713V162.301H1204.31C1204.31 149.952 1201.37 140.544 1195.49 134.663C1189.61 128.783 1180.2 125.843 1167.85 125.843C1156.09 125.843 1147.27 130.547 1140.8 139.956C1134.33 149.364 1130.8 161.125 1130.8 175.826V214.637C1130.8 229.338 1134.33 241.687 1140.8 251.095C1147.86 260.504 1157.27 265.208 1169.61 265.208C1181.38 265.208 1189.61 262.268 1195.49 256.388C1201.37 250.507 1204.31 241.099 1204.31 228.75H1241.36ZM1454.23 212.873C1454.23 236.394 1446.58 256.388 1431.88 271.677C1417.18 286.966 1397.77 294.61 1373.66 294.61C1349.56 294.61 1330.74 286.966 1315.45 271.677C1300.75 256.388 1293.1 236.394 1293.1 212.873V178.178C1293.1 154.657 1300.75 135.251 1315.45 119.374C1330.15 104.085 1349.56 95.8525 1373.08 95.8525C1397.19 95.8525 1416.59 103.497 1431.29 119.374C1446.58 134.663 1453.64 154.657 1453.64 178.178V212.873H1454.23ZM1415.42 177.59C1415.42 162.301 1411.89 150.54 1404.24 140.544C1396.6 131.135 1386.6 125.843 1373.08 125.843C1360.14 125.843 1349.56 130.547 1342.5 140.544C1335.44 149.952 1331.33 162.301 1331.33 177.59V212.285C1331.33 227.574 1334.85 239.922 1342.5 249.919C1349.56 259.328 1360.14 264.62 1373.08 264.62C1386.6 264.62 1396.6 259.916 1404.24 249.919C1411.89 240.511 1415.42 227.574 1415.42 212.285V177.59ZM1554.19 291.67H1515.38V98.7927H1554.19V291.67ZM1777.06 291.67H1738.25L1660.63 161.713H1660.04V291.67H1621.23V98.7927H1660.04L1737.66 228.75H1738.25V98.7927H1777.06V291.67ZM1971.7 128.783H1916.43V291.67H1877.62V128.783H1823.52V98.7927H1971.7V128.783ZM2131.65 206.992H2059.91V262.268H2145.17V291.67H2021.69V98.7927H2145.17V128.783H2060.5V177.002H2132.24V206.992H2131.65ZM2239.26 262.268H2325.7V291.67H2200.45V98.7927H2239.26V262.268ZM2490.35 206.992H2418.61V262.268H2503.88V291.67H2380.39V98.7927H2503.88V128.783H2419.2V177.002H2490.94V206.992H2490.35ZM2707.34 265.796C2701.46 273.441 2692.64 280.497 2680.29 286.378C2668.53 292.258 2653.24 295.198 2634.42 295.198C2610.9 295.198 2592.09 288.142 2577.38 273.441C2562.68 258.74 2555.04 239.923 2555.04 216.401V175.826C2555.04 152.305 2562.1 133.487 2576.8 118.786C2590.91 104.085 2609.73 96.4406 2632.07 96.4406C2655.59 96.4406 2673.82 102.321 2686.17 113.494C2698.52 124.667 2704.99 139.368 2704.4 158.185V158.773H2667.94C2667.94 148.776 2665 140.544 2659.12 134.663C2653.24 128.783 2644.42 125.843 2633.25 125.843C2621.49 125.843 2612.08 130.547 2604.43 139.368C2597.38 148.776 2593.85 160.537 2593.85 174.65V215.225C2593.85 229.926 2597.38 241.687 2605.02 251.095C2612.67 260.504 2622.66 264.62 2635.01 264.62C2644.42 264.62 2651.48 263.444 2656.77 261.68C2662.06 259.916 2666.18 257.564 2669.12 254.624V216.989H2632.07V189.939H2707.93V265.796H2707.34ZM2807.31 214.637V291.67H2768.5V98.7927H2835.53C2857.29 98.7927 2874.93 104.085 2887.28 114.082C2899.63 124.079 2906.1 138.191 2906.1 155.833C2906.1 165.829 2903.75 174.062 2898.46 181.707C2893.16 188.763 2885.52 194.643 2875.52 199.348C2886.69 202.876 2894.93 208.168 2900.22 216.401C2904.92 224.045 2907.86 234.042 2907.86 245.803V259.916C2907.86 265.208 2908.45 271.089 2910.22 276.969C2911.39 282.85 2914.33 286.966 2917.86 289.906V292.846H2877.87C2874.35 289.906 2871.99 285.202 2870.82 278.733C2869.64 272.265 2869.05 265.796 2869.05 259.916V246.391C2869.05 236.982 2866.7 229.338 2861.41 224.045C2856.12 218.753 2848.47 215.813 2839.06 215.813H2807.31V214.637ZM2807.31 185.235H2834.95C2845.53 185.235 2853.76 182.883 2859.06 178.178C2864.35 173.474 2867.29 167.006 2867.29 157.597C2867.29 148.776 2864.35 141.72 2859.06 136.427C2853.76 131.135 2846.12 128.783 2835.53 128.783H2807.31V185.235ZM3070.16 250.507H3007.83L2994.89 292.258H2954.32L3019.59 99.3808H3058.99L3123.68 292.258H3083.1L3070.16 250.507ZM3017.24 219.929H3060.75L3039.59 151.716H3039L3017.24 219.929ZM3209.53 221.693V291.67H3170.72V98.7927H3244.81C3267.16 98.7927 3284.21 104.673 3297.15 115.846C3310.08 127.019 3315.96 142.308 3315.96 160.537C3315.96 178.766 3309.5 194.055 3297.15 205.228C3284.21 216.401 3267.16 222.281 3244.81 222.281H3209.53V221.693ZM3209.53 192.291H3244.81C3255.4 192.291 3263.63 189.351 3269.51 183.471C3274.8 177.59 3277.74 169.946 3277.74 161.125C3277.74 151.716 3274.8 144.072 3269.51 138.191C3264.22 132.311 3255.98 129.371 3244.81 129.371H3209.53V192.291ZM3528.25 291.67H3489.44V211.697H3410.64V291.67H3371.83V98.7927H3410.64V181.707H3489.44V98.7927H3528.25V291.67Z" fill="white"/>
<path d="M1162.56 606.86H1138.45V479.843H1094.93V459.262H1206.07V479.843H1162.56V606.86ZM1324.27 606.86H1300.16V538.059C1300.16 529.239 1298.4 522.77 1294.87 518.654C1291.34 514.538 1286.05 512.186 1278.4 512.186C1268.41 512.186 1261.35 515.126 1256.64 521.006C1251.94 526.887 1249.59 536.883 1249.59 550.996V606.272H1226.07V449.265H1249.59V489.252C1249.59 495.72 1249 502.189 1248.41 509.833H1250.18C1253.12 504.541 1257.82 500.425 1263.7 497.485C1269.58 494.544 1276.05 492.78 1283.69 492.78C1310.74 492.78 1324.27 506.305 1324.27 533.943V606.86ZM1406.01 608.624C1388.37 608.624 1374.84 603.332 1365.43 593.335C1355.44 583.339 1350.73 569.226 1350.73 551.584C1350.73 533.355 1355.44 519.242 1364.26 508.657C1373.08 498.073 1386.01 492.78 1401.89 492.78C1416.59 492.78 1428.35 497.485 1436.59 506.305C1445.41 515.126 1449.52 527.475 1449.52 543.352V556.289H1374.84C1375.43 566.873 1378.37 575.694 1383.66 580.986C1388.95 586.867 1397.19 589.807 1407.18 589.807C1413.65 589.807 1420.12 589.219 1425.41 588.043C1431.29 586.867 1437.17 584.515 1443.64 581.575V600.98C1437.76 603.92 1431.88 605.684 1426 606.86C1420.71 608.036 1413.65 608.624 1406.01 608.624ZM1401.89 511.01C1394.25 511.01 1388.37 513.362 1383.66 518.066C1378.96 522.77 1376.61 529.827 1375.43 539.236H1426C1426 529.827 1423.65 522.77 1419.53 518.066C1415.42 513.362 1409.54 511.01 1401.89 511.01ZM1585.95 512.774H1558.9V606.86H1534.79V512.774H1516.56V501.601L1534.79 494.544V487.488C1534.79 474.551 1537.73 464.554 1544.2 458.086C1550.67 451.617 1560.07 448.677 1572.42 448.677C1580.66 448.677 1588.89 449.853 1597.12 452.793L1590.65 471.023C1584.77 469.259 1579.48 468.083 1573.6 468.083C1568.31 468.083 1564.19 469.847 1561.84 472.787C1559.49 476.315 1558.31 481.02 1558.31 487.488V494.544H1585.36V512.774H1585.95ZM1684.15 606.86L1680.62 592.159H1679.45C1675.92 597.452 1671.21 601.568 1665.33 604.508C1659.45 607.448 1652.4 609.212 1644.75 609.212C1631.23 609.212 1621.23 605.684 1614.17 599.216C1607.12 592.747 1604.18 582.163 1604.18 568.638V495.132H1628.29V563.933C1628.29 572.754 1630.05 578.634 1633.58 583.339C1637.11 587.455 1642.4 589.807 1650.04 589.807C1660.04 589.807 1667.1 586.867 1671.8 580.986C1676.51 575.106 1678.86 565.109 1678.86 550.996V495.132H1702.97V606.86H1684.15ZM1778.24 589.219C1784.12 589.219 1790 588.043 1795.88 586.279V603.92C1793.53 605.096 1790 606.272 1785.88 606.86C1781.77 607.448 1777.65 608.036 1772.95 608.036C1750.6 608.036 1739.43 596.276 1739.43 572.754V512.774H1724.14V502.189L1740.6 493.368L1748.84 469.847H1763.54V494.544H1795.29V512.774H1763.54V572.754C1763.54 578.634 1764.71 582.751 1767.65 585.691C1769.42 588.043 1773.53 589.219 1778.24 589.219ZM1896.43 606.86L1892.91 592.159H1891.73C1888.2 597.452 1883.5 601.568 1877.62 604.508C1871.74 607.448 1864.68 609.212 1857.03 609.212C1843.51 609.212 1833.51 605.684 1826.46 599.216C1819.99 592.747 1816.46 582.163 1816.46 568.638V495.132H1840.57V563.933C1840.57 572.754 1842.33 578.634 1845.86 583.339C1849.39 587.455 1854.68 589.807 1862.33 589.807C1872.32 589.807 1879.38 586.867 1884.08 580.986C1888.79 575.106 1891.14 565.109 1891.14 550.996V495.132H1915.25V606.86H1896.43ZM2005.81 492.78C2010.51 492.78 2014.63 493.368 2017.57 493.956L2015.22 516.302C2011.69 515.714 2008.16 515.126 2004.63 515.126C1995.22 515.126 1987.58 518.066 1981.7 524.535C1975.82 531.003 1972.88 538.648 1972.88 548.644V606.86H1949.36V495.132H1968.17L1971.11 514.538H1972.29C1975.82 508.069 1981.11 502.777 1986.99 498.661C1992.28 495.132 1998.75 492.78 2005.81 492.78ZM2082.84 608.624C2065.2 608.624 2051.68 603.332 2042.27 593.335C2032.27 583.339 2027.57 569.226 2027.57 551.584C2027.57 533.355 2032.27 519.242 2041.09 508.657C2049.91 498.073 2062.85 492.78 2078.73 492.78C2093.43 492.78 2105.19 497.485 2113.42 506.305C2122.24 515.126 2126.36 527.475 2126.36 543.352V556.289H2051.68C2052.26 566.873 2055.2 575.694 2060.5 580.986C2065.79 586.867 2074.02 589.807 2084.02 589.807C2090.49 589.807 2096.96 589.219 2102.25 588.043C2108.13 586.867 2114.01 584.515 2120.48 581.575V600.98C2114.6 603.92 2108.72 605.684 2102.84 606.86C2096.96 608.036 2090.49 608.624 2082.84 608.624ZM2078.73 511.01C2071.08 511.01 2065.2 513.362 2060.5 518.066C2055.79 522.77 2053.44 529.827 2052.26 539.236H2102.84C2102.84 529.827 2100.48 522.77 2096.37 518.066C2091.66 513.362 2085.78 511.01 2078.73 511.01ZM2305.71 550.408C2305.71 568.638 2301.01 582.751 2291.6 593.335C2282.19 603.332 2269.25 608.624 2252.79 608.624C2242.2 608.624 2233.38 606.272 2225.15 601.568C2216.92 596.864 2211.04 589.807 2206.92 580.986C2202.8 572.166 2200.45 562.169 2200.45 550.408C2200.45 532.179 2205.16 518.066 2214.56 508.069C2223.97 498.073 2236.91 492.78 2253.96 492.78C2269.84 492.78 2282.78 498.073 2292.19 508.657C2301.59 519.242 2305.71 532.767 2305.71 550.408ZM2224.56 550.408C2224.56 576.282 2233.97 589.219 2253.37 589.219C2272.19 589.219 2281.6 576.282 2281.6 550.408C2281.6 525.123 2272.19 512.186 2253.37 512.186C2243.38 512.186 2236.32 515.714 2231.62 522.182C2226.91 528.651 2224.56 538.059 2224.56 550.408ZM2389.21 512.774H2362.16V606.86H2338.05V512.774H2319.82V501.601L2338.05 494.544V487.488C2338.05 474.551 2340.99 464.554 2347.46 458.086C2353.93 451.617 2363.34 448.677 2375.69 448.677C2383.92 448.677 2392.15 449.853 2400.38 452.793L2393.92 471.023C2388.04 469.259 2382.74 468.083 2376.86 468.083C2371.57 468.083 2367.45 469.847 2365.1 472.787C2362.75 475.727 2361.57 481.02 2361.57 487.488V494.544H2388.62V512.774H2389.21ZM2556.22 606.86H2532.11V538.059C2532.11 529.239 2530.34 523.358 2527.4 518.654C2524.46 514.538 2519.17 512.186 2512.11 512.186C2502.7 512.186 2496.24 515.126 2492.12 521.006C2488 526.887 2485.65 536.883 2485.65 550.996V606.86H2462.13V495.132H2480.95L2484.47 509.833H2485.65C2488.59 504.541 2493.3 500.425 2499.18 497.485C2505.06 494.544 2511.52 493.368 2518.58 493.368C2535.63 493.368 2547.4 499.249 2552.69 511.01H2554.45C2557.98 505.717 2562.68 501.013 2568.56 498.073C2574.44 495.132 2581.5 493.368 2589.15 493.368C2602.67 493.368 2612.08 496.897 2618.55 503.365C2624.43 509.833 2627.96 520.418 2627.96 533.943V606.86H2604.44V538.059C2604.44 529.239 2602.67 523.358 2599.73 518.654C2596.2 514.538 2591.5 512.186 2584.44 512.186C2575.03 512.186 2568.56 515.126 2564.45 521.006C2560.33 526.887 2557.98 535.707 2557.98 547.468V606.86H2556.22ZM2758.5 550.408C2758.5 568.638 2753.8 582.751 2744.39 593.335C2734.98 603.332 2722.04 608.624 2705.58 608.624C2694.99 608.624 2686.17 606.272 2677.94 601.568C2669.71 596.864 2663.83 589.807 2659.71 580.986C2655.59 572.166 2653.24 562.169 2653.24 550.408C2653.24 532.179 2657.95 518.066 2667.36 508.069C2676.76 498.073 2689.7 492.78 2706.75 492.78C2722.63 492.78 2735.57 498.073 2744.98 508.657C2753.8 519.242 2758.5 532.767 2758.5 550.408ZM2677.35 550.408C2677.35 576.282 2686.76 589.219 2706.17 589.219C2724.98 589.219 2734.39 576.282 2734.39 550.408C2734.39 525.123 2724.98 512.186 2706.17 512.186C2696.17 512.186 2689.11 515.714 2684.41 522.182C2679.7 528.651 2677.35 538.059 2677.35 550.408ZM2884.34 606.86H2860.23V538.059C2860.23 529.239 2858.47 522.77 2854.94 518.654C2851.41 514.538 2846.12 512.186 2838.48 512.186C2828.48 512.186 2820.83 515.126 2816.72 521.006C2812.6 526.887 2809.66 536.883 2809.66 550.996V606.86H2786.14V495.132H2804.96L2808.49 509.833H2809.66C2813.19 504.541 2817.89 500.425 2823.77 497.485C2829.65 494.544 2836.71 493.368 2844.36 493.368C2871.41 493.368 2884.34 506.893 2884.34 534.531V606.86ZM2966.08 608.624C2948.44 608.624 2934.91 603.332 2925.51 593.335C2915.51 583.339 2910.8 569.226 2910.8 551.584C2910.8 533.355 2915.51 519.242 2924.33 508.657C2933.15 498.073 2946.09 492.78 2961.96 492.78C2976.67 492.78 2988.43 497.485 2996.66 506.305C3005.48 515.126 3009.6 527.475 3009.6 543.352V556.289H2934.91C2935.5 566.873 2938.44 575.694 2943.73 580.986C2949.03 586.867 2957.26 589.807 2967.26 589.807C2973.72 589.807 2980.19 589.219 2985.49 588.043C2990.78 586.867 2997.25 584.515 3003.71 581.575V600.98C2997.83 603.92 2991.95 605.684 2986.07 606.86C2980.19 608.036 2973.72 608.624 2966.08 608.624ZM2961.38 511.01C2953.73 511.01 2947.85 513.362 2943.15 518.066C2938.44 522.77 2936.09 529.827 2934.91 539.236H2985.49C2985.49 529.827 2983.13 522.77 2979.02 518.066C2974.9 513.362 2969.02 511.01 2961.38 511.01ZM3015.48 495.132H3041.35L3064.28 558.641C3067.81 567.461 3070.16 576.282 3071.34 583.927H3071.93C3072.52 580.398 3073.69 575.694 3075.46 570.402C3077.22 565.109 3085.45 539.824 3101.33 495.132H3127.2L3079.57 621.561C3070.75 644.495 3056.64 656.256 3036.06 656.256C3030.76 656.256 3025.47 655.668 3020.77 654.492V635.674C3024.3 636.262 3028.41 636.85 3033.12 636.85C3044.29 636.85 3052.52 630.382 3057.23 616.857L3061.34 606.272L3015.48 495.132Z" fill="white"/>
</svg>
