<svg width="197" height="87" viewBox="0 0 197 87" fill="none" xmlns="http://www.w3.org/2000/svg">
<path d="M147.807 39.2764H168.789V0.742417H147.807V39.2764ZM132.036 0.733024H144.473V5.70916H132.971C131.073 5.70916 129.52 6.25163 128.311 7.33421C127.1 8.4168 126.496 9.8399 126.496 11.6012C126.496 13.3624 127.1 14.8419 128.311 15.9245C129.52 17.007 131.075 17.5495 132.971 17.5495H144.473V39.2788H119.367V34.2931H132.529C134.575 34.2931 136.242 33.7249 137.524 32.586C138.809 31.4494 139.451 29.9981 139.451 28.2369C139.451 26.4755 138.809 25.0431 137.524 23.9417C136.24 22.8404 134.575 22.2907 132.529 22.2907L130.859 22.319C125.487 22.319 121.125 18.0426 121.092 12.7448L121.085 11.5824V11.5401C121.085 5.57296 125.99 0.735373 132.039 0.735373L132.036 0.733024ZM184.128 0.733024H196.178V5.70916H185.064C183.166 5.70916 181.612 6.25163 180.404 7.33421C179.194 8.4168 178.589 9.8399 178.589 11.6012C178.589 13.3624 179.194 14.8419 180.404 15.9245C181.612 17.007 183.169 17.5495 185.064 17.5495H196.178V28.2674C196.178 34.3495 191.18 39.2788 185.014 39.2788H172.226V34.2931H184.234C186.28 34.2931 187.948 33.7249 189.23 32.586C190.514 31.4494 191.156 29.9981 191.156 28.2369C191.156 26.4755 190.514 25.0431 189.23 23.9417C187.945 22.8404 186.28 22.319 184.234 22.319H173.244L173.175 11.5824V11.5401C173.175 5.57296 178.08 0.735373 184.129 0.735373L184.128 0.733024ZM19.5369 0.733024H33.605V5.70916H19.9294C17.3627 5.70916 14.9886 6.34321 12.8121 7.60898C10.6355 8.87473 8.91327 10.6008 7.64777 12.7847C6.38226 14.9686 5.7495 17.3452 5.7495 19.9142C5.7495 22.4834 6.38226 25.0782 7.64777 27.2435C8.91327 29.411 10.6331 31.1252 12.8121 32.391C14.9886 33.6567 17.3627 34.2909 19.9294 34.2909H28.2456V22.3166H14.7365V17.472H33.605V39.2764H19.5511C8.75627 39.2834 0 30.6532 0 20.0059C0 9.36084 8.74676 0.733024 19.5369 0.733024ZM74.5819 18.625V39.2905H69.603V18.6908C69.603 11.5213 63.7107 5.70916 56.4412 5.70916C49.1718 5.70916 43.2795 11.5213 43.2795 18.6908V39.2905H38.2579V0.756508H56.4674C66.4726 0.756508 74.5843 8.75731 74.5843 18.6274L74.5819 18.625ZM165.072 12.362C165.072 16.0583 162.037 19.0525 158.296 19.0525C154.554 19.0525 151.519 16.056 151.519 12.362C151.519 8.66808 154.554 5.67159 158.296 5.67159C162.037 5.67159 165.072 8.66808 165.072 12.362ZM115.268 10.1945C113.477 7.21915 111.06 4.8802 108.023 3.17765C104.983 1.47745 101.671 0.625 98.0889 0.625C94.5065 0.625 91.3307 1.47745 88.236 3.17765C85.1413 4.8802 82.7244 7.21915 80.9902 10.1945C79.2514 13.1723 78.3855 16.4129 78.3855 19.9214C78.3855 23.4298 79.2537 26.6729 80.9902 29.6481C82.7267 32.6259 85.1436 34.9906 88.236 36.7449C91.3307 38.4991 94.6111 39.375 98.0889 39.375C101.567 39.375 104.98 38.4991 108.023 36.7449C111.06 34.9906 113.477 32.6259 115.268 29.6481C117.06 26.6729 117.954 23.4274 117.954 19.9214C117.954 16.4153 117.06 13.1699 115.268 10.1945ZM98.1721 26.7221C94.4185 26.7221 91.376 23.7162 91.376 20.0082C91.376 16.3001 94.4185 13.2942 98.1721 13.2942C101.926 13.2942 104.968 16.3001 104.968 20.0082C104.968 23.7162 101.926 26.7221 98.1721 26.7221Z" fill="white"/>
<path d="M16.0025 67.3457V67.3903C16.0025 78.0329 24.75 86.649 35.54 86.649H43.7962V81.6635H35.6725C27.5662 81.6635 21.0125 75.0952 21.1862 67.0592C21.355 59.2462 28.0162 53.0795 35.94 53.0795H43.7962V48.1292H35.485C24.7238 48.1292 16 56.7335 16 67.348L16.0025 67.3457ZM163.15 48.1292H144.94V86.649H149.961V66.0634C149.961 58.894 155.854 53.0818 163.124 53.0818C170.393 53.0818 176.285 58.894 176.285 66.0634V86.649H181.264V65.9977C181.264 56.1276 173.152 48.1268 163.147 48.1268L163.15 48.1292ZM72.2562 61.0474C72.2562 62.1112 71.8738 63.0107 71.1125 63.7457C70.3488 64.4807 69.4475 64.847 68.405 64.847H56.7962C55.7162 64.847 54.805 64.4807 54.0613 63.7457C53.3163 63.0129 52.945 62.1135 52.945 61.0474V48.1292H47.9238V86.649H52.945V73.4889C52.945 72.4252 53.3163 71.5257 54.0613 70.7907C54.805 70.058 55.7162 69.6893 56.7962 69.6893H68.405C69.4475 69.6893 70.3488 70.0557 71.1125 70.7907C71.8738 71.5257 72.2562 72.4252 72.2562 73.4889V86.649H77.2238V48.1292H72.2562V61.0474ZM119.834 48.1292V86.649H140.815V48.1292H119.834ZM130.325 66.4274C126.58 66.4274 123.548 63.4309 123.548 59.737C123.548 56.0431 126.582 53.0466 130.325 53.0466C134.066 53.0466 137.101 56.0431 137.101 59.737C137.101 63.4309 134.066 66.4274 130.325 66.4274ZM101.449 50.1793C100.785 48.728 99.8475 48 98.6325 48C97.4162 48 96.4787 48.7256 95.8162 50.1793L79.0887 86.649H118.01L101.449 50.1793ZM98.6325 80.3367C94.8875 80.3367 91.855 77.3402 91.855 73.6463C91.855 69.9523 94.89 66.9558 98.6325 66.9558C102.374 66.9558 105.409 69.9523 105.409 73.6463C105.409 77.3402 102.374 80.3367 98.6325 80.3367Z" fill="white"/>
</svg>
