<svg width="24" height="24" viewBox="0 0 24 24" fill="none" xmlns="http://www.w3.org/2000/svg">
<g clip-path="url(#clip0_1008_2856)">
<path d="M22.4 0V4.8H20.8V0H19.2V4.8H17.6V0H16V4.8H8V0H6.4V4.8V6.4H22.4V8H20.8H19.2H4.8V0H3.2V8H1.6V0H0V8V9.6V17.6H1.6V12.8H3.2V17.6H4.8V12.8H6.4V17.6H8V12.8H16V17.6H17.6V12.8V11.2H4.8H3.2H1.6V9.6H3.2H4.8H19.2V17.6H20.8V9.6H22.4V17.6H24V9.6V8V6.4V4.8V0H22.4Z" fill="white"/>
<path d="M2.743 21.4861V22.4001H0.686V21.4861H0V24.0001H0.686V23.0861H2.743V24.0001H3.429V21.4861H2.743Z" fill="white"/>
<path d="M15.7721 23.0862H15.0861V24.0002H15.7721V23.0862Z" fill="white"/>
<path d="M15.771 21.4861H15.086V22.4001H13.029V21.4861H12.343V24.0001H13.029V23.0861H15.086L15.771 22.4001V21.4861Z" fill="white"/>
<path d="M7.08599 21.4861H4.11499V24.0001H4.80099V23.0861H6.85799V24.0001H7.54399V21.4861H7.08699H7.08599ZM4.79999 22.4001V22.1711H6.85699V22.4001H4.79999Z" fill="white"/>
<path d="M11.657 22.1711V21.4861H8.914H8.686H8.229V24.0001H8.686H8.914H11.657V23.3141H8.914V22.1711H11.657Z" fill="white"/>
<path d="M19.886 22.1711V21.4861H17.143H16.914H16.457V24.0001H16.914H17.143H19.886V23.3141H17.143V23.0861H19.886V22.4001H17.143V22.1711H19.886Z" fill="white"/>
<path d="M23.314 21.4861V23.0861L21.257 21.4861H20.571V24.0001H21.257V22.4001L23.314 24.0001H24V21.4861H23.314Z" fill="white"/>
</g>
<defs>
<clipPath id="clip0_1008_2856">
<rect width="24" height="24" fill="white"/>
</clipPath>
</defs>
</svg>
