<svg width="1002" height="288" viewBox="0 0 1002 288" fill="none" xmlns="http://www.w3.org/2000/svg">
<g clip-path="url(#clip0_773_2718)">
<path d="M0.792969 224.417V0.648438H41.3125V190.437H139.826V224.417H0.792969Z" fill="white"/>
<path d="M211.064 227.804C200.433 227.804 190.859 225.91 182.34 222.122C173.894 218.262 167.195 212.58 162.244 205.078C157.365 197.575 154.926 188.324 154.926 177.325C154.926 167.856 156.674 160.025 160.169 153.834C163.664 147.642 168.433 142.689 174.476 138.974C180.519 135.259 187.327 132.455 194.9 130.561C202.545 128.594 210.445 127.174 218.6 126.3C228.429 125.28 236.402 124.369 242.518 123.568C248.634 122.694 253.076 121.383 255.843 119.635C258.682 117.814 260.102 115.009 260.102 111.222V110.566C260.102 102.335 257.663 95.9613 252.785 91.4452C247.906 86.929 240.88 84.6709 231.706 84.6709C222.022 84.6709 214.34 86.7833 208.661 91.0081C203.055 95.2329 199.268 100.223 197.302 105.977H160.169C161.418 96.0053 168.105 82.0122 174.804 75.1651C181.502 68.2452 189.694 63.0734 199.378 59.6499C209.061 56.1535 219.765 54.4053 231.487 54.4053C239.569 54.4053 247.615 55.3523 255.624 57.2461C263.634 59.14 270.951 62.2722 277.577 66.6427C284.203 70.9403 289.518 76.804 293.523 84.2338C297.6 91.6637 299.639 100.951 299.639 112.096V224.417H261.631V201.363H260.321C257.918 206.025 254.532 210.395 250.163 214.474C245.868 218.48 240.443 221.722 233.89 224.198C227.41 226.602 219.801 227.804 211.064 227.804ZM221.33 198.74C229.267 198.74 236.147 197.174 241.972 194.042C247.797 190.837 252.275 186.612 255.406 181.368C258.61 176.123 260.211 170.405 260.211 164.214V144.437C258.974 145.457 256.862 146.404 253.877 147.278C250.964 148.152 247.688 148.917 244.047 149.573C240.407 150.228 236.803 150.811 233.235 151.321C229.667 151.831 226.573 152.268 223.951 152.632C218.054 153.433 212.775 154.744 208.115 156.565C203.455 158.386 199.778 160.936 197.084 164.214C194.39 167.419 193.043 171.571 193.043 176.67C193.043 183.954 195.701 189.453 201.016 193.168C206.331 196.883 213.102 198.74 221.33 198.74Z" fill="white"/>
<path d="M347.504 287.352C342.116 287.352 337.128 286.915 332.541 286.041C328.027 285.24 326.763 284.293 324.069 283.2L333.243 252.388C338.995 254.063 341.788 254.865 346.302 254.792C350.817 254.719 354.785 253.299 358.207 250.531C361.702 247.836 364.651 243.319 367.054 236.982L370.439 227.913L309.606 56.5906H351.545L390.208 183.335H391.955L430.727 56.5906H472.776L405.607 244.74C402.178 254.001 398.326 261.238 393.157 267.576C387.987 273.986 381.652 278.866 374.153 282.217C366.726 285.64 357.843 287.352 347.504 287.352Z" fill="white"/>
<path d="M558.239 227.695C541.419 227.695 526.893 224.198 514.661 217.206C502.502 210.14 493.145 200.161 486.592 187.268C480.039 174.302 476.763 159.042 476.763 141.487C476.763 124.224 480.039 109.073 486.592 96.0342C493.218 82.9227 502.465 72.7249 514.334 65.4408C526.202 58.0838 540.145 54.4053 556.164 54.4053C566.503 54.4053 576.26 56.0807 585.434 59.4314C594.681 62.7092 602.836 67.8082 609.898 74.7281C617.034 81.648 622.64 90.4618 626.718 101.169C630.795 111.804 632.834 124.479 632.834 139.193V151.321H495.33V124.661H594.936C594.863 117.085 593.225 110.347 590.021 104.447C586.817 98.4743 582.339 93.7761 576.587 90.3525C570.908 86.929 564.282 85.2172 556.71 85.2172C548.628 85.2172 541.529 87.1839 535.412 91.1174C529.296 94.9779 524.527 100.077 521.105 106.414C517.756 112.678 516.045 119.562 515.972 127.065V150.337C515.972 160.098 517.756 168.475 521.323 175.468C524.891 182.388 529.879 187.705 536.286 191.42C542.694 195.062 550.193 196.883 558.785 196.883C564.537 196.883 569.743 196.082 574.403 194.479C579.063 192.804 583.104 190.364 586.526 187.159C589.948 183.954 592.533 179.984 594.28 175.249H632.834C630.504 185.01 624.424 197.684 617.871 204.968C611.391 212.18 603.091 217.788 592.97 221.795C582.849 225.728 571.272 227.695 558.239 227.695Z" fill="white"/>
<path d="M655.825 224.417V56.5906H694.16V84.5617H695.908C698.966 74.8738 704.208 67.4075 711.635 62.1629C719.134 56.8455 727.69 54.1868 737.301 54.1868C739.485 54.1868 741.924 54.2961 744.618 54.5146C747.385 54.6603 749.679 54.9152 751.499 55.2794V91.6637C749.824 91.081 747.167 90.571 743.526 90.134C739.958 89.6241 736.5 89.3692 733.151 89.3692C725.942 89.3692 719.462 90.9353 713.71 94.0674C708.031 97.1268 703.553 101.388 700.276 106.851C697 112.314 695.361 118.615 695.361 125.753V224.417H655.825Z" fill="white"/>
<path d="M777.756 45.3511V0.648438H850.398V45.3511H928.627V0.648438H1001.27V45.3511H967.742V90.0537H928.627V134.756H962.154V179.459H1001.27V224.162H928.627V179.459H850.398V224.162H777.756V179.459H816.871V134.756H850.398V90.0537H816.871H811.283V45.3511H777.756Z" fill="white"/>
</g>
<defs>
<clipPath id="clip0_773_2718">
<rect width="1002" height="288" fill="white"/>
</clipPath>
</defs>
</svg>
