<svg width="77" height="21" viewBox="0 0 77 21" fill="none" xmlns="http://www.w3.org/2000/svg">
<g clip-path="url(#clip0_1007_2756)">
<path fill-rule="evenodd" clip-rule="evenodd" d="M13.3918 11.0436C13.4646 10.7661 13.5027 10.4782 13.5027 10.1904H20.3807C20.3807 10.721 20.3391 11.2517 20.2593 11.772L16.888 11.2448C16.8533 11.4772 16.8047 11.7095 16.7423 11.935L13.3918 11.0436ZM9.33712 13.3918L8.44919 16.7423C8.67811 16.8013 8.90703 16.8498 9.13941 16.888L8.61568 20.2593C9.13248 20.3391 9.66315 20.3807 10.1904 20.3807H10.1973V13.5027H10.1904C9.89901 13.5027 9.61459 13.4646 9.33712 13.3918ZM13.0623 11.8414L16.0659 13.5756C15.948 13.7802 15.8197 13.9779 15.6809 14.1687L18.4418 16.1735C18.1297 16.6036 17.7794 17.0128 17.4048 17.3874L12.535 12.5316C12.7397 12.3269 12.9166 12.0946 13.0623 11.8448V11.8414ZM6.8086 16.0659L8.53937 13.0623C8.28964 12.9166 8.05725 12.7397 7.85261 12.535L2.99676 17.4082C3.37482 17.7828 3.7841 18.1332 4.21419 18.4453L6.2155 15.6844C6.40626 15.8232 6.60396 15.9515 6.8086 16.0694V16.0659ZM5.5773 19.2777C6.05248 19.5205 6.55194 19.7252 7.05833 19.8882L8.12315 16.5897C7.79018 16.4822 7.46068 16.3469 7.14851 16.1873L5.5773 19.2777ZM4.37374 13.5617L7.32194 11.8483C7.17626 11.5986 7.06527 11.3315 6.98896 11.054L3.69739 11.9419C3.63842 11.7165 3.5864 11.4876 3.55171 11.2586L0.128333 11.8032C0.211577 12.3304 0.33991 12.8541 0.502928 13.3571L3.74595 12.2957C3.85694 12.6322 3.99221 12.9617 4.15523 13.2773L1.12032 14.8346C1.36311 15.3064 1.64405 15.7642 1.95968 16.1943L4.75874 14.1479C4.62 13.9606 4.49514 13.7629 4.37721 13.5617H4.37374ZM11.8483 13.0553L13.5582 16.0035C13.7594 15.8856 13.9571 15.7573 14.1444 15.622L16.1873 18.4245C15.7573 18.7401 15.2994 19.0211 14.8277 19.2639L13.2704 16.2255C12.9547 16.3885 12.6287 16.5238 12.2888 16.6348L13.3467 19.8778C12.8403 20.0443 12.3165 20.1691 11.7928 20.2524L11.2482 16.829C11.4772 16.7943 11.7061 16.7423 11.9315 16.6833L11.0471 13.3918C11.3245 13.3155 11.5916 13.2045 11.8414 13.0588L11.8483 13.0553ZM16.1839 13.2322L19.2743 14.8069C19.5171 14.3317 19.7217 13.8357 19.8847 13.3259L16.5862 12.2576C16.4787 12.5905 16.3434 12.92 16.1839 13.2322ZM3.63842 8.44225L6.98896 9.33365C6.91613 9.61113 6.87797 9.89901 6.87797 10.1869H0C0 9.65622 0.0416216 9.12554 0.121396 8.60527L3.49275 9.13248C3.52743 8.90009 3.57599 8.6677 3.63842 8.44225ZM7.31847 8.5359L4.31477 6.80167C4.4327 6.59703 4.56104 6.39932 4.69977 6.20856L1.93887 4.20378C2.25104 3.77369 2.60135 3.36441 2.97595 2.98982L7.84568 7.84568C7.64104 8.05032 7.46414 8.2827 7.31847 8.53243V8.5359ZM13.5721 4.31131L11.8414 7.315C12.0911 7.46068 12.3235 7.63757 12.5281 7.84221L17.384 2.96901C17.0059 2.59441 16.5966 2.2441 16.1665 1.93194L14.1652 4.69284C13.9745 4.5541 13.7768 4.42577 13.5721 4.30784V4.31131ZM14.8034 1.0995C14.3282 0.856712 13.8288 0.652072 13.3224 0.489054L12.2576 3.78757C12.5905 3.89509 12.92 4.03036 13.2322 4.18991L14.8034 1.0995ZM16.007 6.81554L13.0588 8.52896C13.2045 8.77869 13.3155 9.04577 13.3918 9.32324L16.6833 8.43532C16.7423 8.66077 16.7943 8.88969 16.829 9.1186L20.2524 8.57405C20.1691 8.04685 20.0408 7.52311 19.8778 7.02018L16.6348 8.08153C16.5238 7.74509 16.3885 7.41559 16.2255 7.09995L19.2604 5.54261C19.0176 5.0709 18.7367 4.61306 18.421 4.18297L15.622 6.22937C15.7607 6.41667 15.8856 6.61437 16.0035 6.81554H16.007ZM77.0035 6.97509V8.36941H71.8181V9.40302H76.3132V10.7973H71.8181V12.0148H77.0035V13.4091H70.4238V6.98203H77.0035V6.97509ZM64.9818 6.97509H63.5874V13.4022H69.6503V12.0078H64.9818V6.97162V6.97509ZM54.9197 8.36941V6.97509H62.814V8.36941H59.564V13.4056H58.1697V8.36941H54.9197ZM41.41 8.36941L40.7268 9.91635H42.8287L42.1454 8.36941H41.4135H41.41ZM40.5013 6.97509H43.0506L45.8913 13.4022H44.3686L43.4426 11.3072H40.1094L39.1833 13.4022H37.6606L40.5013 6.97509ZM52.7519 13.4022H51.2293L49.006 8.36595H48.0903V13.4022H46.696V6.97509H49.9113L52.7519 13.4022ZM54.1463 13.4022H52.7519V6.97509H54.1463V13.4022ZM31.2786 13.4022L34.1193 6.97509H36.8213V13.4022H35.4269V8.36595H35.0246L32.8013 13.4022H31.2786ZM25.736 6.97509H28.438L31.2786 13.4022H29.756L27.5327 8.36595H27.1304V13.4022H25.736V6.97509ZM4.19338 7.14505L1.10297 5.57036C0.86018 6.04554 0.655541 6.54153 0.492523 7.0514L3.79104 8.11968C3.89856 7.78671 4.03383 7.45721 4.19338 7.14505ZM8.52896 7.32194L6.81901 4.37374C6.61784 4.49167 6.42013 4.61653 6.23284 4.75527L4.18991 1.95275C4.62 1.63712 5.07784 1.35617 5.54955 1.11338L7.10689 4.15176C7.42252 3.98874 7.75203 3.85347 8.08847 3.74248L7.03059 0.499459C7.53698 0.332973 8.06072 0.208108 8.58446 0.124865L9.12901 3.54824C8.90009 3.58293 8.67117 3.63495 8.44572 3.69392L9.33018 6.9855C9.0527 7.0618 8.78563 7.17279 8.5359 7.315L8.52896 7.32194ZM11.2378 3.49275L11.7616 0.121396C11.2448 0.0416216 10.7141 0 10.1869 0H10.18V6.87797H10.1869C10.4782 6.87797 10.7627 6.91613 11.0401 6.98896L11.9281 3.63842C11.6991 3.57946 11.4702 3.5309 11.2378 3.49275Z" fill="white"/>
</g>
<defs>
<clipPath id="clip0_1007_2756">
<rect width="77" height="20.3807" fill="white"/>
</clipPath>
</defs>
</svg>
