<svg width="398" height="117" viewBox="0 0 398 117" fill="none" xmlns="http://www.w3.org/2000/svg">
<g clip-path="url(#clip0_1007_2757)">
<path d="M0 0V61.0588H56.122V117H398V55.9412H285.75V0H0ZM229.628 5.11756H280.616V55.9412H229.628V5.11756ZM5.1341 5.11756H224.494V55.9412H5.1341V5.11756ZM117.621 61.0588H392.866V111.882H117.621V61.0588ZM61.2561 61.0588H112.25V111.882H61.2561V61.0588Z" fill="white"/>
<path d="M50.1545 17.9604H37.9067L37.9183 43.179H45.2866V35.794H50.166C55.4796 35.794 59.3403 32.0438 59.3403 26.8917C59.3403 21.7049 55.468 17.9604 50.1602 17.9662M49.3383 29.5976H45.2924V24.4512H49.3383C50.7854 24.4512 51.833 25.5301 51.833 27.0071C51.833 28.409 50.7854 29.5976 49.3441 29.6033" fill="white"/>
<path d="M75.0436 17.5854C67.2758 17.5854 61.6787 23.0319 61.6845 30.5553C61.6845 38.0845 67.2932 43.5194 75.0609 43.5136C82.8286 43.5136 88.4258 38.0672 88.42 30.5438C88.42 23.0203 82.8113 17.5854 75.0436 17.5854ZM75.0551 36.7806C71.6575 36.7806 69.2033 34.1555 69.1975 30.5207C69.1975 26.9205 71.6517 24.3242 75.0436 24.3242C78.4412 24.3242 80.9012 26.9148 80.9012 30.5149C80.9012 34.1555 78.447 36.7806 75.0551 36.7864" fill="white"/>
<path d="M110.386 31.9343C112.806 30.6707 114.212 28.4379 114.212 25.5589C114.212 20.8799 110.629 17.9259 105.032 17.9316H92.246L92.2576 43.1502H99.6259V35.2575H104.395C105.842 35.2575 106.711 36.7691 106.821 39.0365C106.896 40.3347 106.931 42.3136 107.075 43.1444H114.768C114.444 42.0944 114.334 39.7173 114.224 38.0615C114.004 34.7094 112.667 32.8747 110.392 31.94M104.21 29.3495H99.6201V24.4166H104.21C105.727 24.4166 106.705 25.3512 106.705 26.8629C106.705 28.3745 105.732 29.3495 104.21 29.3495Z" fill="white"/>
<path d="M130.731 43.1213L123.363 43.1271L123.352 24.3992L116.741 24.405L116.736 17.9201L137.33 17.9143L137.336 24.3935L130.72 24.3992L130.731 43.1213Z" fill="white"/>
<path d="M158.723 30.4688C158.723 34.1094 156.269 36.7345 152.877 36.7403C149.479 36.7403 147.025 34.1152 147.019 30.4804C147.019 26.8802 149.474 24.2839 152.871 24.2839C156.269 24.2839 158.723 26.8744 158.729 30.4746M166.242 30.5092C166.242 22.9858 160.633 17.5509 152.865 17.5509C145.098 17.5509 139.501 22.9973 139.506 30.5208C139.506 38.05 145.115 43.4791 152.883 43.4791C160.651 43.4791 166.248 38.0327 166.242 30.5092Z" fill="white"/>
<path d="M165.733 86.4561C165.733 90.0217 163.388 92.618 160.17 92.618H157.531L157.525 80.3751H160.164C163.383 80.3751 165.733 82.9252 165.733 86.4561ZM173.246 86.485C173.246 79.175 167.782 73.8844 160.234 73.8901H150.157L150.168 99.1029H160.245C167.799 99.0914 173.251 93.795 173.246 86.485Z" fill="white"/>
<path d="M184.446 73.8787H177.072V99.0857H184.446V73.8787Z" fill="white"/>
<path d="M201.648 99.4375C193.88 99.4375 188.277 94.0084 188.272 86.4791C188.272 78.9557 193.863 73.515 201.631 73.5093C207.882 73.5093 213.195 77.4614 214.318 82.902H206.62C205.677 81.0673 203.946 79.8442 201.671 79.85C198.239 79.85 195.785 82.6251 195.785 86.4445C195.785 90.2639 198.245 93.0333 201.677 93.0333C203.992 93.0333 205.937 91.8448 206.695 90.0793H201.671V84.6444H214.752C214.787 85.106 214.822 85.8618 214.828 86.4734C214.828 94.0372 209.416 99.4432 201.648 99.4432" fill="white"/>
<path d="M225.304 73.8555H217.936V99.0625H225.304V73.8555Z" fill="white"/>
<path d="M235.034 99.0568L235.023 80.3289L228.413 80.3347L228.407 73.8555L249.001 73.844V80.3232L242.391 80.3289L242.403 99.051L235.034 99.0568Z" fill="white"/>
<path d="M263.894 90.039H258.401L261.139 80.9982L263.888 90.039H263.894ZM274.556 99.0337L265.619 73.8267H256.659L247.751 99.0452H255.698L256.96 94.8277H265.341L266.609 99.0337H274.556Z" fill="white"/>
<path d="M277.485 99.0338L277.473 73.8268L284.841 73.821L284.853 92.5489L294.82 92.5431L294.826 99.0223L277.485 99.0338Z" fill="white"/>
</g>
<defs>
<clipPath id="clip0_1007_2757">
<rect width="398" height="117" fill="white"/>
</clipPath>
</defs>
</svg>
