<svg width="119" height="60" viewBox="0 0 119 60" fill="none" xmlns="http://www.w3.org/2000/svg">
<g clip-path="url(#clip0_1003_2730)">
<path d="M118.7 60H0V0H118.7V60ZM3.17 56.88H115.44V3.12H3.17V56.88Z" fill="white"/>
<path d="M23.02 41.8001H17.2V18.3401H25.76C31.66 18.3401 34.65 21.9701 34.65 26.4401C34.65 30.9101 31.66 34.7001 25.76 34.7001H23.02V41.8001ZM23.02 23.3001V29.5801H24.68C27.01 29.5801 28.84 28.7501 28.84 26.3601C28.84 23.9701 27.09 23.3001 24.68 23.3001H23.02Z" fill="white"/>
<path d="M34.66 34.0401C34.66 29.2501 38.4 25.8601 43.14 25.8601C47.88 25.8601 51.62 29.2501 51.62 34.0401C51.62 38.8301 47.88 42.3001 43.14 42.3001C38.49 42.2201 34.66 38.7501 34.66 34.0401ZM40.06 34.0401C40.06 35.9401 41.31 37.4301 43.14 37.4301C44.97 37.4301 46.22 36.0301 46.22 34.0401C46.22 32.0501 44.97 30.7401 43.14 30.7401C41.31 30.6601 40.06 32.0601 40.06 34.0401Z" fill="white"/>
<path d="M63.42 30.6501H61.43C59.1 30.6501 58.52 32.6301 58.52 34.6201V41.8101H53.12V26.2001H58.36V28.6801C58.69 26.8601 59.86 26.1201 60.85 26.1201C61.27 26.1201 63.43 26.2001 63.43 26.2001V30.6601L63.42 30.6501Z" fill="white"/>
<path d="M72.73 20.6602V26.2802H75.89V30.6602H72.73V36.3602C72.73 37.2702 73.48 37.4302 74.14 37.4302C75.14 37.4302 75.89 37.3502 75.89 37.3502V41.9802C75.89 41.9802 73.31 42.1502 72.07 42.1502C69.49 42.1502 67.33 41.4102 67.33 38.1802V30.6602H65V26.2802H67.33V20.6602H72.73Z" fill="white"/>
<path d="M77.05 34.0401C77.05 29.2501 80.79 25.8601 85.53 25.8601C90.27 25.8601 94.01 29.2501 94.01 34.0401C94.01 38.8301 90.27 42.3001 85.53 42.3001C80.79 42.2201 77.05 38.7501 77.05 34.0401ZM82.45 34.0401C82.45 35.9401 83.7 37.4301 85.53 37.4301C87.36 37.4301 88.61 36.0301 88.61 34.0401C88.61 32.0501 87.36 30.7401 85.53 30.7401C83.7 30.6601 82.45 32.0601 82.45 34.0401Z" fill="white"/>
<path d="M98.16 35.53C100.07 35.53 101.57 37.02 101.57 38.92C101.57 40.82 100.07 42.31 98.16 42.31C96.25 42.31 94.75 40.82 94.75 38.92C94.83 37.02 96.33 35.53 98.16 35.53Z" fill="white"/>
</g>
<defs>
<clipPath id="clip0_1003_2730">
<rect width="118.7" height="60" fill="white"/>
</clipPath>
</defs>
</svg>
