<svg width="1281" height="419" viewBox="0 0 1281 419" fill="none" xmlns="http://www.w3.org/2000/svg">
<path d="M267.394 68.297C264.94 73.6243 251.83 83.5606 237.344 91.5815C204.78 109.539 145.28 136.594 138.935 136.594C128.998 136.594 84.4023 162.572 75.5431 173.286C53.9935 199.983 44.0568 219.436 27.4158 269.058C20.7115 288.93 12.9297 307.606 10.0564 311.078C0.538717 320.954 3.71129 334.362 19.9932 351.541C34.8384 367.164 44.0568 373.269 75.5431 387.755C103.138 400.744 115.23 403.437 155.216 405.712C202.985 408.764 215.735 410.321 224.235 415.289C233.753 420.616 246.503 420.197 244.767 414.092C243.689 411.817 240.158 408.765 236.267 408.405C221.362 405.353 223.517 399.965 239.439 399.965C251.471 399.965 256.08 398.469 256.08 394.638C256.08 387.395 247.939 384.702 232.376 387.395C218.189 389.67 217.471 385.839 231.298 382.786C238.003 381.29 246.862 373.269 244.408 370.995C244.048 370.576 228.485 371.773 210.407 373.269C191.671 375.185 168.266 374.825 157.312 372.91C146.357 370.995 136.42 369.438 135.044 369.438C133.248 369.438 132.17 367.942 132.17 366.026C132.17 364.111 155.216 361.836 183.171 361.058C227.407 359.921 235.189 358.784 241.594 352.678C251.83 342.742 250.753 326.7 239.439 312.215C238.841 311.377 235.788 307.307 230.221 300.004L241.235 288.152L252.549 275.941C252.549 286.716 252.549 292.701 252.549 293.899C252.549 303.775 254.284 316.046 256.439 321.373C260.689 330.89 285.471 350.763 311.271 364.889C326.535 373.269 371.131 383.984 381.008 381.649C390.585 379.375 388.131 373.269 376.398 370.576C360.117 367.164 360.117 362.196 376.398 359.502C395.554 356.09 394.476 350.344 374.663 350.344C356.226 350.344 353.771 345.436 369.335 339.33C381.726 334.721 383.881 325.563 372.148 328.616C367.599 329.753 360.476 331.668 356.226 332.447C351.976 333.584 345.271 336.637 341.021 338.911C330.785 344.657 324.38 341.605 304.567 322.51C303.489 321.373 297.922 315.806 287.926 305.69C292.176 294.497 294.57 288.272 294.989 287.015C298.581 276.72 303.489 261.037 305.644 252.298C307.739 243.14 319.113 222.908 333.24 202.676C362.99 160.297 379.272 127.436 381.367 104.93C383.163 83.5606 379.272 79.0115 348.803 68.297C336.412 64.107 320.849 56.8643 314.503 52.6743C300.317 43.0972 296.067 43.0972 282.598 51.8962C276.971 55.727 269.908 63.3289 267.394 68.297Z" fill="white"/>
<path d="M880.598 51.1779C889.696 62.1916 894.725 68.297 895.742 69.4942C909.33 86.2542 910.947 102.236 910.947 219.556C910.947 340.886 909.33 352.02 894.964 360.819C868.626 377.579 878.203 382.367 935.669 382.367C989.962 382.367 1008.28 372.79 975.595 362.435C962.007 358.425 959.613 350.464 959.613 316.106C959.672 313.352 959.912 299.525 960.391 274.625C974.278 291.385 982 300.722 983.557 302.578C996.307 317.722 1015.46 342.443 1025.04 356.03C1041.02 379.195 1047.43 382.367 1081.73 382.367C1119.26 382.367 1132.01 372.012 1105.67 363.213C1097.71 360.819 1069.75 334.482 1043.42 305.75C1040.24 302.219 1024.56 284.381 996.307 252.298C1017.38 233.622 1029.11 223.207 1031.44 221.172C1051.38 204.412 1073.77 188.43 1081.73 186.036C1088.91 183.642 1095.31 177.237 1095.31 172.448C1095.31 166.104 1079.33 162.871 1047.43 162.871C1016.3 162.871 999.539 166.104 999.539 172.448C999.539 177.237 1004.33 182.864 1009.89 185.258C1016.3 187.652 1009.12 200.402 989.962 219.556C987.926 221.651 977.81 232.006 959.613 250.682C959.613 182.205 959.613 144.196 959.613 136.534C959.613 12.0313 961.229 14.4256 910.109 37.5903C906.158 39.386 896.341 43.9352 880.598 51.1779Z" fill="white"/>
<path d="M1137.58 174.843C1136.08 175.621 1128.66 179.332 1115.25 186.036L1137.58 189.208L1159.13 191.603C1159.13 240.925 1159.13 268.34 1159.13 273.846C1159.13 366.386 1167.15 382.367 1212.64 382.367C1246.16 382.367 1261.31 375.185 1271.66 356.03C1279.68 341.665 1278.84 340.048 1256.52 344.837C1215.81 352.858 1207.01 336.098 1207.85 257.865C1207.85 253.375 1208.15 231.049 1208.63 190.825C1227.31 190.825 1237.66 190.825 1239.76 190.825C1282.08 190.825 1282.86 168.498 1241.37 165.266C1213.42 162.871 1211.02 160.477 1208.63 136.534C1205.46 103.852 1196.66 103.852 1175.89 137.372C1167.15 152.516 1149.55 169.276 1137.58 174.843Z" fill="white"/>
<path d="M485.583 201.778C494.322 208.961 497.555 228.953 497.555 278.395C497.555 336.696 495.16 346.273 481.572 355.013C454.455 372.611 463.195 377.399 521.498 377.399C575.731 377.399 594.108 367.822 561.365 357.407C546.221 352.618 544.604 346.273 546.999 279.233C547.178 274.325 547.956 249.844 549.393 205.789C569.985 205.789 581.478 205.789 583.753 205.789C609.253 205.789 620.447 201.778 626.852 190.645C643.612 160.297 588.541 141.143 559.809 167.48C546.221 179.452 545.442 179.452 545.442 167.48C545.442 150.72 533.47 150.72 499.949 167.48C470.378 182.624 467.984 187.413 485.583 201.778Z" fill="white"/>
<path d="M656.303 279.413C656.303 343.281 697.007 382.367 763.272 382.367C792.005 382.367 804.755 377.579 825.526 359.203C839.893 346.453 850.249 333.704 847.854 331.309C845.46 328.915 827.921 332.866 808.766 339.27C780.811 348.847 771.234 348.847 753.695 340.886C732.145 330.471 701.796 281.807 708.979 269.058C711.374 265.826 743.339 262.653 780.811 262.653C855.037 262.653 857.432 260.259 839.115 207.585C824.748 167.66 769.677 147.727 724.184 166.882C687.43 182.026 656.303 233.144 656.303 279.413ZM794.399 222.728C798.41 237.094 794.399 238.71 755.311 238.71C707.423 238.71 699.402 227.517 728.135 198.786C747.29 179.631 751.3 179.631 773.628 194.835C782.427 201.18 792.005 213.989 794.399 222.728Z" fill="white"/>
</svg>
