<svg width="706" height="224" viewBox="0 0 706 224" fill="none" xmlns="http://www.w3.org/2000/svg">
<path d="M269.67 156.16V146.56H294.63V158.08C294.63 170.08 299.91 174.4 308.31 174.4C316.71 174.4 322.23 170.08 322.23 157.6C322.23 143.68 316.47 135.04 299.19 119.92C277.11 100.48 269.67 86.56 269.67 67.36C269.67 40.96 283.35 25.6 309.03 25.6C334.71 25.6 347.43 40.96 347.43 67.84V74.8H322.47V66.16C322.47 54.16 317.67 49.6 309.27 49.6C300.87 49.6 295.83 54.16 295.83 65.68C295.83 77.92 301.83 86.56 319.11 101.68C341.19 121.12 348.39 134.8 348.39 155.68C348.39 183.04 334.47 198.4 308.55 198.4C282.63 198.4 269.67 183.04 269.67 156.16Z" fill="white"/>
<path d="M363.27 28H389.67V196H363.27V28Z" fill="white"/>
<path d="M404.78 156.16V146.56H429.74V158.08C429.74 170.08 435.02 174.4 443.42 174.4C451.82 174.4 457.34 170.08 457.34 157.6C457.34 143.68 451.58 135.04 434.3 119.92C412.22 100.48 404.78 86.56 404.78 67.36C404.78 40.96 418.46 25.6 444.14 25.6C469.82 25.6 482.54 40.96 482.54 67.84V74.8H457.58V66.16C457.58 54.16 452.78 49.6 444.38 49.6C435.98 49.6 430.94 54.16 430.94 65.68C430.94 77.92 436.94 86.56 454.22 101.68C476.3 121.12 483.5 134.8 483.5 155.68C483.5 183.04 469.58 198.4 443.66 198.4C417.74 198.4 404.78 183.04 404.78 156.16Z" fill="white"/>
<path d="M498.38 28H535.58L553.1 149.92L570.62 28H607.82V196H582.86V68.8L563.18 196H541.1L521.42 68.8V196H498.38V28Z" fill="white"/>
<path d="M625.58 156.16V67.84C625.58 40.96 639.74 25.6 665.66 25.6C691.58 25.6 705.74 40.96 705.74 67.84V156.16C705.74 183.04 691.58 198.4 665.66 198.4C639.74 198.4 625.58 183.04 625.58 156.16ZM679.34 157.84V66.16C679.34 54.16 674.06 49.6 665.66 49.6C657.26 49.6 651.98 54.16 651.98 66.16V157.84C651.98 169.84 657.26 174.4 665.66 174.4C674.06 174.4 679.34 169.84 679.34 157.84Z" fill="white"/>
<path d="M109.72 94.0599C93.4197 94.0599 80.1597 107.32 80.1597 123.62C80.1597 139.92 93.4197 153.18 109.72 153.18C126.02 153.18 139.28 139.92 139.28 123.62C139.28 107.32 126.02 94.0599 109.72 94.0599Z" fill="white"/>
<path d="M26.1498 0.939941C11.8498 0.939941 0.259766 12.5299 0.259766 26.8299V223.06H192.94C207.24 223.06 218.83 211.47 218.83 197.17V0.939941H26.1498ZM118.6 169.44L118.55 204.24L100.43 204.22L100.48 169.44C78.9298 165.2 62.6298 146.18 62.6298 123.41C62.6298 97.5399 83.6798 76.4899 109.55 76.4899C135.42 76.4899 156.47 97.5399 156.47 123.41C156.47 146.18 140.16 165.21 118.6 169.45V169.44ZM165.08 123.53C165.08 92.9099 140.17 67.9899 109.54 67.9899C78.9098 67.9899 53.9998 92.8999 53.9998 123.53H35.8798C35.8798 99.6699 47.2898 78.4399 64.9198 64.9699L49.8198 38.3399L65.5798 29.3999L80.5598 55.8099C86.7998 53.1299 93.4898 51.2999 100.47 50.4399V19.7599H118.59V50.4399C125.44 51.2799 132 53.0499 138.14 55.6499L153.48 29.3799L169.13 38.5199L153.83 64.7199C171.65 78.1799 183.19 99.5299 183.19 123.53H165.07H165.08Z" fill="white"/>
</svg>
