<svg width="2542" height="466" viewBox="0 0 2542 466" fill="none" xmlns="http://www.w3.org/2000/svg">
<g clip-path="url(#clip0_814_2719)">
<path fill-rule="evenodd" clip-rule="evenodd" d="M741.417 296.443C741.417 332.393 720.863 353.03 680.431 353.03H583.728V310.424H668.973C681.44 310.424 687.507 306.096 687.507 295.114C687.507 286.126 680.768 280.468 665.942 270.149L615.402 231.537C589.794 212.23 579.011 194.256 579.011 172.953C579.011 136.672 600.576 120.03 643.03 120.03H737.373V162.635H652.464C639.323 162.635 632.921 166.963 632.921 178.28C632.921 186.934 639.66 192.593 654.823 202.577L705.026 237.195C730.634 254.504 741.417 275.475 741.417 296.443Z" fill="white"/>
<path fill-rule="evenodd" clip-rule="evenodd" d="M939.128 162.637H878.023V353.03H823.705V162.637H762.6V120.03H939.128V162.637Z" fill="white"/>
<path fill-rule="evenodd" clip-rule="evenodd" d="M1084.84 269.15L1052.44 176.947L1019.7 269.15H1084.84ZM1098.73 308.094H1005.48L989.606 353.03H932.066L1024.33 120.03H1079.88L1172.14 353.03H1114.61L1098.73 308.094Z" fill="white"/>
<path fill-rule="evenodd" clip-rule="evenodd" d="M1263.75 229.872C1293.4 229.872 1302.16 219.553 1302.16 194.923C1302.16 170.291 1293.4 159.972 1263.75 159.972H1240.17V229.872H1263.75ZM1362.79 353.03H1308.56L1298.11 308.427C1291.38 277.472 1285.31 269.15 1261.73 268.816H1240.17V353.03H1186.27V120.03H1282.95C1333.15 120.03 1356.06 141.998 1356.06 189.929C1356.06 222.218 1343.25 241.855 1317.32 249.844C1335.84 258.499 1344.94 275.807 1352.35 308.427L1362.79 353.03Z" fill="white"/>
<path fill-rule="evenodd" clip-rule="evenodd" d="M1450.61 232.87L1534.29 120.03H1596.97L1509.02 232.87L1602.87 353.03H1540.19L1450.61 232.87ZM1398.1 353.03H1450.61V120.03H1398.1V353.03Z" fill="white"/>
<path fill-rule="evenodd" clip-rule="evenodd" d="M1948.87 120.03L1878.4 353.03H1845.47L1789.83 166.63L1734.18 353.03H1700.92L1631.12 120.03H1663.39L1718.37 316.748L1776.66 120.03H1803L1861.28 316.748L1916.6 120.03H1948.87Z" fill="white"/>
<path fill-rule="evenodd" clip-rule="evenodd" d="M2088.47 270.149L2044.36 153.315L1999.91 270.149H2088.47ZM2096.83 292.451H1991.55L1968.5 353.03H1934.74L2027.98 120.03H2060.4L2153.64 353.03H2119.88L2096.83 292.451Z" fill="white"/>
<path fill-rule="evenodd" clip-rule="evenodd" d="M2255 234.199C2292.06 234.199 2305.88 219.888 2305.88 188.599C2305.88 157.975 2292.06 143.331 2255 143.331H2212.88V234.199H2255ZM2344.29 353.03H2312.95L2304.53 313.087C2296.11 271.48 2285.66 257.5 2253.99 256.834H2212.88V353.03H2181.88V120.03H2265.44C2314.98 120.03 2336.88 141.665 2336.88 185.936C2336.88 219.221 2323.06 239.525 2294.08 246.183C2317 254.837 2327.44 274.476 2335.53 313.087L2344.29 353.03Z" fill="white"/>
<path d="M2424.51 144.661V215.559H2528.28V238.527H2424.51V288.456C2424.51 316.084 2436.56 328.398 2464.01 328.398H2542V353.03H2459.32C2410.45 353.03 2393.72 337.053 2393.72 291.119V120.03H2542V144.661H2424.51Z" fill="white"/>
<path fill-rule="evenodd" clip-rule="evenodd" d="M225.625 262.882L185.692 304.06C185.667 304.083 185.643 304.109 185.613 304.128C185.515 304.193 185.397 304.23 185.272 304.23C184.926 304.23 184.644 303.94 184.644 303.581C184.644 303.51 184.654 303.438 184.677 303.373C184.677 303.375 184.677 303.371 184.677 303.373L199.867 244.94C201.163 240.75 200.2 235.982 196.977 232.659L157.044 191.48C157.022 191.454 156.998 191.429 156.978 191.398C156.916 191.298 156.879 191.177 156.879 191.048C156.879 190.69 157.16 190.399 157.508 190.399C157.579 190.399 157.647 190.411 157.71 190.433L214.378 206.099C218.439 207.434 223.064 206.442 226.286 203.118L266.22 161.942C266.245 161.917 266.27 161.891 266.3 161.872C266.398 161.807 266.514 161.77 266.64 161.77C266.987 161.77 267.268 162.06 267.268 162.419C267.268 162.492 267.256 162.562 267.235 162.627L252.045 221.06C250.749 225.248 251.712 230.018 254.934 233.341L294.866 274.52C294.891 274.546 294.915 274.571 294.933 274.601C294.996 274.702 295.034 274.823 295.034 274.952C295.034 275.309 294.75 275.599 294.404 275.599C294.333 275.599 294.265 275.589 294.202 275.567C294.204 275.567 294.201 275.567 294.202 275.567L237.534 259.901C233.473 258.566 228.847 259.56 225.625 262.882ZM450.188 228.709L354.806 130.355C351.584 127.032 346.96 126.038 342.899 127.374L280.176 144.719C280.169 144.717 280.167 144.708 280.155 144.712C280.097 144.731 280.033 144.742 279.967 144.742C279.621 144.742 279.339 144.451 279.339 144.093C279.339 143.863 279.453 143.662 279.628 143.547C286.474 138.852 296.85 130.355 321.668 104.764C323.965 102.395 323.965 98.552 321.668 96.1816L230.117 1.77779C227.819 -0.592597 224.093 -0.592597 221.796 1.77779L126.414 100.132C123.192 103.454 122.229 108.225 123.525 112.412L140.343 177.089C140.342 177.096 140.334 177.098 140.337 177.112C140.357 177.172 140.366 177.238 140.366 177.304C140.366 177.663 140.084 177.954 139.736 177.954C139.515 177.954 139.319 177.834 139.207 177.654C134.654 170.594 126.414 159.896 101.598 134.305C99.2991 131.935 95.5723 131.935 93.2751 134.305L1.72404 228.709C-0.57468 231.079 -0.57468 234.922 1.72404 237.291L97.1043 335.645C100.326 338.968 104.953 339.962 109.014 338.626L171.736 321.281C171.743 321.283 171.743 321.292 171.757 321.288C171.816 321.269 171.879 321.258 171.944 321.258C172.292 321.258 172.573 321.549 172.573 321.907C172.573 322.136 172.459 322.338 172.284 322.454C172.284 322.453 172.283 322.454 172.284 322.454C165.436 327.148 155.062 335.645 130.244 361.236C127.946 363.607 127.946 367.448 130.244 369.818L221.796 464.222C224.093 466.593 227.819 466.593 230.117 464.222L325.497 365.868C328.719 362.546 329.683 357.775 328.388 353.588L311.569 288.911C311.569 288.902 311.578 288.902 311.574 288.89C311.556 288.828 311.546 288.764 311.546 288.696C311.546 288.337 311.828 288.046 312.175 288.046C312.398 288.046 312.593 288.166 312.705 288.346C317.257 295.406 325.497 306.105 350.314 331.695C352.613 334.065 356.338 334.065 358.637 331.695L450.188 237.291C452.485 234.922 452.485 231.079 450.188 228.709Z" fill="white"/>
</g>
<defs>
<clipPath id="clip0_814_2719">
<rect width="2542" height="466" fill="white"/>
</clipPath>
</defs>
</svg>
