<svg width="1659" height="220" viewBox="0 0 1659 220" fill="none" xmlns="http://www.w3.org/2000/svg">
<mask id="mask0_801_2718" style="mask-type:luminance" maskUnits="userSpaceOnUse" x="0" y="0" width="1657" height="220">
<path d="M1656.34 0H0V220H1656.34V0Z" fill="white"/>
</mask>
<g mask="url(#mask0_801_2718)">
<path fill-rule="evenodd" clip-rule="evenodd" d="M109.989 0L0 110L109.989 220L219.978 110L109.989 0ZM109.989 185.971L34.0261 110L109.989 34.0295L185.952 110L109.989 185.971ZM160.223 17.9436L252.209 109.939L160.223 201.933L176.82 218.532L285.402 109.939L176.82 1.3456L160.223 17.9436Z" fill="white"/>
<path fill-rule="evenodd" clip-rule="evenodd" d="M356.372 177.879C365.904 182.348 377.819 184.582 392.118 184.582C404.927 184.582 416.098 182.795 425.63 179.22C435.163 175.645 442.61 170.282 447.972 163.132C453.334 155.982 456.015 146.822 456.015 135.65C456.015 128.947 455.046 123.137 453.11 118.222C451.174 113.306 448.419 109.135 444.844 105.709C441.418 102.134 437.397 99.2292 432.779 96.9948C428.162 94.6115 423.098 92.675 417.587 91.1854C412.076 89.5469 406.342 88.2062 400.384 87.1635C394.575 85.9719 389.139 84.8549 384.075 83.8122C379.011 82.6205 374.617 81.131 370.893 79.3435C367.319 77.556 364.489 75.2469 362.404 72.4167C360.467 69.4375 359.499 65.6393 359.499 61.0216C359.499 56.106 360.765 51.9351 363.297 48.5091C365.978 44.934 369.702 42.1783 374.468 40.2418C379.383 38.3054 385.118 37.3372 391.671 37.3372C399.416 37.3372 405.821 38.4543 410.885 40.6887C415.949 42.9231 419.821 46.1257 422.502 50.2966C425.183 54.4674 426.598 59.532 426.747 65.4903H452.663C452.514 55.5101 450.057 46.9448 445.291 39.795C440.674 32.645 433.896 27.1335 424.96 23.2606C416.023 19.2387 405.076 17.2278 392.118 17.2278C380.054 17.2278 369.553 19.0898 360.616 22.8137C351.68 26.3887 344.679 31.6767 339.615 38.6778C334.7 45.5299 332.243 53.8716 332.243 63.7028C332.243 71.0018 333.583 77.1833 336.264 82.2479C338.945 87.3125 342.669 91.558 347.435 94.9841C352.201 98.4101 357.786 101.24 364.191 103.475C370.595 105.709 377.596 107.571 385.192 109.06C391.15 110.252 396.735 111.518 401.948 112.859C407.161 114.051 411.778 115.615 415.8 117.551C419.97 119.487 423.172 122.02 425.407 125.148C427.641 128.276 428.758 132.447 428.758 137.66C428.758 143.172 427.418 147.939 424.737 151.96C422.056 155.833 418.034 158.887 412.672 161.122C407.459 163.207 400.831 164.25 392.788 164.25C384.894 164.25 378.043 163.132 372.234 160.898C366.574 158.664 362.106 155.163 358.829 150.397C355.701 145.481 353.988 139.225 353.691 131.628H327.774C327.774 141.906 330.157 151.067 334.924 159.11C339.69 167.154 346.839 173.41 356.372 177.879ZM567.796 177.432C574.647 182.199 583.212 184.582 593.487 184.582C601.828 184.582 609.202 182.572 615.604 178.55C622.158 174.528 626.924 169.24 629.903 162.685H631.47V182.348H655.374V64.3729H632.584L631.47 84.2591H629.903C627.075 77.407 622.382 72.0445 615.829 68.1716C609.426 64.1497 601.979 62.1385 593.487 62.1385C586.489 62.1385 580.082 63.4049 574.276 65.9372C568.616 68.3205 563.772 72.0445 559.753 77.1091C555.729 82.0247 552.677 88.2062 550.591 95.6542C548.506 103.102 547.466 111.891 547.466 122.02V125.372C547.466 137.735 549.102 148.311 552.379 157.1C555.807 165.888 560.944 172.666 567.796 177.432ZM623.427 156.429C618.363 162.09 611.36 164.92 602.424 164.92C596.319 164.92 591.104 163.728 586.787 161.345C582.465 158.813 579.115 155.312 576.732 150.843C574.349 146.375 573.158 140.938 573.158 134.532V112.412C573.158 106.007 574.349 100.496 576.732 95.8778C579.115 91.2601 582.465 87.7594 586.787 85.376C591.104 82.9927 596.319 81.801 602.424 81.801C608.381 81.801 613.519 83.1417 617.841 85.8229C622.158 88.3552 625.434 92.0049 627.671 96.7716C630.054 101.389 631.245 106.975 631.245 113.529V133.415C631.245 142.949 628.638 150.62 623.427 156.429ZM764.584 182.348V19.4622H788.493V19.468H788.52V121.095L844.794 64.1497H873.835L873.831 64.1557H873.867L827.397 110.002L875.206 182.354H847.502L847.497 182.348H847.475L810.624 126.064L788.52 147.051V182.354H764.616V182.348H764.584ZM893.959 19.4622V182.348H893.991V182.354H1010.39V160.457H1010.36V160.451H919.233V109.513H999.218V88.957H999.186V88.951H919.233V41.3649H1010.39V19.468H1010.36V19.4622H893.959ZM1146.98 219.662V64.3729H1169.55V64.3789H1169.58L1170.92 84.2591H1172.45C1175.13 77.407 1179.75 72.0445 1186.3 68.1716C1192.86 64.1497 1200.31 62.1385 1208.65 62.1385C1212.47 62.1385 1216.04 62.4594 1219.37 63.1006C1225.12 64.2061 1230.12 66.2709 1234.37 69.2945C1241.22 74.0612 1246.29 80.988 1249.56 90.0744C1252.99 99.0119 1254.7 109.662 1254.7 122.026V125.378C1254.7 135.507 1253.66 144.295 1251.57 151.743C1249.49 159.042 1246.43 165.149 1242.41 170.065C1238.39 174.981 1233.55 178.63 1227.89 181.013C1222.38 183.397 1216.05 184.588 1208.9 184.588C1205.84 184.588 1202.89 184.317 1200.07 183.774C1195.2 182.841 1190.68 181.099 1186.53 178.55C1179.98 174.529 1175.29 169.243 1172.46 162.691H1170.92V219.668H1147.02V219.662H1146.98ZM1199.93 164.92C1206.04 164.92 1211.25 163.728 1215.57 161.345C1219.89 158.813 1223.17 155.312 1225.4 150.843C1227.78 146.375 1228.98 140.938 1228.98 134.532V112.412C1228.98 106.007 1227.78 100.496 1225.4 95.8778C1223.17 91.2601 1219.89 87.7594 1215.57 85.376C1213.11 84.0194 1210.36 83.0491 1207.33 82.4647C1205.03 82.0261 1202.58 81.807 1199.96 81.807C1191.03 81.807 1183.95 84.7119 1178.74 90.5213C1173.53 96.1817 1170.92 103.853 1170.92 113.535V133.421C1170.92 139.827 1172.11 145.412 1174.49 150.179C1176.88 154.797 1180.23 158.446 1184.55 161.128C1187.12 162.638 1189.99 163.699 1193.16 164.308C1195.28 164.716 1197.54 164.92 1199.93 164.92ZM1365.54 176.985C1370.46 179.975 1376.11 182.083 1382.49 183.307C1386.92 184.162 1391.71 184.588 1396.85 184.588C1406.38 184.588 1414.94 182.95 1422.54 179.673C1430.14 176.247 1436.17 171.555 1440.64 165.596C1445.1 159.638 1447.56 152.637 1448.01 144.593H1447.98V144.587H1425.19C1424.3 150.992 1421.25 156.206 1416.03 160.228C1410.97 164.101 1404.34 166.037 1396.15 166.037C1393.57 166.037 1391.1 165.813 1388.78 165.365C1385.74 164.779 1382.92 163.813 1380.32 162.468C1375.7 160.085 1372.05 156.733 1369.37 152.413C1366.84 147.945 1365.57 142.806 1365.57 136.996V133.421V129.399H1448.9V116.44C1448.9 105.566 1446.82 96.107 1442.65 88.0633C1438.48 79.8705 1432.45 73.54 1424.55 69.0713C1419.93 66.3676 1414.7 64.4554 1408.85 63.3348C1404.7 62.5373 1400.24 62.1385 1395.48 62.1385C1384.75 62.1385 1375.29 64.4476 1367.1 69.0653C1358.91 73.5341 1352.51 80.2372 1347.89 89.1747C1343.27 98.1122 1340.96 108.986 1340.96 121.797V123.36C1340.96 135.575 1342.97 146.3 1346.99 155.535C1351.16 164.771 1357.35 171.921 1365.54 176.985ZM1425.42 113.753H1365.57V112.641C1365.57 105.938 1366.69 100.204 1368.92 95.4369C1371.31 90.5213 1374.73 86.7973 1379.2 84.265C1383.82 81.5838 1389.4 80.2432 1395.95 80.2432C1398.62 80.2432 1401.13 80.4682 1403.47 80.9183C1408.98 81.9812 1413.62 84.2861 1417.37 87.8341C1422.74 92.8987 1425.42 101.166 1425.42 112.635V113.753ZM1488.76 183.26C1484.49 182.442 1480.59 181.244 1477.08 179.667C1469.78 176.39 1464.27 171.772 1460.55 165.814C1456.83 159.855 1454.97 153.003 1454.97 145.257L1477.98 145.481V145.486L1478 145.487C1478.16 153.233 1480.69 158.818 1485.6 162.245C1488.58 164.226 1492.09 165.609 1496.15 166.392C1498.8 166.9 1501.68 167.154 1504.79 167.154C1512.83 167.154 1518.71 165.59 1522.44 162.462C1526.16 159.334 1528.02 155.386 1528.02 150.62C1528.02 147.045 1527.35 144.14 1526.01 141.906C1524.82 139.672 1523.03 137.884 1520.65 136.543C1518.42 135.054 1515.51 133.936 1511.94 133.192C1511.12 132.989 1510.29 132.79 1509.42 132.595C1506.95 132.038 1504.26 131.512 1501.35 131.017C1500.8 130.923 1500.25 130.831 1499.68 130.74C1498.53 130.565 1497.38 130.378 1496.24 130.179C1494.93 129.952 1493.63 129.708 1492.33 129.449C1489.91 128.965 1487.51 128.425 1485.13 127.829C1480.36 126.489 1475.97 124.627 1471.95 122.243C1467.92 119.86 1464.65 116.732 1462.12 112.859C1459.73 108.837 1458.54 103.773 1458.54 97.6653C1458.54 90.0685 1460.48 83.5885 1464.35 78.226C1468.22 72.8635 1473.58 68.8417 1480.43 66.1604C1487.28 63.4792 1495.1 62.1385 1503.89 62.1385C1508.62 62.1385 1513.01 62.529 1517.08 63.3096C1520.96 64.0539 1524.55 65.1553 1527.83 66.6132C1534.68 69.4435 1540.04 73.54 1543.92 78.9025C1547.79 84.265 1549.8 90.7445 1549.95 98.3414H1527.16V98.3354H1527.13C1527.13 94.1646 1526.16 90.6643 1524.22 87.8341C1522.29 85.0039 1519.53 82.8437 1515.96 81.3542C1514.61 80.768 1513.16 80.2972 1511.6 79.9416C1511.18 79.8458 1510.75 79.7578 1510.31 79.6785C1508.27 79.31 1506.07 79.1257 1503.7 79.1257C1496.4 79.1257 1490.96 80.6153 1487.39 83.5945C1483.82 86.4247 1482.03 90.1487 1482.03 94.7664C1482.03 98.9372 1483.22 102.14 1485.6 104.374C1488.14 106.609 1491.49 108.247 1495.66 109.29C1498.13 109.802 1500.7 110.314 1503.38 110.827C1505.36 111.206 1507.39 111.586 1509.48 111.965C1511.03 112.154 1512.59 112.372 1514.16 112.619C1516.93 113.058 1519.73 113.589 1522.55 114.213C1523.19 114.356 1523.83 114.501 1524.48 114.653C1529.54 115.844 1534.16 117.706 1538.33 120.238C1542.65 122.771 1546.07 126.271 1548.6 130.74C1551.14 135.209 1552.4 141.018 1552.4 148.168C1552.4 156.063 1550.39 162.691 1546.37 168.054C1542.5 173.416 1536.91 177.513 1529.62 180.343C1522.47 183.173 1513.9 184.588 1503.92 184.588C1498.43 184.588 1493.37 184.146 1488.76 183.26ZM1608.76 167.154C1609.77 167.154 1610.74 167.13 1611.68 167.081C1617.2 166.793 1621.55 165.659 1624.73 163.677C1625.33 163.303 1625.89 162.898 1626.41 162.464C1630.13 159.335 1631.99 155.388 1631.99 150.621C1631.99 147.046 1631.32 144.142 1629.98 141.907C1628.79 139.673 1627 137.885 1624.62 136.545C1622.38 135.055 1619.48 133.938 1615.91 133.193C1612.33 132.299 1608.24 131.48 1603.62 130.735C1598.7 129.991 1593.86 129.022 1589.1 127.831C1584.33 126.49 1579.94 124.628 1575.91 122.245C1571.89 119.862 1568.62 116.733 1566.08 112.86C1563.7 108.839 1562.51 103.774 1562.51 97.6667C1562.51 90.0698 1564.45 83.5899 1568.32 78.2274C1571.22 74.2046 1574.97 70.9367 1579.55 68.4227C1581.07 67.5858 1582.69 66.8323 1584.41 66.1627L1584.41 66.1604C1589.96 63.9888 1596.15 62.6963 1602.97 62.2838C1604.57 62.1871 1606.2 62.1385 1607.87 62.1385C1617.1 62.1385 1625.07 63.6281 1631.77 66.6073C1638.63 69.4375 1643.99 73.5341 1647.86 78.8966C1651.73 84.2591 1653.74 90.7385 1653.89 98.3354H1653.89L1631.1 98.3368C1631.1 94.166 1630.13 90.6657 1628.19 87.8355C1626.26 85.0053 1623.5 82.8451 1619.93 81.3555C1616.5 79.866 1612.41 79.1212 1607.64 79.1212C1606.73 79.1212 1605.85 79.1436 1605 79.1899C1600.01 79.4617 1596.01 80.5264 1593.01 82.3845C1592.41 82.7548 1591.85 83.1559 1591.33 83.5885C1587.76 86.4187 1585.97 90.1427 1585.97 94.7604C1585.97 98.9312 1587.16 102.134 1589.55 104.368C1592.08 106.603 1595.43 108.241 1599.6 109.284C1603.92 110.178 1608.54 111.072 1613.45 111.965C1618.37 112.561 1623.36 113.455 1628.42 114.647C1633.49 115.838 1638.1 117.7 1642.27 120.232C1646.59 122.765 1650.02 126.265 1652.55 130.734C1655.08 135.203 1656.35 141.012 1656.35 148.162C1656.35 156.057 1654.34 162.685 1650.32 168.048C1647.41 172.07 1643.54 175.379 1638.71 177.977C1637.1 178.843 1635.38 179.63 1633.56 180.337C1632.67 180.691 1631.75 181.022 1630.81 181.332C1625.36 183.133 1619.16 184.185 1612.21 184.489C1610.79 184.552 1609.34 184.584 1607.86 184.584C1597.29 184.584 1588.35 182.945 1581.06 179.668C1573.75 176.391 1568.25 171.773 1564.52 165.815C1560.8 159.857 1558.93 153.004 1558.93 145.259L1558.94 145.257L1581.95 145.481C1582.1 153.227 1584.63 158.813 1589.55 162.239C1594.46 165.516 1600.87 167.154 1608.76 167.154ZM512.109 25.9292H488.049V65.4596H460.533V86.0846H488.049V182.336H512.109V182.329H543.053V158.267H512.109V86.0846H543.025V65.4596H512.109V25.9292ZM680.511 62.0276H704.571L749.268 62.0281V82.6531H704.571V182.34H680.511V62.0276ZM1271.73 62.0281H1271.74H1295.79H1340.48V82.6531H1295.79V182.341H1271.73V62.0281ZM1108.12 101.481L1134.6 65.3359H1105.62L1093.63 81.7043L1108.12 101.481ZM1078.72 102.063L1078.57 102.278L1051.5 65.3359H1022.53L1064.08 122.055L1020.01 182.216H1048.98L1078.57 141.832L1108.14 182.216H1137.12L1093.05 122.055L1093.21 121.841L1078.72 102.063Z" fill="white"/>
<path fill-rule="evenodd" clip-rule="evenodd" d="M144.452 34.187L85.807 92.8382L69.2803 109.367L85.807 125.895L144.449 184.543L160.976 168.014L102.334 109.367L160.979 50.7155L144.452 34.187Z" fill="url(#paint0_linear_801_2718)"/>
</g>
<defs>
<linearGradient id="paint0_linear_801_2718" x1="117.273" y1="92.0411" x2="161.972" y2="136.5" gradientUnits="userSpaceOnUse">
<stop stop-color="white"/>
<stop offset="1" stop-color="white" stop-opacity="0"/>
</linearGradient>
</defs>
</svg>
